Kaveri-BoldItalic.ufo
<glyph name="exclam" format="2">
  <advance width="194"/>
  <unicode hex="0021"/>
  <note>
GF Latin Plus glyph
</note>
  <outline>
    <component base="period" xOffset="12"/>
    <contour>
      <point x="79" y="145" type="line"/>
      <point x="157" y="145" type="line"/>
      <point x="233" y="527" type="line"/>
      <point x="127" y="527" type="line"/>
    </contour>
  </outline>
</glyph>
<glyph name="numbersign" format="2">
  <advance width="516"/>
  <unicode hex="0023"/>
  <note>
GF Latin Plus glyph
</note>
  <outline>
    <contour>
      <point x="92" y="0" type="line"/>
      <point x="163" y="0" type="line"/>
      <point x="213" y="147" type="line"/>
      <point x="295" y="147" type="line"/>
      <point x="245" y="0" type="line"/>
      <point x="317" y="0" type="line"/>
      <point x="367" y="147" type="line"/>
      <point x="495" y="147" type="line"/>
      <point x="516" y="218" type="line"/>
      <point x="394" y="218" type="line"/>
      <point x="422" y="303" type="line"/>
      <point x="544" y="303" type="line"/>
      <point x="566" y="374" type="line"/>
      <point x="445" y="374" type="line"/>
      <point x="494" y="522" type="line"/>
      <point x="423" y="522" type="line"/>
      <point x="373" y="374" type="line"/>
      <point x="292" y="374" type="line"/>
      <point x="342" y="522" type="line"/>
      <point x="271" y="522" type="line"/>
      <point x="220" y="374" type="line"/>
      <point x="106" y="374" type="line"/>
      <point x="83" y="303" type="line"/>
      <point x="195" y="303" type="line"/>
      <point x="167" y="218" type="line"/>
      <point x="56" y="218" type="line"/>
      <point x="34" y="147" type="line"/>
      <point x="142" y="147" type="line"/>
    </contour>
    <contour>
      <point x="238" y="218" type="line"/>
      <point x="266" y="303" type="line"/>
      <point x="351" y="303" type="line"/>
      <point x="323" y="218" type="line"/>
    </contour>
  </outline>
</glyph>
<glyph name="dollar" format="2">
  <advance width="435"/>
  <unicode hex="0024"/>
  <note>
GF Latin Plus glyph
</note>
  <outline>
    <component base="S"/>
    <contour>
      <point x="269" y="515" type="line"/>
      <point x="328" y="533" type="line"/>
      <point x="333" y="588" type="line"/>
      <point x="274" y="571" type="line"/>
    </contour>
    <contour>
      <point x="174" y="-63" type="line"/>
      <point x="233" y="-63" type="line"/>
      <point x="245" y="6" type="line"/>
      <point x="185" y="6" type="line"/>
    </contour>
  </outline>
</glyph>
<glyph name="ampersand" format="2">
  <advance width="498"/>
  <unicode hex="0026"/>
  <note>
GF Latin Plus glyph
</note>
  <outline>
    <contour>
      <point x="165" y="-4" type="curve" smooth="yes"/>
      <point x="214" y="-4"/>
      <point x="253" y="8"/>
      <point x="297" y="42" type="curve" smooth="yes"/>
      <point x="328" y="65" type="line"/>
      <point x="369" y="0" type="line"/>
      <point x="478" y="0" type="line"/>
      <point x="408" y="118" type="line"/>
      <point x="455" y="158" type="line"/>
      <point x="511" y="237" type="line"/>
      <point x="480" y="285" type="line"/>
      <point x="363" y="193" type="line"/>
      <point x="285" y="328" type="line" smooth="yes"/>
      <point x="270" y="356"/>
      <point x="262" y="375"/>
      <point x="262" y="391" type="curve" smooth="yes"/>
      <point x="262" y="417"/>
      <point x="280" y="432"/>
      <point x="317" y="432" type="curve" smooth="yes"/>
      <point x="421" y="432" type="line"/>
      <point x="433" y="510" type="line"/>
      <point x="407" y="516"/>
      <point x="361" y="526"/>
      <point x="311" y="526" type="curve" smooth="yes"/>
      <point x="206" y="526"/>
      <point x="157" y="471"/>
      <point x="157" y="402" type="curve" smooth="yes"/>
      <point x="157" y="380"/>
      <point x="160" y="354"/>
      <point x="177" y="322" type="curve" smooth="yes"/>
      <point x="185" y="307" type="line"/>
      <point x="134" y="278" type="line" smooth="yes"/>
      <point x="70" y="241"/>
      <point x="41" y="194"/>
      <point x="41" y="116" type="curve" smooth="yes"/>
      <point x="41" y="43"/>
      <point x="90" y="-4"/>
    </contour>
    <contour>
      <point x="197" y="92" type="curve" smooth="yes"/>
      <point x="167" y="92"/>
      <point x="149" y="112"/>
      <point x="149" y="142" type="curve" smooth="yes"/>
      <point x="149" y="175"/>
      <point x="159" y="199"/>
      <point x="198" y="221" type="curve" smooth="yes"/>
      <point x="224" y="235" type="line"/>
      <point x="283" y="136" type="line"/>
      <point x="263" y="118" type="line" smooth="yes"/>
      <point x="238" y="98"/>
      <point x="218" y="92"/>
    </contour>
  </outline>
</glyph>
<glyph name="quotesingle" format="2">
  <advance width="155"/>
  <unicode hex="0027"/>
  <note>
GF Latin Plus glyph
</note>
  <outline>
    <contour>
      <point x="88" y="355" type="line"/>
      <point x="176" y="355" type="line"/>
      <point x="204" y="490" type="line"/>
      <point x="211" y="538" type="line"/>
      <point x="109" y="538" type="line"/>
      <point x="102" y="490" type="line"/>
    </contour>
  </outline>
</glyph>
<glyph name="parenleft" format="2">
  <advance width="276"/>
  <unicode hex="0028"/>
  <note>
GF Latin Plus glyph
</note>
  <outline>
    <contour>
      <point x="146" y="-150" type="curve"/>
      <point x="241" y="-150" type="line"/>
      <point x="199" y="-61"/>
      <point x="174" y="23"/>
      <point x="174" y="125" type="curve" smooth="yes"/>
      <point x="174" y="295"/>
      <point x="262" y="491"/>
      <point x="362" y="614" type="curve"/>
      <point x="267" y="614" type="line"/>
      <point x="164" y="510"/>
      <point x="68" y="300"/>
      <point x="68" y="118" type="curve" smooth="yes"/>
      <point x="68" y="0"/>
      <point x="102" y="-84"/>
    </contour>
  </outline>
</glyph>
<glyph name="parenright" format="2">
  <advance width="370"/>
  <unicode hex="0029"/>
  <outline>
    <contour>
      <point x="316" y="635" type="curve" smooth="yes"/>
      <point x="199" y="635" type="line"/>
      <point x="181" y="552" type="line"/>
      <point x="287" y="552" type="line" smooth="yes"/>
      <point x="290" y="552"/>
      <point x="317" y="551"/>
      <point x="317" y="521" type="curve" smooth="yes"/>
      <point x="317" y="516"/>
      <point x="317" y="512"/>
      <point x="316" y="509" type="curve" smooth="yes"/>
      <point x="181" y="-126" type="line" smooth="yes"/>
      <point x="177" y="-144"/>
      <point x="158" y="-162"/>
      <point x="136" y="-162" type="curve" smooth="yes"/>
      <point x="30" y="-162" type="line"/>
      <point x="12" y="-244" type="line"/>
      <point x="133" y="-244" type="line" smooth="yes"/>
      <point x="201" y="-244"/>
      <point x="265" y="-190"/>
      <point x="278" y="-126" type="curve" smooth="yes"/>
      <point x="414" y="513" type="line" smooth="yes"/>
      <point x="416" y="521"/>
      <point x="417" y="529"/>
      <point x="417" y="536" type="curve" smooth="yes"/>
      <point x="417" y="576"/>
      <point x="390" y="635"/>
    </contour>
  </outline>
</glyph>
<glyph name="asterisk" format="2">
  <advance width="310"/>
  <unicode hex="002A"/>
  <note>
GF Latin Plus glyph
</note>
  <outline>
    <contour>
      <point x="261" y="362" type="line"/>
      <point x="344" y="430" type="line"/>
      <point x="326" y="462" type="line"/>
      <point x="233" y="404" type="line"/>
    </contour>
    <contour>
      <point x="266" y="286" type="line"/>
      <point x="294" y="318" type="line"/>
      <point x="222" y="380" type="line"/>
      <point x="186" y="334" type="line"/>
    </contour>
    <contour>
      <point x="146" y="285" type="line"/>
      <point x="195" y="381" type="line"/>
      <point x="145" y="394" type="line"/>
      <point x="110" y="296" type="line"/>
    </contour>
    <contour>
      <point x="87" y="409" type="line"/>
      <point x="189" y="405" type="line"/>
      <point x="195" y="459" type="line"/>
      <point x="93" y="448" type="line"/>
    </contour>
    <contour>
      <point x="215" y="418" type="line"/>
      <point x="268" y="438" type="line"/>
      <point x="238" y="528" type="line"/>
      <point x="198" y="515" type="line"/>
    </contour>
  </outline>
</glyph>
<glyph name="plus" format="2">
  <advance width="435"/>
  <unicode hex="002B"/>
  <note>
GF Latin Plus glyph
</note>
  <outline>
    <contour>
      <point x="189" y="94" type="line"/>
      <point x="274" y="94" type="line"/>
      <point x="324" y="414" type="line"/>
      <point x="239" y="414" type="line"/>
    </contour>
    <contour>
      <point x="90" y="211" type="line"/>
      <point x="410" y="211" type="line"/>
      <point x="423" y="296" type="line"/>
      <point x="103" y="296" type="line"/>
    </contour>
  </outline>
</glyph>
<glyph name="comma" format="2">
  <advance width="167"/>
  <unicode hex="002C"/>
  <note>
GF Latin Plus glyph
</note>
  <outline>
    <contour>
      <point x="65" y="-63" type="curve" smooth="yes"/>
      <point x="89" y="-63"/>
      <point x="119" y="-55"/>
      <point x="126" y="-12" type="curve" smooth="yes"/>
      <point x="140" y="75" type="line" smooth="yes"/>
      <point x="141" y="81"/>
      <point x="142" y="87"/>
      <point x="142" y="89" type="curve" smooth="yes"/>
      <point x="142" y="96"/>
      <point x="139" y="101"/>
      <point x="129" y="101" type="curve" smooth="yes"/>
      <point x="69" y="101" type="line" smooth="yes"/>
      <point x="60" y="101"/>
      <point x="53" y="96"/>
      <point x="52" y="85" type="curve" smooth="yes"/>
      <point x="43" y="32" type="line" smooth="yes"/>
      <point x="42" y="26"/>
      <point x="41" y="21"/>
      <point x="41" y="19" type="curve" smooth="yes"/>
      <point x="41" y="11"/>
      <point x="47" y="7"/>
      <point x="54" y="7" type="curve" smooth="yes"/>
      <point x="61" y="7" type="line"/>
      <point x="58" y="-11" type="line" smooth="yes"/>
      <point x="56" y="-23"/>
      <point x="50" y="-25"/>
      <point x="37" y="-25" type="curve"/>
      <point x="31" y="-59" type="line"/>
      <point x="31" y="-59"/>
      <point x="47" y="-63"/>
    </contour>
  </outline>
</glyph>
<glyph name="hyphen" format="2">
  <advance width="349"/>
  <unicode hex="002D"/>
  <outline>
    <contour>
      <point x="326" y="195" type="line"/>
      <point x="343" y="273" type="line"/>
      <point x="122" y="273" type="line"/>
      <point x="105" y="195" type="line"/>
    </contour>
  </outline>
</glyph>
<glyph name="period" format="2">
  <advance width="267"/>
  <unicode hex="002E"/>
  <outline>
    <contour>
      <point x="209" y="29" type="curve" smooth="yes"/>
      <point x="217" y="66" type="line" smooth="yes"/>
      <point x="223" y="97"/>
      <point x="189" y="98"/>
      <point x="185" y="98" type="curve" smooth="yes"/>
      <point x="124" y="98" type="line" smooth="yes"/>
      <point x="103" y="98"/>
      <point x="83" y="89"/>
      <point x="79" y="71" type="curve" smooth="yes"/>
      <point x="70" y="29" type="line"/>
      <point x="68" y="11"/>
      <point x="83" y="0"/>
      <point x="99" y="0" type="curve" smooth="yes"/>
      <point x="164" y="0" type="line" smooth="yes"/>
      <point x="184" y="0"/>
      <point x="205" y="12"/>
    </contour>
  </outline>
</glyph>
<glyph name="slash" format="2">
  <advance width="553"/>
  <unicode hex="002F"/>
  <outline>
    <contour>
      <point x="611" y="537" type="line"/>
      <point x="526" y="537" type="line"/>
      <point x="51" y="-49" type="line"/>
      <point x="129" y="-49" type="line"/>
    </contour>
  </outline>
</glyph>
<glyph name="zero" format="2">
  <advance width="461"/>
  <unicode hex="0030"/>
  <note>
GF Latin Plus glyph
</note>
  <outline>
    <contour>
      <point x="177" y="-3" type="curve" smooth="yes"/>
      <point x="287" y="-3" type="line" smooth="yes"/>
      <point x="372" y="-3"/>
      <point x="430" y="45"/>
      <point x="444" y="133" type="curve" smooth="yes"/>
      <point x="484" y="391" type="line" smooth="yes"/>
      <point x="486" y="403"/>
      <point x="488" y="415"/>
      <point x="488" y="425" type="curve" smooth="yes"/>
      <point x="488" y="493"/>
      <point x="450" y="532"/>
      <point x="373" y="532" type="curve" smooth="yes"/>
      <point x="263" y="532" type="line" smooth="yes"/>
      <point x="176" y="532"/>
      <point x="115" y="483"/>
      <point x="100" y="391" type="curve" smooth="yes"/>
      <point x="60" y="133" type="line" smooth="yes"/>
      <point x="58" y="122"/>
      <point x="57" y="111"/>
      <point x="57" y="101" type="curve" smooth="yes"/>
      <point x="57" y="32"/>
      <point x="99" y="-3"/>
    </contour>
    <contour>
      <point x="217" y="91" type="line" smooth="yes"/>
      <point x="185" y="91"/>
      <point x="167" y="105"/>
      <point x="167" y="134" type="curve" smooth="yes"/>
      <point x="167" y="139"/>
      <point x="167" y="143"/>
      <point x="168" y="149" type="curve" smooth="yes"/>
      <point x="205" y="380" type="line" smooth="yes"/>
      <point x="210" y="418"/>
      <point x="233" y="437"/>
      <point x="268" y="437" type="curve" smooth="yes"/>
      <point x="333" y="437" type="line" smooth="yes"/>
      <point x="361" y="437"/>
      <point x="378" y="426"/>
      <point x="378" y="396" type="curve" smooth="yes"/>
      <point x="378" y="391"/>
      <point x="378" y="386"/>
      <point x="377" y="380" type="curve" smooth="yes"/>
      <point x="340" y="149" type="line" smooth="yes"/>
      <point x="334" y="110"/>
      <point x="313" y="91"/>
      <point x="274" y="91" type="curve" smooth="yes"/>
    </contour>
  </outline>
</glyph>
<glyph name="one" format="2">
  <advance width="566"/>
  <unicode hex="0031"/>
  <outline>
    <contour>
      <point x="491" y="488" type="curve" smooth="yes"/>
      <point x="396" y="488" type="line"/>
      <point x="379" y="407" type="line"/>
      <point x="459" y="407" type="line"/>
      <point x="464" y="405"/>
      <point x="471" y="402"/>
      <point x="466" y="383" type="curve" smooth="yes"/>
      <point x="402" y="81" type="line"/>
      <point x="309" y="81" type="line"/>
      <point x="292" y="0" type="line"/>
      <point x="574" y="0" type="line"/>
      <point x="591" y="81" type="line"/>
      <point x="499" y="81" type="line"/>
      <point x="567" y="402" type="line" smooth="yes"/>
      <point x="568" y="406"/>
      <point x="569" y="412"/>
      <point x="569" y="419" type="curve" smooth="yes"/>
      <point x="569" y="434"/>
      <point x="557" y="488"/>
    </contour>
  </outline>
</glyph>
<glyph name="two" format="2">
  <advance width="418"/>
  <unicode hex="0032"/>
  <note>
GF Latin Plus glyph
</note>
  <outline>
    <contour>
      <point x="32" y="0" type="line"/>
      <point x="393" y="0" type="line"/>
      <point x="408" y="95" type="line"/>
      <point x="193" y="95" type="line"/>
      <point x="327" y="213" type="line" smooth="yes"/>
      <point x="402" y="279"/>
      <point x="431" y="346"/>
      <point x="431" y="416" type="curve" smooth="yes"/>
      <point x="431" y="483"/>
      <point x="393" y="532"/>
      <point x="288" y="532" type="curve" smooth="yes"/>
      <point x="223" y="532"/>
      <point x="170" y="523"/>
      <point x="127" y="516" type="curve"/>
      <point x="113" y="432" type="line"/>
      <point x="265" y="432" type="line" smooth="yes"/>
      <point x="309" y="432"/>
      <point x="325" y="415"/>
      <point x="325" y="385" type="curve" smooth="yes"/>
      <point x="325" y="351"/>
      <point x="301" y="307"/>
      <point x="246" y="260" type="curve" smooth="yes"/>
      <point x="45" y="84" type="line"/>
    </contour>
  </outline>
</glyph>
<glyph name="five" format="2">
  <advance width="433"/>
  <unicode hex="0035"/>
  <note>
GF Latin Plus glyph
</note>
  <outline>
    <contour>
      <point x="223" y="-3" type="curve" smooth="yes"/>
      <point x="338" y="-3"/>
      <point x="407" y="36"/>
      <point x="422" y="129" type="curve" smooth="yes"/>
      <point x="434" y="206" type="line" smooth="yes"/>
      <point x="436" y="216"/>
      <point x="436" y="225"/>
      <point x="436" y="234" type="curve" smooth="yes"/>
      <point x="436" y="292"/>
      <point x="403" y="333"/>
      <point x="331" y="333" type="curve" smooth="yes"/>
      <point x="274" y="333" type="line" smooth="yes"/>
      <point x="247" y="333"/>
      <point x="224" y="323"/>
      <point x="209" y="310" type="curve"/>
      <point x="233" y="433" type="line"/>
      <point x="450" y="433" type="line"/>
      <point x="465" y="528" type="line"/>
      <point x="147" y="528" type="line"/>
      <point x="81" y="204" type="line"/>
      <point x="182" y="204" type="line"/>
      <point x="191" y="231"/>
      <point x="207" y="243"/>
      <point x="238" y="243" type="curve" smooth="yes"/>
      <point x="279" y="243" type="line" smooth="yes"/>
      <point x="313" y="243"/>
      <point x="327" y="228"/>
      <point x="327" y="203" type="curve" smooth="yes"/>
      <point x="327" y="198"/>
      <point x="326" y="193"/>
      <point x="325" y="187" type="curve" smooth="yes"/>
      <point x="319" y="151" type="line" smooth="yes"/>
      <point x="315" y="121"/>
      <point x="295" y="91"/>
      <point x="243" y="91" type="curve" smooth="yes"/>
      <point x="62" y="91" type="line"/>
      <point x="49" y="7" type="line"/>
      <point x="103" y="1"/>
      <point x="167" y="-3"/>
    </contour>
  </outline>
</glyph>
<glyph name="six" format="2">
  <advance width="566"/>
  <unicode hex="0036"/>
  <outline>
    <contour>
      <point x="529" y="309" type="curve" smooth="yes"/>
      <point x="373" y="309" type="line"/>
      <point x="388" y="383" type="line"/>
      <point x="395" y="407"/>
      <point x="417" y="407"/>
      <point x="424" y="407" type="curve" smooth="yes"/>
      <point x="641" y="407" type="line"/>
      <point x="658" y="488" type="line"/>
      <point x="424" y="488" type="line" smooth="yes"/>
      <point x="366" y="488"/>
      <point x="311" y="455"/>
      <point x="295" y="402" type="curve"/>
      <point x="228" y="83" type="line" smooth="yes"/>
      <point x="227" y="76"/>
      <point x="226" y="72"/>
      <point x="226" y="69" type="curve" smooth="yes"/>
      <point x="226" y="44"/>
      <point x="252" y="1"/>
      <point x="320" y="1" type="curve" smooth="yes"/>
      <point x="474" y="0" type="line" smooth="yes"/>
      <point x="498" y="0"/>
      <point x="575" y="18"/>
      <point x="594" y="93" type="curve"/>
      <point x="620" y="216" type="line" smooth="yes"/>
      <point x="621" y="221"/>
      <point x="622" y="227"/>
      <point x="622" y="235" type="curve" smooth="yes"/>
      <point x="622" y="269"/>
      <point x="596" y="309"/>
    </contour>
    <contour>
      <point x="456" y="81" type="curve" smooth="yes"/>
      <point x="364" y="81" type="line" smooth="yes"/>
      <point x="351" y="81"/>
      <point x="326" y="94"/>
      <point x="332" y="117" type="curve"/>
      <point x="355" y="227" type="line"/>
      <point x="487" y="227" type="line" smooth="yes"/>
      <point x="514" y="227"/>
      <point x="523" y="213"/>
      <point x="520" y="203" type="curve"/>
      <point x="500" y="109" type="line" smooth="yes"/>
      <point x="498" y="96"/>
      <point x="477" y="81"/>
    </contour>
  </outline>
</glyph>
<glyph name="seven" format="2">
  <advance width="395"/>
  <unicode hex="0037"/>
  <note>
GF Latin Plus glyph
</note>
  <outline>
    <contour>
      <point x="81" y="0" type="line"/>
      <point x="204" y="0" type="line"/>
      <point x="455" y="483" type="line"/>
      <point x="435" y="528" type="line"/>
      <point x="102" y="528" type="line"/>
      <point x="85" y="422" type="line"/>
      <point x="309" y="422" type="line"/>
    </contour>
  </outline>
</glyph>
<glyph name="less" format="2">
  <advance width="435"/>
  <unicode hex="003C"/>
  <note>
GF Latin Plus glyph
</note>
  <outline>
    <contour>
      <point x="376" y="106" type="line"/>
      <point x="390" y="198" type="line"/>
      <point x="205" y="250" type="line"/>
      <point x="406" y="298" type="line"/>
      <point x="421" y="390" type="line"/>
      <point x="110" y="296" type="line"/>
      <point x="95" y="203" type="line"/>
    </contour>
  </outline>
</glyph>
<glyph name="greater" format="2">
  <advance width="435"/>
  <unicode hex="003E"/>
  <note>
GF Latin Plus glyph
</note>
  <outline>
    <contour>
      <point x="87" y="106" type="line"/>
      <point x="399" y="203" type="line"/>
      <point x="413" y="296" type="line"/>
      <point x="132" y="390" type="line"/>
      <point x="117" y="298" type="line"/>
      <point x="303" y="251" type="line"/>
      <point x="101" y="198" type="line"/>
    </contour>
  </outline>
</glyph>
<glyph name="question" format="2">
  <advance width="377"/>
  <unicode hex="003F"/>
  <note>
GF Latin Plus glyph
</note>
  <outline>
    <component base="period" xOffset="63"/>
    <contour>
      <point x="129" y="145" type="line"/>
      <point x="208" y="145" type="line"/>
      <point x="217" y="206" type="line"/>
      <point x="321" y="206"/>
      <point x="376" y="252"/>
      <point x="390" y="341" type="curve" smooth="yes"/>
      <point x="397" y="383" type="line" smooth="yes"/>
      <point x="399" y="394"/>
      <point x="399" y="405"/>
      <point x="399" y="414" type="curve" smooth="yes"/>
      <point x="399" y="482"/>
      <point x="356" y="527"/>
      <point x="266" y="527" type="curve" smooth="yes"/>
      <point x="204" y="527"/>
      <point x="150" y="510"/>
      <point x="107" y="486" type="curve"/>
      <point x="95" y="409" type="line"/>
      <point x="138" y="423"/>
      <point x="177" y="432"/>
      <point x="218" y="432" type="curve" smooth="yes"/>
      <point x="265" y="432"/>
      <point x="289" y="418"/>
      <point x="289" y="383" type="curve" smooth="yes"/>
      <point x="289" y="378"/>
      <point x="289" y="372"/>
      <point x="288" y="366" type="curve" smooth="yes"/>
      <point x="284" y="343" type="line" smooth="yes"/>
      <point x="277" y="299"/>
      <point x="249" y="286"/>
      <point x="200" y="286" type="curve" smooth="yes"/>
      <point x="151" y="286" type="line"/>
    </contour>
  </outline>
</glyph>
<glyph name="at" format="2">
  <advance width="664"/>
  <unicode hex="0040"/>
  <note>
GF Latin Plus glyph
</note>
  <outline>
    <contour>
      <point x="181" y="-138" type="curve" smooth="yes"/>
      <point x="246" y="-138" type="line" smooth="yes"/>
      <point x="336" y="-138"/>
      <point x="418" y="-128"/>
      <point x="454" y="-122" type="curve"/>
      <point x="463" y="-63" type="line"/>
      <point x="188" y="-63" type="line" smooth="yes"/>
      <point x="137" y="-63"/>
      <point x="116" y="-36"/>
      <point x="116" y="0" type="curve" smooth="yes"/>
      <point x="116" y="7"/>
      <point x="117" y="14"/>
      <point x="118" y="22" type="curve" smooth="yes"/>
      <point x="171" y="351" type="line" smooth="yes"/>
      <point x="178" y="396"/>
      <point x="196" y="445"/>
      <point x="269" y="445" type="curve" smooth="yes"/>
      <point x="523" y="445" type="line" smooth="yes"/>
      <point x="567" y="445"/>
      <point x="600" y="427"/>
      <point x="600" y="381" type="curve" smooth="yes"/>
      <point x="600" y="372"/>
      <point x="598" y="362"/>
      <point x="597" y="351" type="curve" smooth="yes"/>
      <point x="566" y="145" type="line" smooth="yes"/>
      <point x="556" y="77"/>
      <point x="522" y="70"/>
      <point x="488" y="70" type="curve"/>
      <point x="529" y="336" type="line"/>
      <point x="494" y="364"/>
      <point x="449" y="384"/>
      <point x="387" y="384" type="curve" smooth="yes"/>
      <point x="281" y="384"/>
      <point x="188" y="293"/>
      <point x="188" y="132" type="curve" smooth="yes"/>
      <point x="188" y="32"/>
      <point x="237" y="-4"/>
      <point x="294" y="-4" type="curve" smooth="yes"/>
      <point x="343" y="-4"/>
      <point x="389" y="20"/>
      <point x="404" y="39" type="curve"/>
      <point x="422" y="0" type="line"/>
      <point x="487" y="0" type="line" smooth="yes"/>
      <point x="584" y="0"/>
      <point x="635" y="55"/>
      <point x="647" y="135" type="curve" smooth="yes"/>
      <point x="677" y="340" type="line" smooth="yes"/>
      <point x="680" y="357"/>
      <point x="681" y="374"/>
      <point x="681" y="390" type="curve" smooth="yes"/>
      <point x="681" y="466"/>
      <point x="637" y="520"/>
      <point x="546" y="520" type="curve" smooth="yes"/>
      <point x="285" y="520" type="line" smooth="yes"/>
      <point x="178" y="520"/>
      <point x="110" y="487"/>
      <point x="92" y="372" type="curve" smooth="yes"/>
      <point x="37" y="32" type="line" smooth="yes"/>
      <point x="35" y="19"/>
      <point x="34" y="5"/>
      <point x="34" y="-7" type="curve" smooth="yes"/>
      <point x="34" y="-77"/>
      <point x="71" y="-138"/>
    </contour>
    <contour>
      <point x="322" y="76" type="curve" smooth="yes"/>
      <point x="287" y="76"/>
      <point x="269" y="99"/>
      <point x="269" y="144" type="curve" smooth="yes"/>
      <point x="269" y="242"/>
      <point x="314" y="305"/>
      <point x="381" y="305" type="curve" smooth="yes"/>
      <point x="397" y="305"/>
      <point x="417" y="302"/>
      <point x="441" y="294" type="curve"/>
      <point x="413" y="109" type="line"/>
      <point x="389" y="87"/>
      <point x="354" y="76"/>
    </contour>
  </outline>
</glyph>
<glyph name="A" format="2">
  <advance width="497"/>
  <unicode hex="0041"/>
  <note>
GF Latin Plus glyph
</note>
  <anchor x="230" y="-107" name="bottom"/>
  <anchor x="338" y="578" name="top"/>
  <outline>
    <contour>
      <point x="16" y="0" type="line"/>
      <point x="125" y="0" type="line"/>
      <point x="176" y="110" type="line"/>
      <point x="356" y="110" type="line"/>
      <point x="372" y="0" type="line"/>
      <point x="482" y="0" type="line"/>
      <point x="400" y="528" type="line"/>
      <point x="267" y="528" type="line"/>
    </contour>
    <contour>
      <point x="216" y="205" type="line"/>
      <point x="318" y="437" type="line"/>
      <point x="346" y="205" type="line"/>
    </contour>
  </outline>
</glyph>
<glyph name="B" format="2">
  <advance width="453"/>
  <unicode hex="0042"/>
  <note>
GF Latin Plus glyph
</note>
  <anchor x="291" y="578" name="top"/>
  <outline>
    <contour>
      <point x="45" y="0" type="line"/>
      <point x="251" y="0" type="line" smooth="yes"/>
      <point x="361" y="0"/>
      <point x="426" y="34"/>
      <point x="441" y="125" type="curve" smooth="yes"/>
      <point x="445" y="148"/>
      <point x="446" y="160"/>
      <point x="446" y="170" type="curve" smooth="yes"/>
      <point x="446" y="232"/>
      <point x="415" y="262"/>
      <point x="368" y="275" type="curve"/>
      <point x="421" y="287"/>
      <point x="457" y="329"/>
      <point x="466" y="383" type="curve" smooth="yes"/>
      <point x="468" y="396"/>
      <point x="468" y="408"/>
      <point x="468" y="420" type="curve" smooth="yes"/>
      <point x="468" y="484"/>
      <point x="438" y="528"/>
      <point x="332" y="528" type="curve" smooth="yes"/>
      <point x="127" y="528" type="line"/>
    </contour>
    <contour>
      <point x="165" y="95" type="line"/>
      <point x="186" y="230" type="line"/>
      <point x="285" y="230" type="line" smooth="yes"/>
      <point x="326" y="230"/>
      <point x="346" y="213"/>
      <point x="346" y="180" type="curve" smooth="yes"/>
      <point x="346" y="174"/>
      <point x="346" y="167"/>
      <point x="345" y="160" type="curve" smooth="yes"/>
      <point x="337" y="115"/>
      <point x="316" y="95"/>
      <point x="265" y="95" type="curve" smooth="yes"/>
    </contour>
    <contour>
      <point x="199" y="311" type="line"/>
      <point x="219" y="433" type="line"/>
      <point x="310" y="433" type="line" smooth="yes"/>
      <point x="345" y="433"/>
      <point x="364" y="421"/>
      <point x="364" y="391" type="curve" smooth="yes"/>
      <point x="364" y="383"/>
      <point x="362" y="375"/>
      <point x="360" y="364" type="curve" smooth="yes"/>
      <point x="353" y="333"/>
      <point x="336" y="311"/>
      <point x="298" y="311" type="curve" smooth="yes"/>
    </contour>
  </outline>
</glyph>
<glyph name="C" format="2">
  <advance width="422"/>
  <unicode hex="0043"/>
  <note>
GF Latin Plus glyph
</note>
  <anchor x="217" y="-107" name="bottom"/>
  <anchor x="322" y="578" name="top"/>
  <outline>
    <contour>
      <point x="239" y="-4" type="curve" smooth="yes"/>
      <point x="288" y="-4"/>
      <point x="344" y="0"/>
      <point x="392" y="16" type="curve"/>
      <point x="405" y="99" type="line"/>
      <point x="365" y="94"/>
      <point x="331" y="90"/>
      <point x="267" y="90" type="curve" smooth="yes"/>
      <point x="196" y="90"/>
      <point x="171" y="115"/>
      <point x="171" y="174" type="curve" smooth="yes"/>
      <point x="171" y="197"/>
      <point x="175" y="228"/>
      <point x="181" y="261" type="curve" smooth="yes"/>
      <point x="205" y="408"/>
      <point x="243" y="437"/>
      <point x="318" y="437" type="curve" smooth="yes"/>
      <point x="365" y="437"/>
      <point x="415" y="429"/>
      <point x="456" y="419" type="curve"/>
      <point x="470" y="503" type="line"/>
      <point x="437" y="515"/>
      <point x="382" y="532"/>
      <point x="299" y="532" type="curve" smooth="yes"/>
      <point x="163" y="532"/>
      <point x="101" y="446"/>
      <point x="76" y="280" type="curve" smooth="yes"/>
      <point x="70" y="244"/>
      <point x="66" y="207"/>
      <point x="66" y="175" type="curve" smooth="yes"/>
      <point x="66" y="62"/>
      <point x="121" y="-4"/>
    </contour>
  </outline>
</glyph>
<glyph name="D" format="2">
  <advance width="490"/>
  <unicode hex="0044"/>
  <note>
GF Latin Plus glyph
</note>
  <anchor x="206" y="-107" name="bottom"/>
  <anchor x="315" y="578" name="top"/>
  <outline>
    <contour>
      <point x="44" y="0" type="line"/>
      <point x="242" y="0" type="line" smooth="yes"/>
      <point x="391" y="0"/>
      <point x="470" y="75"/>
      <point x="498" y="247" type="curve" smooth="yes"/>
      <point x="503" y="280"/>
      <point x="506" y="313"/>
      <point x="506" y="344" type="curve" smooth="yes"/>
      <point x="506" y="456"/>
      <point x="467" y="528"/>
      <point x="328" y="528" type="curve" smooth="yes"/>
      <point x="127" y="528" type="line"/>
    </contour>
    <contour>
      <point x="165" y="95" type="line"/>
      <point x="218" y="433" type="line"/>
      <point x="302" y="433" type="line" smooth="yes"/>
      <point x="374" y="433"/>
      <point x="400" y="406"/>
      <point x="400" y="339" type="curve" smooth="yes"/>
      <point x="400" y="323"/>
      <point x="397" y="298"/>
      <point x="392" y="265" type="curve" smooth="yes"/>
      <point x="374" y="156"/>
      <point x="336" y="95"/>
      <point x="253" y="95" type="curve" smooth="yes"/>
    </contour>
  </outline>
</glyph>
<glyph name="E" format="2">
  <advance width="423"/>
  <unicode hex="0045"/>
  <note>
GF Latin Plus glyph
</note>
  <anchor x="198" y="-107" name="bottom"/>
  <anchor x="306" y="578" name="top"/>
  <outline>
    <contour>
      <point x="172" y="-4" type="curve" smooth="yes"/>
      <point x="249" y="-3"/>
      <point x="317" y="1"/>
      <point x="384" y="6" type="curve"/>
      <point x="398" y="95" type="line"/>
      <point x="215" y="95" type="line" smooth="yes"/>
      <point x="182" y="95"/>
      <point x="167" y="107"/>
      <point x="172" y="142" type="curve" smooth="yes"/>
      <point x="184" y="216" type="line"/>
      <point x="383" y="222" type="line"/>
      <point x="396" y="305" type="line"/>
      <point x="199" y="312" type="line"/>
      <point x="210" y="380" type="line" smooth="yes"/>
      <point x="215" y="415"/>
      <point x="231" y="430"/>
      <point x="264" y="430" type="curve" smooth="yes"/>
      <point x="451" y="430" type="line"/>
      <point x="465" y="519" type="line"/>
      <point x="391" y="524"/>
      <point x="321" y="528"/>
      <point x="249" y="528" type="curve" smooth="yes"/>
      <point x="180" y="528"/>
      <point x="123" y="499"/>
      <point x="108" y="406" type="curve" smooth="yes"/>
      <point x="62" y="114" type="line" smooth="yes"/>
      <point x="46" y="13"/>
      <point x="121" y="-4"/>
    </contour>
  </outline>
</glyph>
<glyph name="F" format="2">
  <advance width="403"/>
  <unicode hex="0046"/>
  <note>
GF Latin Plus glyph
</note>
  <outline>
    <contour>
      <point x="44" y="0" type="line"/>
      <point x="150" y="0" type="line"/>
      <point x="182" y="201" type="line"/>
      <point x="381" y="206" type="line"/>
      <point x="395" y="290" type="line"/>
      <point x="196" y="296" type="line"/>
      <point x="210" y="380" type="line" smooth="yes"/>
      <point x="215" y="414"/>
      <point x="229" y="430"/>
      <point x="264" y="430" type="curve" smooth="yes"/>
      <point x="450" y="430" type="line"/>
      <point x="464" y="519" type="line"/>
      <point x="395" y="524"/>
      <point x="330" y="528"/>
      <point x="248" y="528" type="curve" smooth="yes"/>
      <point x="188" y="528"/>
      <point x="124" y="505"/>
      <point x="108" y="408" type="curve" smooth="yes"/>
    </contour>
  </outline>
</glyph>
<glyph name="G" format="2">
  <advance width="469"/>
  <unicode hex="0047"/>
  <note>
GF Latin Plus glyph
</note>
  <outline>
    <contour>
      <point x="201" y="-4" type="curve" smooth="yes"/>
      <point x="245" y="-4"/>
      <point x="315" y="19"/>
      <point x="342" y="35" type="curve"/>
      <point x="351" y="0" type="line"/>
      <point x="431" y="0" type="line"/>
      <point x="478" y="300" type="line"/>
      <point x="462" y="301"/>
      <point x="422" y="302"/>
      <point x="400" y="302" type="curve" smooth="yes"/>
      <point x="346" y="302"/>
      <point x="306" y="298"/>
      <point x="281" y="295" type="curve"/>
      <point x="267" y="212" type="line"/>
      <point x="362" y="212" type="line"/>
      <point x="346" y="108" type="line"/>
      <point x="326" y="102"/>
      <point x="275" y="93"/>
      <point x="239" y="93" type="curve" smooth="yes"/>
      <point x="191" y="93"/>
      <point x="171" y="120"/>
      <point x="171" y="170" type="curve" smooth="yes"/>
      <point x="171" y="194"/>
      <point x="174" y="224"/>
      <point x="181" y="262" type="curve" smooth="yes"/>
      <point x="200" y="389"/>
      <point x="228" y="438"/>
      <point x="319" y="438" type="curve" smooth="yes"/>
      <point x="394" y="438"/>
      <point x="445" y="432"/>
      <point x="476" y="426" type="curve"/>
      <point x="489" y="508" type="line"/>
      <point x="446" y="522"/>
      <point x="395" y="533"/>
      <point x="307" y="533" type="curve" smooth="yes"/>
      <point x="175" y="533"/>
      <point x="102" y="449"/>
      <point x="77" y="286" type="curve" smooth="yes"/>
      <point x="70" y="245"/>
      <point x="64" y="202"/>
      <point x="64" y="162" type="curve" smooth="yes"/>
      <point x="64" y="47"/>
      <point x="102" y="-4"/>
    </contour>
  </outline>
</glyph>
<glyph name="H" format="2">
  <advance width="493"/>
  <unicode hex="0048"/>
  <note>
GF Latin Plus glyph
</note>
  <anchor x="229" y="-107" name="bottom"/>
  <anchor x="338" y="578" name="top"/>
  <outline>
    <contour>
      <point x="44" y="0" type="line"/>
      <point x="150" y="0" type="line"/>
      <point x="183" y="213" type="line"/>
      <point x="382" y="213" type="line"/>
      <point x="349" y="0" type="line"/>
      <point x="454" y="0" type="line"/>
      <point x="538" y="528" type="line"/>
      <point x="432" y="528" type="line"/>
      <point x="397" y="308" type="line"/>
      <point x="198" y="308" type="line"/>
      <point x="233" y="528" type="line"/>
      <point x="127" y="528" type="line"/>
    </contour>
  </outline>
</glyph>
<glyph name="I" format="2">
  <advance width="194"/>
  <unicode hex="0049"/>
  <note>
GF Latin Plus glyph
</note>
  <anchor x="79" y="-107" name="bottom"/>
  <anchor x="188" y="578" name="top"/>
  <outline>
    <contour>
      <point x="44" y="0" type="line"/>
      <point x="150" y="0" type="line"/>
      <point x="233" y="528" type="line"/>
      <point x="127" y="528" type="line"/>
    </contour>
  </outline>
</glyph>
<glyph name="J" format="2">
  <advance width="279"/>
  <unicode hex="004A"/>
  <note>
GF Latin Plus glyph
</note>
  <anchor x="278" y="578" name="top"/>
  <outline>
    <contour>
      <point x="106" y="-4" type="curve" smooth="yes"/>
      <point x="200" y="-4"/>
      <point x="245" y="33"/>
      <point x="261" y="130" type="curve" smooth="yes"/>
      <point x="324" y="528" type="line"/>
      <point x="218" y="528" type="line"/>
      <point x="159" y="152" type="line" smooth="yes"/>
      <point x="152" y="112"/>
      <point x="132" y="92"/>
      <point x="89" y="92" type="curve" smooth="yes"/>
      <point x="72" y="92"/>
      <point x="54" y="93"/>
      <point x="37" y="95" type="curve"/>
      <point x="23" y="11" type="line"/>
      <point x="42" y="2"/>
      <point x="76" y="-4"/>
    </contour>
  </outline>
</glyph>
<glyph name="K" format="2">
  <advance width="458"/>
  <unicode hex="004B"/>
  <note>
GF Latin Plus glyph
</note>
  <anchor x="208" y="-107" name="bottom"/>
  <anchor x="316" y="578" name="top"/>
  <outline>
    <contour>
      <point x="44" y="0" type="line"/>
      <point x="150" y="0" type="line"/>
      <point x="184" y="217" type="line"/>
      <point x="260" y="217" type="line"/>
      <point x="345" y="0" type="line"/>
      <point x="451" y="0" type="line"/>
      <point x="347" y="263" type="line"/>
      <point x="522" y="528" type="line"/>
      <point x="414" y="528" type="line"/>
      <point x="269" y="312" type="line"/>
      <point x="199" y="312" type="line"/>
      <point x="233" y="528" type="line"/>
      <point x="127" y="528" type="line"/>
    </contour>
  </outline>
</glyph>
<glyph name="L" format="2">
  <advance width="379"/>
  <unicode hex="004C"/>
  <note>
GF Latin Plus glyph
</note>
  <anchor x="178" y="-107" name="bottom"/>
  <anchor x="190" y="578" name="top"/>
  <outline>
    <contour>
      <point x="167" y="0" type="curve" smooth="yes"/>
      <point x="364" y="0" type="line"/>
      <point x="379" y="95" type="line"/>
      <point x="213" y="95" type="line" smooth="yes"/>
      <point x="186" y="95"/>
      <point x="171" y="104"/>
      <point x="171" y="128" type="curve" smooth="yes"/>
      <point x="171" y="133"/>
      <point x="171" y="137"/>
      <point x="172" y="142" type="curve" smooth="yes"/>
      <point x="233" y="528" type="line"/>
      <point x="127" y="528" type="line"/>
      <point x="64" y="128" type="line" smooth="yes"/>
      <point x="62" y="116"/>
      <point x="61" y="106"/>
      <point x="61" y="95" type="curve" smooth="yes"/>
      <point x="61" y="28"/>
      <point x="102" y="0"/>
    </contour>
  </outline>
</glyph>
<glyph name="M" format="2">
  <advance width="621"/>
  <unicode hex="004D"/>
  <note>
GF Latin Plus glyph
</note>
  <anchor x="288" y="-107" name="bottom"/>
  <anchor x="397" y="578" name="top"/>
  <outline>
    <contour>
      <point x="29" y="0" type="line"/>
      <point x="134" y="0" type="line"/>
      <point x="225" y="335" type="line"/>
      <point x="265" y="0" type="line"/>
      <point x="364" y="0" type="line"/>
      <point x="512" y="339" type="line"/>
      <point x="497" y="0" type="line"/>
      <point x="600" y="0" type="line"/>
      <point x="621" y="528" type="line"/>
      <point x="523" y="528" type="line"/>
      <point x="335" y="125" type="line"/>
      <point x="276" y="528" type="line"/>
      <point x="177" y="528" type="line"/>
    </contour>
  </outline>
</glyph>
<glyph name="N" format="2">
  <advance width="494"/>
  <unicode hex="004E"/>
  <note>
GF Latin Plus glyph
</note>
  <anchor x="218" y="-107" name="bottom"/>
  <anchor x="327" y="578" name="top"/>
  <outline>
    <contour>
      <point x="44" y="0" type="line"/>
      <point x="150" y="0" type="line"/>
      <point x="205" y="349" type="line"/>
      <point x="371" y="0" type="line"/>
      <point x="456" y="0" type="line"/>
      <point x="539" y="528" type="line"/>
      <point x="434" y="528" type="line"/>
      <point x="378" y="179" type="line"/>
      <point x="212" y="528" type="line"/>
      <point x="127" y="528" type="line"/>
    </contour>
  </outline>
</glyph>
<glyph name="O" format="2">
  <advance width="497"/>
  <unicode hex="004F"/>
  <note>
GF Latin Plus glyph
</note>
  <anchor x="233" y="-107" name="bottom"/>
  <anchor x="341" y="578" name="top"/>
  <outline>
    <contour>
      <point x="247" y="-4" type="curve" smooth="yes"/>
      <point x="400" y="-4"/>
      <point x="472" y="39"/>
      <point x="504" y="243" type="curve" smooth="yes"/>
      <point x="511" y="285"/>
      <point x="515" y="327"/>
      <point x="515" y="357" type="curve" smooth="yes"/>
      <point x="515" y="503"/>
      <point x="438" y="532"/>
      <point x="333" y="532" type="curve" smooth="yes"/>
      <point x="179" y="532"/>
      <point x="107" y="477"/>
      <point x="75" y="278" type="curve" smooth="yes"/>
      <point x="68" y="237"/>
      <point x="64" y="195"/>
      <point x="64" y="163" type="curve" smooth="yes"/>
      <point x="64" y="24"/>
      <point x="138" y="-4"/>
    </contour>
    <contour>
      <point x="264" y="91" type="curve" smooth="yes"/>
      <point x="198" y="91"/>
      <point x="170" y="106"/>
      <point x="170" y="168" type="curve" smooth="yes"/>
      <point x="170" y="190"/>
      <point x="175" y="226"/>
      <point x="181" y="264" type="curve" smooth="yes"/>
      <point x="203" y="404"/>
      <point x="236" y="437"/>
      <point x="318" y="437" type="curve" smooth="yes"/>
      <point x="379" y="437"/>
      <point x="409" y="423"/>
      <point x="409" y="356" type="curve" smooth="yes"/>
      <point x="409" y="333"/>
      <point x="405" y="296"/>
      <point x="399" y="257" type="curve" smooth="yes"/>
      <point x="379" y="134"/>
      <point x="348" y="91"/>
    </contour>
  </outline>
</glyph>
<glyph name="P" format="2">
  <advance width="435"/>
  <unicode hex="0050"/>
  <note>
GF Latin Plus glyph
</note>
  <outline>
    <contour>
      <point x="44" y="0" type="line"/>
      <point x="150" y="0" type="line"/>
      <point x="178" y="177" type="line"/>
      <point x="206" y="171"/>
      <point x="257" y="164"/>
      <point x="303" y="164" type="curve" smooth="yes"/>
      <point x="374" y="164"/>
      <point x="450" y="203"/>
      <point x="470" y="331" type="curve" smooth="yes"/>
      <point x="473" y="348"/>
      <point x="477" y="372"/>
      <point x="477" y="386" type="curve" smooth="yes"/>
      <point x="477" y="497"/>
      <point x="416" y="528"/>
      <point x="338" y="528" type="curve" smooth="yes"/>
      <point x="127" y="528" type="line"/>
    </contour>
    <contour>
      <point x="191" y="259" type="line"/>
      <point x="218" y="433" type="line"/>
      <point x="318" y="433" type="line" smooth="yes"/>
      <point x="351" y="433"/>
      <point x="369" y="418"/>
      <point x="369" y="376" type="curve" smooth="yes"/>
      <point x="369" y="370"/>
      <point x="367" y="355"/>
      <point x="365" y="343" type="curve" smooth="yes"/>
      <point x="357" y="288"/>
      <point x="328" y="259"/>
      <point x="289" y="259" type="curve" smooth="yes"/>
    </contour>
  </outline>
</glyph>
<glyph name="Q" format="2">
  <advance width="497"/>
  <unicode hex="0051"/>
  <note>
GF Latin Plus glyph
</note>
  <outline>
    <component base="O"/>
    <contour>
      <point x="353" y="-139" type="curve" smooth="yes"/>
      <point x="371" y="-139"/>
      <point x="385" y="-138"/>
      <point x="398" y="-135" type="curve"/>
      <point x="410" y="-58" type="line"/>
      <point x="393" y="-62"/>
      <point x="372" y="-65"/>
      <point x="353" y="-65" type="curve" smooth="yes"/>
      <point x="318" y="-65"/>
      <point x="301" y="-55"/>
      <point x="297" y="-27" type="curve"/>
      <point x="224" y="-27" type="line"/>
      <point x="225" y="-107"/>
      <point x="281" y="-139"/>
    </contour>
  </outline>
</glyph>
<glyph name="R" format="2">
  <advance width="452"/>
  <unicode hex="0052"/>
  <note>
GF Latin Plus glyph
</note>
  <outline>
    <contour>
      <point x="44" y="0" type="line"/>
      <point x="150" y="0" type="line"/>
      <point x="181" y="197" type="line"/>
      <point x="206" y="196"/>
      <point x="243" y="196"/>
      <point x="267" y="196" type="curve"/>
      <point x="320" y="0" type="line"/>
      <point x="428" y="0" type="line"/>
      <point x="364" y="213" type="line"/>
      <point x="395" y="224"/>
      <point x="453" y="250"/>
      <point x="468" y="351" type="curve" smooth="yes"/>
      <point x="471" y="368"/>
      <point x="472" y="383"/>
      <point x="472" y="397" type="curve" smooth="yes"/>
      <point x="472" y="493"/>
      <point x="415" y="528"/>
      <point x="329" y="528" type="curve" smooth="yes"/>
      <point x="127" y="528" type="line"/>
    </contour>
    <contour>
      <point x="194" y="280" type="line"/>
      <point x="218" y="433" type="line"/>
      <point x="308" y="433" type="line" smooth="yes"/>
      <point x="342" y="433"/>
      <point x="364" y="420"/>
      <point x="364" y="382" type="curve" smooth="yes"/>
      <point x="364" y="375"/>
      <point x="363" y="367"/>
      <point x="362" y="358" type="curve" smooth="yes"/>
      <point x="353" y="299"/>
      <point x="330" y="280"/>
      <point x="283" y="280" type="curve" smooth="yes"/>
    </contour>
  </outline>
</glyph>
<glyph name="S" format="2">
  <advance width="409"/>
  <unicode hex="0053"/>
  <note>
GF Latin Plus glyph
</note>
  <anchor x="185" y="-107" name="bottom"/>
  <anchor x="294" y="578" name="top"/>
  <outline>
    <contour>
      <point x="218" y="-4" type="curve" smooth="yes"/>
      <point x="343" y="-4"/>
      <point x="395" y="34"/>
      <point x="409" y="123" type="curve" smooth="yes"/>
      <point x="417" y="173" type="line" smooth="yes"/>
      <point x="418" y="183"/>
      <point x="419" y="192"/>
      <point x="419" y="201" type="curve" smooth="yes"/>
      <point x="419" y="267"/>
      <point x="373" y="312"/>
      <point x="284" y="312" type="curve" smooth="yes"/>
      <point x="239" y="312" type="line" smooth="yes"/>
      <point x="206" y="312"/>
      <point x="191" y="323"/>
      <point x="191" y="350" type="curve" smooth="yes"/>
      <point x="191" y="355"/>
      <point x="192" y="360"/>
      <point x="193" y="366" type="curve" smooth="yes"/>
      <point x="195" y="384" type="line" smooth="yes"/>
      <point x="202" y="426"/>
      <point x="229" y="437"/>
      <point x="272" y="437" type="curve" smooth="yes"/>
      <point x="315" y="437"/>
      <point x="383" y="435"/>
      <point x="433" y="431" type="curve"/>
      <point x="446" y="514" type="line"/>
      <point x="394" y="526"/>
      <point x="331" y="532"/>
      <point x="285" y="532" type="curve" smooth="yes"/>
      <point x="180" y="532"/>
      <point x="112" y="498"/>
      <point x="96" y="396" type="curve" smooth="yes"/>
      <point x="90" y="354" type="line" smooth="yes"/>
      <point x="88" y="343"/>
      <point x="88" y="334"/>
      <point x="88" y="324" type="curve" smooth="yes"/>
      <point x="88" y="256"/>
      <point x="133" y="212"/>
      <point x="214" y="212" type="curve" smooth="yes"/>
      <point x="256" y="212" type="line" smooth="yes"/>
      <point x="298" y="212"/>
      <point x="316" y="202"/>
      <point x="316" y="175" type="curve" smooth="yes"/>
      <point x="316" y="171"/>
      <point x="316" y="166"/>
      <point x="315" y="161" type="curve" smooth="yes"/>
      <point x="312" y="143" type="line" smooth="yes"/>
      <point x="305" y="101"/>
      <point x="276" y="90"/>
      <point x="216" y="90" type="curve" smooth="yes"/>
      <point x="161" y="90"/>
      <point x="99" y="92"/>
      <point x="57" y="96" type="curve"/>
      <point x="44" y="13" type="line"/>
      <point x="81" y="4"/>
      <point x="143" y="-4"/>
    </contour>
  </outline>
</glyph>
<glyph name="T" format="2">
  <advance width="435"/>
  <unicode hex="0054"/>
  <note>
GF Latin Plus glyph
</note>
  <outline>
    <contour>
      <point x="161" y="0" type="line"/>
      <point x="267" y="0" type="line"/>
      <point x="335" y="433" type="line"/>
      <point x="480" y="433" type="line"/>
      <point x="495" y="528" type="line"/>
      <point x="100" y="528" type="line"/>
      <point x="84" y="433" type="line"/>
      <point x="229" y="433" type="line"/>
    </contour>
  </outline>
</glyph>
<glyph name="U" format="2">
  <advance width="491"/>
  <unicode hex="0055"/>
  <note>
GF Latin Plus glyph
</note>
  <anchor x="224" y="-107" name="bottom"/>
  <anchor x="332" y="578" name="top"/>
  <outline>
    <contour>
      <point x="246" y="-4" type="curve" smooth="yes"/>
      <point x="375" y="-4"/>
      <point x="451" y="27"/>
      <point x="481" y="212" type="curve" smooth="yes"/>
      <point x="531" y="528" type="line"/>
      <point x="425" y="528" type="line"/>
      <point x="377" y="228" type="line" smooth="yes"/>
      <point x="359" y="114"/>
      <point x="325" y="90"/>
      <point x="260" y="90" type="curve" smooth="yes"/>
      <point x="203" y="90"/>
      <point x="179" y="112"/>
      <point x="179" y="163" type="curve" smooth="yes"/>
      <point x="179" y="181"/>
      <point x="182" y="204"/>
      <point x="186" y="228" type="curve" smooth="yes"/>
      <point x="233" y="528" type="line"/>
      <point x="127" y="528" type="line"/>
      <point x="82" y="244" type="line" smooth="yes"/>
      <point x="77" y="212"/>
      <point x="73" y="179"/>
      <point x="73" y="154" type="curve" smooth="yes"/>
      <point x="73" y="41"/>
      <point x="132" y="-4"/>
    </contour>
  </outline>
</glyph>
<glyph name="V" format="2">
  <advance width="497"/>
  <unicode hex="0056"/>
  <note>
GF Latin Plus glyph
</note>
  <outline>
    <contour>
      <point x="181" y="0" type="line"/>
      <point x="314" y="0" type="line"/>
      <point x="565" y="528" type="line"/>
      <point x="456" y="528" type="line"/>
      <point x="266" y="115" type="line"/>
      <point x="209" y="528" type="line"/>
      <point x="99" y="528" type="line"/>
    </contour>
  </outline>
</glyph>
<glyph name="W" format="2">
  <advance width="736"/>
  <unicode hex="0057"/>
  <note>
GF Latin Plus glyph
</note>
  <anchor x="457" y="578" name="top"/>
  <outline>
    <contour>
      <point x="149" y="0" type="line"/>
      <point x="257" y="0" type="line"/>
      <point x="417" y="371" type="line"/>
      <point x="456" y="0" type="line"/>
      <point x="564" y="0" type="line"/>
      <point x="783" y="528" type="line"/>
      <point x="673" y="528" type="line"/>
      <point x="521" y="156" type="line"/>
      <point x="490" y="528" type="line"/>
      <point x="393" y="528" type="line"/>
      <point x="241" y="156" type="line"/>
      <point x="210" y="528" type="line"/>
      <point x="100" y="528" type="line"/>
    </contour>
  </outline>
</glyph>
<glyph name="X" format="2">
  <advance width="467"/>
  <unicode hex="0058"/>
  <note>
GF Latin Plus glyph
</note>
  <outline>
    <contour>
      <point x="343" y="0" type="line"/>
      <point x="458" y="0" type="line"/>
      <point x="318" y="295" type="line"/>
      <point x="210" y="528" type="line"/>
      <point x="94" y="528" type="line"/>
      <point x="238" y="227" type="line"/>
    </contour>
    <contour>
      <point x="13" y="0" type="line"/>
      <point x="131" y="0" type="line"/>
      <point x="276" y="199" type="line"/>
      <point x="235" y="289" type="line"/>
    </contour>
    <contour>
      <point x="317" y="233" type="line"/>
      <point x="545" y="528" type="line"/>
      <point x="427" y="528" type="line"/>
      <point x="276" y="321" type="line"/>
    </contour>
  </outline>
</glyph>
<glyph name="Y" format="2">
  <advance width="457"/>
  <unicode hex="0059"/>
  <note>
GF Latin Plus glyph
</note>
  <anchor x="209" y="-107" name="bottom"/>
  <anchor x="318" y="578" name="top"/>
  <outline>
    <contour>
      <point x="170" y="0" type="line"/>
      <point x="276" y="0" type="line"/>
      <point x="301" y="154" type="line"/>
      <point x="530" y="528" type="line"/>
      <point x="410" y="528" type="line"/>
      <point x="265" y="269" type="line"/>
      <point x="210" y="528" type="line"/>
      <point x="94" y="528" type="line"/>
      <point x="195" y="154" type="line"/>
    </contour>
  </outline>
</glyph>
<glyph name="Z" format="2">
  <advance width="405"/>
  <unicode hex="005A"/>
  <note>
GF Latin Plus glyph
</note>
  <outline>
    <contour>
      <point x="24" y="0" type="line"/>
      <point x="381" y="0" type="line"/>
      <point x="396" y="95" type="line"/>
      <point x="161" y="95" type="line"/>
      <point x="443" y="438" type="line"/>
      <point x="457" y="528" type="line"/>
      <point x="108" y="528" type="line"/>
      <point x="92" y="433" type="line"/>
      <point x="321" y="433" type="line"/>
      <point x="38" y="89" type="line"/>
    </contour>
  </outline>
</glyph>
<glyph name="bracketleft" format="2">
  <advance width="242"/>
  <unicode hex="005B"/>
  <note>
GF Latin Plus glyph
</note>
  <outline>
    <contour>
      <point x="152" y="-150" type="curve" smooth="yes"/>
      <point x="208" y="-150" type="line"/>
      <point x="221" y="-65" type="line"/>
      <point x="196" y="-65" type="line" smooth="yes"/>
      <point x="166" y="-65"/>
      <point x="151" y="-49"/>
      <point x="151" y="-17" type="curve" smooth="yes"/>
      <point x="151" y="-10"/>
      <point x="152" y="-3"/>
      <point x="153" y="4" type="curve" smooth="yes"/>
      <point x="224" y="447" type="line" smooth="yes"/>
      <point x="232" y="498"/>
      <point x="256" y="516"/>
      <point x="288" y="516" type="curve" smooth="yes"/>
      <point x="314" y="516" type="line"/>
      <point x="327" y="601" type="line"/>
      <point x="270" y="601" type="line" smooth="yes"/>
      <point x="174" y="601"/>
      <point x="133" y="543"/>
      <point x="120" y="462" type="curve" smooth="yes"/>
      <point x="47" y="-1" type="line" smooth="yes"/>
      <point x="45" y="-14"/>
      <point x="43" y="-28"/>
      <point x="43" y="-43" type="curve" smooth="yes"/>
      <point x="43" y="-96"/>
      <point x="64" y="-150"/>
    </contour>
  </outline>
</glyph>
<glyph name="backslash" format="2">
  <advance width="330"/>
  <unicode hex="005C"/>
  <note>
GF Latin Plus glyph
</note>
  <outline>
    <contour>
      <point x="203" y="-51" type="line"/>
      <point x="311" y="-51" type="line"/>
      <point x="205" y="550" type="line"/>
      <point x="98" y="550" type="line"/>
    </contour>
  </outline>
</glyph>
<glyph name="bracketright" format="2">
  <advance width="242"/>
  <unicode hex="005D"/>
  <note>
GF Latin Plus glyph
</note>
  <outline>
    <contour>
      <point x="-12" y="-150" type="line"/>
      <point x="43" y="-150" type="line" smooth="yes"/>
      <point x="155" y="-150"/>
      <point x="185" y="-63"/>
      <point x="195" y="-1" type="curve" smooth="yes"/>
      <point x="269" y="462" type="line" smooth="yes"/>
      <point x="271" y="476"/>
      <point x="272" y="489"/>
      <point x="272" y="501" type="curve" smooth="yes"/>
      <point x="272" y="562"/>
      <point x="242" y="601"/>
      <point x="162" y="601" type="curve" smooth="yes"/>
      <point x="105" y="601" type="line"/>
      <point x="92" y="516" type="line"/>
      <point x="118" y="516" type="line" smooth="yes"/>
      <point x="145" y="516"/>
      <point x="162" y="504"/>
      <point x="162" y="469" type="curve" smooth="yes"/>
      <point x="162" y="462"/>
      <point x="162" y="455"/>
      <point x="161" y="447" type="curve" smooth="yes"/>
      <point x="90" y="4" type="line" smooth="yes"/>
      <point x="83" y="-42"/>
      <point x="61" y="-65"/>
      <point x="25" y="-65" type="curve" smooth="yes"/>
      <point x="0" y="-65" type="line"/>
    </contour>
  </outline>
</glyph>
<glyph name="asciicircum" format="2">
  <advance width="275"/>
  <unicode hex="005E"/>
  <note>
GF Latin Plus glyph
</note>
  <outline>
    <contour>
      <point x="87" y="379" type="line"/>
      <point x="149" y="379" type="line"/>
      <point x="207" y="428" type="line"/>
      <point x="246" y="379" type="line"/>
      <point x="308" y="379" type="line"/>
      <point x="253" y="477" type="line"/>
      <point x="180" y="477" type="line"/>
    </contour>
  </outline>
</glyph>
<glyph name="underscore" format="2">
  <advance width="435"/>
  <unicode hex="005F"/>
  <note>
GF Latin Plus glyph
</note>
  <outline>
    <contour>
      <point x="-21" y="-137" type="line"/>
      <point x="413" y="-137" type="line"/>
      <point x="426" y="-52" type="line"/>
      <point x="-8" y="-52" type="line"/>
    </contour>
  </outline>
</glyph>
<glyph name="grave" format="2">
  <advance width="166"/>
  <unicode hex="0060"/>
  <note>
GF Latin Plus glyph
</note>
  <outline>
    <contour>
      <point x="164" y="450" type="line"/>
      <point x="226" y="450" type="line"/>
      <point x="183" y="550" type="line"/>
      <point x="98" y="550" type="line"/>
    </contour>
  </outline>
</glyph>
<glyph name="a" format="2">
  <advance width="407"/>
  <unicode hex="0061"/>
  <note>
GF Latin Plus glyph
</note>
  <outline>
    <contour>
      <point x="155" y="-4" type="curve" smooth="yes"/>
      <point x="200" y="-4"/>
      <point x="250" y="20"/>
      <point x="270" y="38" type="curve"/>
      <point x="276" y="0" type="line"/>
      <point x="370" y="0" type="line"/>
      <point x="424" y="342" type="line"/>
      <point x="390" y="369"/>
      <point x="327" y="387"/>
      <point x="262" y="387" type="curve" smooth="yes"/>
      <point x="139" y="387"/>
      <point x="78" y="328"/>
      <point x="59" y="207" type="curve" smooth="yes"/>
      <point x="56" y="187"/>
      <point x="51" y="155"/>
      <point x="51" y="127" type="curve" smooth="yes"/>
      <point x="51" y="34"/>
      <point x="99" y="-4"/>
    </contour>
    <contour>
      <point x="207" y="80" type="curve" smooth="yes"/>
      <point x="173" y="80"/>
      <point x="157" y="108"/>
      <point x="157" y="146" type="curve" smooth="yes"/>
      <point x="157" y="158"/>
      <point x="159" y="178"/>
      <point x="163" y="199" type="curve" smooth="yes"/>
      <point x="174" y="266"/>
      <point x="198" y="302"/>
      <point x="257" y="302" type="curve" smooth="yes"/>
      <point x="281" y="302"/>
      <point x="302" y="295"/>
      <point x="310" y="291" type="curve"/>
      <point x="280" y="107" type="line"/>
      <point x="262" y="95"/>
      <point x="238" y="80"/>
    </contour>
  </outline>
</glyph>
<glyph name="b" format="2">
  <advance width="415"/>
  <unicode hex="0062"/>
  <note>
GF Latin Plus glyph
</note>
  <anchor x="193" y="-107" name="bottom"/>
  <anchor x="187" y="607" name="top"/>
  <outline>
    <contour>
      <point x="265" y="-4" type="curve" smooth="yes"/>
      <point x="343" y="-4"/>
      <point x="397" y="57"/>
      <point x="414" y="165" type="curve" smooth="yes"/>
      <point x="419" y="199"/>
      <point x="423" y="231"/>
      <point x="423" y="253" type="curve" smooth="yes"/>
      <point x="423" y="339"/>
      <point x="377" y="387"/>
      <point x="303" y="387" type="curve" smooth="yes"/>
      <point x="275" y="387"/>
      <point x="234" y="377"/>
      <point x="201" y="359" type="curve"/>
      <point x="230" y="545" type="line"/>
      <point x="124" y="545" type="line"/>
      <point x="38" y="0" type="line"/>
      <point x="132" y="0" type="line"/>
      <point x="150" y="36" type="line"/>
      <point x="177" y="13"/>
      <point x="220" y="-4"/>
    </contour>
    <contour>
      <point x="233" y="80" type="curve" smooth="yes"/>
      <point x="199" y="80"/>
      <point x="178" y="89"/>
      <point x="161" y="103" type="curve"/>
      <point x="189" y="283" type="line"/>
      <point x="212" y="295"/>
      <point x="242" y="302"/>
      <point x="267" y="302" type="curve" smooth="yes"/>
      <point x="295" y="302"/>
      <point x="317" y="286"/>
      <point x="317" y="236" type="curve" smooth="yes"/>
      <point x="317" y="224"/>
      <point x="315" y="210"/>
      <point x="313" y="192" type="curve" smooth="yes"/>
      <point x="301" y="111"/>
      <point x="275" y="80"/>
    </contour>
  </outline>
</glyph>
<glyph name="c" format="2">
  <advance width="339"/>
  <unicode hex="0063"/>
  <note>
GF Latin Plus glyph
</note>
  <anchor x="165" y="-107" name="bottom"/>
  <anchor x="255" y="464" name="top"/>
  <outline>
    <contour>
      <point x="193" y="-4" type="curve" smooth="yes"/>
      <point x="249" y="-4"/>
      <point x="288" y="4"/>
      <point x="320" y="15" type="curve"/>
      <point x="329" y="75" type="line"/>
      <point x="228" y="75" type="line" smooth="yes"/>
      <point x="182" y="75"/>
      <point x="159" y="96"/>
      <point x="159" y="151" type="curve" smooth="yes"/>
      <point x="159" y="158"/>
      <point x="160" y="171"/>
      <point x="163" y="191" type="curve" smooth="yes"/>
      <point x="176" y="269"/>
      <point x="203" y="306"/>
      <point x="263" y="306" type="curve" smooth="yes"/>
      <point x="359" y="306" type="line"/>
      <point x="370" y="367" type="line"/>
      <point x="327" y="378"/>
      <point x="280" y="387"/>
      <point x="238" y="387" type="curve" smooth="yes"/>
      <point x="148" y="387"/>
      <point x="80" y="339"/>
      <point x="60" y="209" type="curve" smooth="yes"/>
      <point x="56" y="182"/>
      <point x="53" y="158"/>
      <point x="53" y="141" type="curve" smooth="yes"/>
      <point x="53" y="29"/>
      <point x="108" y="-4"/>
    </contour>
  </outline>
</glyph>
<glyph name="d" format="2">
  <advance width="410"/>
  <unicode hex="0064"/>
  <note>
GF Latin Plus glyph
</note>
  <anchor x="188" y="-107" name="bottom"/>
  <anchor x="415" y="607" name="top"/>
  <outline>
    <contour>
      <point x="160" y="-4" type="curve" smooth="yes"/>
      <point x="202" y="-4"/>
      <point x="243" y="15"/>
      <point x="271" y="38" type="curve"/>
      <point x="277" y="0" type="line"/>
      <point x="371" y="0" type="line"/>
      <point x="458" y="545" type="line"/>
      <point x="352" y="545" type="line"/>
      <point x="325" y="378" type="line"/>
      <point x="304" y="385"/>
      <point x="280" y="387"/>
      <point x="253" y="387" type="curve" smooth="yes"/>
      <point x="121" y="387"/>
      <point x="82" y="320"/>
      <point x="61" y="210" type="curve" smooth="yes"/>
      <point x="56" y="181"/>
      <point x="53" y="154"/>
      <point x="53" y="128" type="curve" smooth="yes"/>
      <point x="53" y="44"/>
      <point x="91" y="-4"/>
    </contour>
    <contour>
      <point x="207" y="80" type="curve" smooth="yes"/>
      <point x="180" y="80"/>
      <point x="158" y="96"/>
      <point x="158" y="146" type="curve" smooth="yes"/>
      <point x="158" y="161"/>
      <point x="160" y="175"/>
      <point x="163" y="192" type="curve" smooth="yes"/>
      <point x="179" y="281"/>
      <point x="209" y="302"/>
      <point x="258" y="302" type="curve" smooth="yes"/>
      <point x="281" y="302"/>
      <point x="298" y="298"/>
      <point x="311" y="291" type="curve"/>
      <point x="282" y="107" type="line"/>
      <point x="261" y="93"/>
      <point x="238" y="80"/>
    </contour>
  </outline>
</glyph>
<glyph name="e" format="2">
  <advance width="391"/>
  <unicode hex="0065"/>
  <note>
GF Latin Plus glyph
</note>
  <anchor x="195" y="-107" name="bottom"/>
  <anchor x="271" y="464" name="top"/>
  <outline>
    <contour>
      <point x="205" y="-4" type="curve" smooth="yes"/>
      <point x="266" y="-4"/>
      <point x="322" y="3"/>
      <point x="360" y="11" type="curve"/>
      <point x="370" y="73" type="line"/>
      <point x="247" y="73" type="line" smooth="yes"/>
      <point x="183" y="73"/>
      <point x="157" y="90"/>
      <point x="157" y="126" type="curve" smooth="yes"/>
      <point x="157" y="134"/>
      <point x="158" y="143"/>
      <point x="159" y="152" type="curve"/>
      <point x="176" y="147"/>
      <point x="206" y="144"/>
      <point x="241" y="144" type="curve" smooth="yes"/>
      <point x="330" y="144"/>
      <point x="407" y="166"/>
      <point x="407" y="274" type="curve" smooth="yes"/>
      <point x="407" y="366"/>
      <point x="336" y="388"/>
      <point x="261" y="388" type="curve" smooth="yes"/>
      <point x="147" y="388"/>
      <point x="79" y="336"/>
      <point x="60" y="212" type="curve" smooth="yes"/>
      <point x="56" y="189"/>
      <point x="53" y="164"/>
      <point x="53" y="138" type="curve" smooth="yes"/>
      <point x="53" y="47"/>
      <point x="94" y="-4"/>
    </contour>
    <contour>
      <point x="214" y="203" type="curve" smooth="yes"/>
      <point x="197" y="203"/>
      <point x="179" y="205"/>
      <point x="166" y="208" type="curve"/>
      <point x="176" y="272"/>
      <point x="199" y="307"/>
      <point x="253" y="307" type="curve" smooth="yes"/>
      <point x="290" y="307"/>
      <point x="308" y="292"/>
      <point x="308" y="262" type="curve" smooth="yes"/>
      <point x="308" y="220"/>
      <point x="280" y="203"/>
    </contour>
  </outline>
</glyph>
<glyph name="g" format="2">
  <advance width="411"/>
  <unicode hex="0067"/>
  <note>
GF Latin Plus glyph
</note>
  <anchor x="151" y="-250" name="bottom"/>
  <anchor x="272" y="464" name="top"/>
  <outline>
    <contour>
      <point x="120" y="-166" type="line" smooth="yes"/>
      <point x="264" y="-178"/>
      <point x="347" y="-145"/>
      <point x="364" y="-41" type="curve" smooth="yes"/>
      <point x="428" y="364" type="line"/>
      <point x="394" y="375"/>
      <point x="334" y="387"/>
      <point x="262" y="387" type="curve" smooth="yes"/>
      <point x="161" y="387"/>
      <point x="82" y="347"/>
      <point x="61" y="216" type="curve" smooth="yes"/>
      <point x="57" y="187"/>
      <point x="52" y="151"/>
      <point x="52" y="127" type="curve" smooth="yes"/>
      <point x="52" y="55"/>
      <point x="85" y="-4"/>
      <point x="152" y="-4" type="curve" smooth="yes"/>
      <point x="192" y="-4"/>
      <point x="243" y="14"/>
      <point x="271" y="38" type="curve"/>
      <point x="260" y="-25" type="line" smooth="yes"/>
      <point x="253" y="-73"/>
      <point x="212" y="-86"/>
      <point x="158" y="-86" type="curve" smooth="yes"/>
      <point x="37" y="-86" type="line"/>
      <point x="25" y="-159" type="line"/>
    </contour>
    <contour>
      <point x="206" y="80" type="curve" smooth="yes"/>
      <point x="177" y="80"/>
      <point x="158" y="101"/>
      <point x="158" y="145" type="curve" smooth="yes"/>
      <point x="158" y="162"/>
      <point x="160" y="174"/>
      <point x="165" y="204" type="curve" smooth="yes"/>
      <point x="177" y="275"/>
      <point x="209" y="303"/>
      <point x="257" y="302" type="curve" smooth="yes"/>
      <point x="275" y="302"/>
      <point x="294" y="300"/>
      <point x="311" y="297" type="curve"/>
      <point x="281" y="107" type="line"/>
      <point x="257" y="91"/>
      <point x="234" y="80"/>
    </contour>
  </outline>
</glyph>
<glyph name="h" format="2">
  <advance width="421"/>
  <unicode hex="0068"/>
  <note>
GF Latin Plus glyph
</note>
  <anchor x="188" y="-107" name="bottom"/>
  <anchor x="249" y="607" name="top"/>
  <outline>
    <contour>
      <point x="38" y="0" type="line"/>
      <point x="144" y="0" type="line"/>
      <point x="185" y="261" type="line"/>
      <point x="212" y="281"/>
      <point x="237" y="293"/>
      <point x="272" y="293" type="curve" smooth="yes"/>
      <point x="298" y="293"/>
      <point x="316" y="283"/>
      <point x="316" y="252" type="curve" smooth="yes"/>
      <point x="316" y="247"/>
      <point x="316" y="241"/>
      <point x="315" y="235" type="curve" smooth="yes"/>
      <point x="278" y="0" type="line"/>
      <point x="384" y="0" type="line"/>
      <point x="423" y="248" type="line" smooth="yes"/>
      <point x="426" y="265"/>
      <point x="427" y="279"/>
      <point x="427" y="292" type="curve" smooth="yes"/>
      <point x="427" y="359"/>
      <point x="393" y="388"/>
      <point x="332" y="388" type="curve" smooth="yes"/>
      <point x="275" y="388"/>
      <point x="228" y="367"/>
      <point x="198" y="344" type="curve"/>
      <point x="230" y="545" type="line"/>
      <point x="124" y="545" type="line"/>
    </contour>
  </outline>
</glyph>
<glyph name="i" format="2">
  <advance width="181"/>
  <unicode hex="0069"/>
  <note>
GF Latin Plus glyph
</note>
  <outline>
    <component base="dotlessi"/>
    <contour>
      <point x="120" y="439" type="curve" smooth="yes"/>
      <point x="202" y="439" type="line" smooth="yes"/>
      <point x="210" y="439"/>
      <point x="216" y="444"/>
      <point x="218" y="454" type="curve" smooth="yes"/>
      <point x="229" y="524" type="line" smooth="yes"/>
      <point x="230" y="532"/>
      <point x="227" y="539"/>
      <point x="217" y="539" type="curve" smooth="yes"/>
      <point x="136" y="539" type="line" smooth="yes"/>
      <point x="126" y="539"/>
      <point x="120" y="533"/>
      <point x="119" y="524" type="curve" smooth="yes"/>
      <point x="108" y="454" type="line" smooth="yes"/>
      <point x="106" y="445"/>
      <point x="112" y="439"/>
    </contour>
  </outline>
</glyph>
<glyph name="k" format="2">
  <advance width="402"/>
  <unicode hex="006B"/>
  <note>
GF Latin Plus glyph
</note>
  <outline>
    <contour>
      <point x="38" y="0" type="line"/>
      <point x="144" y="0" type="line"/>
      <point x="171" y="168" type="line"/>
      <point x="182" y="168"/>
      <point x="200" y="171"/>
      <point x="214" y="174" type="curve"/>
      <point x="294" y="0" type="line"/>
      <point x="403" y="0" type="line"/>
      <point x="303" y="207" type="line"/>
      <point x="347" y="230"/>
      <point x="396" y="277"/>
      <point x="425" y="383" type="curve"/>
      <point x="319" y="383" type="line"/>
      <point x="297" y="300"/>
      <point x="250" y="259"/>
      <point x="183" y="248" type="curve"/>
      <point x="230" y="545" type="line"/>
      <point x="124" y="545" type="line"/>
    </contour>
  </outline>
</glyph>
<glyph name="l" format="2">
  <advance width="230"/>
  <unicode hex="006C"/>
  <note>
GF Latin Plus glyph
</note>
  <anchor x="111" y="-107" name="bottom"/>
  <anchor x="186" y="607" name="top"/>
  <outline>
    <contour>
      <point x="171" y="0" type="curve" smooth="yes"/>
      <point x="217" y="0" type="line"/>
      <point x="229" y="76" type="line"/>
      <point x="202" y="80" type="line" smooth="yes"/>
      <point x="178" y="83"/>
      <point x="165" y="90"/>
      <point x="165" y="117" type="curve" smooth="yes"/>
      <point x="165" y="131"/>
      <point x="169" y="158"/>
      <point x="171" y="169" type="curve" smooth="yes"/>
      <point x="230" y="545" type="line"/>
      <point x="124" y="545" type="line"/>
      <point x="59" y="133" type="line" smooth="yes"/>
      <point x="57" y="119"/>
      <point x="56" y="103"/>
      <point x="56" y="85" type="curve" smooth="yes"/>
      <point x="56" y="34"/>
      <point x="95" y="0"/>
    </contour>
  </outline>
</glyph>
<glyph name="m" format="2">
  <advance width="662"/>
  <unicode hex="006D"/>
  <note>
GF Latin Plus glyph
</note>
  <anchor x="316" y="-107" name="bottom"/>
  <anchor x="406" y="464" name="top"/>
  <outline>
    <contour>
      <point x="38" y="0" type="line"/>
      <point x="144" y="0" type="line"/>
      <point x="185" y="261" type="line"/>
      <point x="210" y="278"/>
      <point x="234" y="293"/>
      <point x="270" y="293" type="curve" smooth="yes"/>
      <point x="301" y="293"/>
      <point x="316" y="279"/>
      <point x="316" y="252" type="curve" smooth="yes"/>
      <point x="316" y="246"/>
      <point x="316" y="241"/>
      <point x="315" y="234" type="curve" smooth="yes"/>
      <point x="278" y="0" type="line"/>
      <point x="384" y="0" type="line"/>
      <point x="421" y="233" type="line" smooth="yes"/>
      <point x="423" y="244"/>
      <point x="423" y="252"/>
      <point x="423" y="259" type="curve"/>
      <point x="450" y="280"/>
      <point x="478" y="293"/>
      <point x="509" y="293" type="curve" smooth="yes"/>
      <point x="541" y="293"/>
      <point x="557" y="280"/>
      <point x="557" y="251" type="curve" smooth="yes"/>
      <point x="557" y="246"/>
      <point x="556" y="241"/>
      <point x="555" y="236" type="curve" smooth="yes"/>
      <point x="518" y="0" type="line"/>
      <point x="624" y="0" type="line"/>
      <point x="662" y="239" type="line" smooth="yes"/>
      <point x="665" y="256"/>
      <point x="667" y="276"/>
      <point x="667" y="296" type="curve" smooth="yes"/>
      <point x="667" y="353"/>
      <point x="638" y="388"/>
      <point x="565" y="388" type="curve" smooth="yes"/>
      <point x="521" y="388"/>
      <point x="467" y="371"/>
      <point x="424" y="331" type="curve"/>
      <point x="406" y="371"/>
      <point x="377" y="388"/>
      <point x="332" y="388" type="curve" smooth="yes"/>
      <point x="274" y="388"/>
      <point x="233" y="368"/>
      <point x="198" y="344" type="curve"/>
      <point x="186" y="383" type="line"/>
      <point x="98" y="383" type="line"/>
    </contour>
  </outline>
</glyph>
<glyph name="n" format="2">
  <advance width="421"/>
  <unicode hex="006E"/>
  <note>
GF Latin Plus glyph
</note>
  <anchor x="188" y="-107" name="bottom"/>
  <anchor x="278" y="464" name="top"/>
  <outline>
    <contour>
      <point x="38" y="0" type="line"/>
      <point x="144" y="0" type="line"/>
      <point x="185" y="261" type="line"/>
      <point x="211" y="280"/>
      <point x="237" y="293"/>
      <point x="270" y="293" type="curve" smooth="yes"/>
      <point x="304" y="293"/>
      <point x="316" y="277"/>
      <point x="316" y="252" type="curve" smooth="yes"/>
      <point x="316" y="246"/>
      <point x="316" y="239"/>
      <point x="312" y="219" type="curve" smooth="yes"/>
      <point x="278" y="0" type="line"/>
      <point x="384" y="0" type="line"/>
      <point x="419" y="222" type="line" smooth="yes"/>
      <point x="427" y="270"/>
      <point x="427" y="286"/>
      <point x="427" y="301" type="curve" smooth="yes"/>
      <point x="427" y="352"/>
      <point x="394" y="388"/>
      <point x="330" y="388" type="curve" smooth="yes"/>
      <point x="277" y="388"/>
      <point x="232" y="368"/>
      <point x="198" y="344" type="curve"/>
      <point x="186" y="383" type="line"/>
      <point x="98" y="383" type="line"/>
    </contour>
  </outline>
</glyph>
<glyph name="o" format="2">
  <advance width="409"/>
  <unicode hex="006F"/>
  <note>
GF Latin Plus glyph
</note>
  <anchor x="180" y="-107" name="bottom"/>
  <anchor x="270" y="464" name="top"/>
  <outline>
    <contour>
      <point x="204" y="-4" type="curve" smooth="yes"/>
      <point x="327" y="-4"/>
      <point x="387" y="30"/>
      <point x="409" y="170" type="curve" smooth="yes"/>
      <point x="414" y="198"/>
      <point x="416" y="225"/>
      <point x="416" y="248" type="curve" smooth="yes"/>
      <point x="416" y="342"/>
      <point x="387" y="387"/>
      <point x="265" y="387" type="curve" smooth="yes"/>
      <point x="141" y="387"/>
      <point x="83" y="355"/>
      <point x="59" y="201" type="curve" smooth="yes"/>
      <point x="55" y="179"/>
      <point x="53" y="156"/>
      <point x="53" y="129" type="curve" smooth="yes"/>
      <point x="53" y="39"/>
      <point x="105" y="-4"/>
    </contour>
    <contour>
      <point x="215" y="80" type="curve" smooth="yes"/>
      <point x="178" y="80"/>
      <point x="158" y="91"/>
      <point x="158" y="133" type="curve" smooth="yes"/>
      <point x="158" y="149"/>
      <point x="160" y="165"/>
      <point x="163" y="186" type="curve" smooth="yes"/>
      <point x="177" y="283"/>
      <point x="195" y="304"/>
      <point x="251" y="304" type="curve" smooth="yes"/>
      <point x="294" y="304"/>
      <point x="310" y="291"/>
      <point x="310" y="252" type="curve" smooth="yes"/>
      <point x="310" y="234"/>
      <point x="308" y="213"/>
      <point x="304" y="186" type="curve" smooth="yes"/>
      <point x="290" y="99"/>
      <point x="270" y="80"/>
    </contour>
  </outline>
</glyph>
<glyph name="p" format="2">
  <advance width="408"/>
  <unicode hex="0070"/>
  <note>
GF Latin Plus glyph
</note>
  <outline>
    <contour>
      <point x="11" y="-169" type="line"/>
      <point x="117" y="-169" type="line"/>
      <point x="145" y="11" type="line"/>
      <point x="166" y="0"/>
      <point x="196" y="-4"/>
      <point x="230" y="-4" type="curve" smooth="yes"/>
      <point x="322" y="-4"/>
      <point x="389" y="53"/>
      <point x="408" y="174" type="curve" smooth="yes"/>
      <point x="412" y="200"/>
      <point x="416" y="227"/>
      <point x="416" y="251" type="curve" smooth="yes"/>
      <point x="416" y="341"/>
      <point x="380" y="387"/>
      <point x="289" y="387" type="curve" smooth="yes"/>
      <point x="218" y="387"/>
      <point x="160" y="379"/>
      <point x="96" y="368" type="curve"/>
    </contour>
    <contour>
      <point x="217" y="85" type="curve" smooth="yes"/>
      <point x="193" y="85"/>
      <point x="177" y="88"/>
      <point x="158" y="95" type="curve"/>
      <point x="191" y="302" type="line"/>
      <point x="259" y="302" type="line" smooth="yes"/>
      <point x="296" y="302"/>
      <point x="311" y="280"/>
      <point x="311" y="232" type="curve" smooth="yes"/>
      <point x="311" y="220"/>
      <point x="309" y="206"/>
      <point x="307" y="194" type="curve" smooth="yes"/>
      <point x="294" y="117"/>
      <point x="268" y="85"/>
    </contour>
  </outline>
</glyph>
<glyph name="q" format="2">
  <advance width="406"/>
  <unicode hex="0071"/>
  <note>
GF Latin Plus glyph
</note>
  <outline>
    <contour>
      <point x="236" y="-169" type="line"/>
      <point x="342" y="-169" type="line"/>
      <point x="427" y="364" type="line"/>
      <point x="392" y="377"/>
      <point x="325" y="387"/>
      <point x="258" y="387" type="curve" smooth="yes"/>
      <point x="155" y="387"/>
      <point x="82" y="344"/>
      <point x="59" y="204" type="curve" smooth="yes"/>
      <point x="55" y="175"/>
      <point x="52" y="149"/>
      <point x="52" y="125" type="curve" smooth="yes"/>
      <point x="52" y="43"/>
      <point x="84" y="-4"/>
      <point x="153" y="-4" type="curve" smooth="yes"/>
      <point x="194" y="-4"/>
      <point x="240" y="14"/>
      <point x="269" y="38" type="curve"/>
    </contour>
    <contour>
      <point x="205" y="80" type="curve" smooth="yes"/>
      <point x="176" y="80"/>
      <point x="157" y="102"/>
      <point x="157" y="145" type="curve" smooth="yes"/>
      <point x="157" y="157"/>
      <point x="159" y="174"/>
      <point x="162" y="196" type="curve" smooth="yes"/>
      <point x="174" y="267"/>
      <point x="197" y="304"/>
      <point x="260" y="302" type="curve" smooth="yes"/>
      <point x="276" y="302"/>
      <point x="293" y="300"/>
      <point x="311" y="297" type="curve"/>
      <point x="281" y="107" type="line"/>
      <point x="258" y="92"/>
      <point x="233" y="80"/>
    </contour>
  </outline>
</glyph>
<glyph name="r" format="2">
  <advance width="299"/>
  <unicode hex="0072"/>
  <note>
GF Latin Plus glyph
</note>
  <anchor x="74" y="-107" name="bottom"/>
  <anchor x="224" y="465" name="top"/>
  <outline>
    <contour>
      <point x="38" y="0" type="line"/>
      <point x="144" y="0" type="line"/>
      <point x="184" y="248" type="line"/>
      <point x="205" y="264"/>
      <point x="238" y="279"/>
      <point x="280" y="279" type="curve" smooth="yes"/>
      <point x="295" y="279"/>
      <point x="311" y="278"/>
      <point x="325" y="277" type="curve"/>
      <point x="341" y="383" type="line"/>
      <point x="329" y="386"/>
      <point x="317" y="387"/>
      <point x="302" y="387" type="curve" smooth="yes"/>
      <point x="258" y="387"/>
      <point x="224" y="363"/>
      <point x="197" y="333" type="curve"/>
      <point x="193" y="383" type="line"/>
      <point x="99" y="383" type="line"/>
    </contour>
  </outline>
</glyph>
<glyph name="s" format="2">
  <advance width="365"/>
  <unicode hex="0073"/>
  <note>
GF Latin Plus glyph
</note>
  <outline>
    <contour>
      <point x="190" y="-4" type="curve" smooth="yes"/>
      <point x="282" y="-4"/>
      <point x="342" y="21"/>
      <point x="353" y="92" type="curve" smooth="yes"/>
      <point x="358" y="126" type="line" smooth="yes"/>
      <point x="360" y="137"/>
      <point x="360" y="147"/>
      <point x="360" y="157" type="curve" smooth="yes"/>
      <point x="360" y="204"/>
      <point x="320" y="233"/>
      <point x="259" y="233" type="curve" smooth="yes"/>
      <point x="196" y="233" type="line" smooth="yes"/>
      <point x="171" y="233"/>
      <point x="163" y="239"/>
      <point x="163" y="252" type="curve" smooth="yes"/>
      <point x="163" y="256"/>
      <point x="163" y="261"/>
      <point x="164" y="267" type="curve" smooth="yes"/>
      <point x="166" y="278" type="line" smooth="yes"/>
      <point x="171" y="299"/>
      <point x="182" y="307"/>
      <point x="210" y="307" type="curve" smooth="yes"/>
      <point x="366" y="307" type="line"/>
      <point x="376" y="369" type="line"/>
      <point x="340" y="380"/>
      <point x="276" y="387"/>
      <point x="230" y="387" type="curve" smooth="yes"/>
      <point x="121" y="387"/>
      <point x="83" y="345"/>
      <point x="72" y="285" type="curve" smooth="yes"/>
      <point x="68" y="258" type="line" smooth="yes"/>
      <point x="66" y="246"/>
      <point x="65" y="236"/>
      <point x="65" y="226" type="curve" smooth="yes"/>
      <point x="65" y="172"/>
      <point x="111" y="148"/>
      <point x="174" y="148" type="curve" smooth="yes"/>
      <point x="231" y="148" type="line" smooth="yes"/>
      <point x="251" y="148"/>
      <point x="262" y="141"/>
      <point x="262" y="126" type="curve" smooth="yes"/>
      <point x="262" y="125"/>
      <point x="262" y="123"/>
      <point x="261" y="118" type="curve" smooth="yes"/>
      <point x="259" y="103" type="line" smooth="yes"/>
      <point x="255" y="83"/>
      <point x="239" y="75"/>
      <point x="213" y="75" type="curve" smooth="yes"/>
      <point x="46" y="75" type="line"/>
      <point x="36" y="13" type="line"/>
      <point x="72" y="1"/>
      <point x="127" y="-4"/>
    </contour>
  </outline>
</glyph>
<glyph name="t" format="2">
  <advance width="291"/>
  <unicode hex="0074"/>
  <note>
GF Latin Plus glyph
</note>
  <outline>
    <contour>
      <point x="200" y="0" type="curve" smooth="yes"/>
      <point x="258" y="0" type="line"/>
      <point x="271" y="78" type="line"/>
      <point x="227" y="82" type="line" smooth="yes"/>
      <point x="203" y="85"/>
      <point x="191" y="93"/>
      <point x="191" y="116" type="curve" smooth="yes"/>
      <point x="191" y="127"/>
      <point x="194" y="144"/>
      <point x="196" y="153" type="curve" smooth="yes"/>
      <point x="219" y="298" type="line"/>
      <point x="309" y="298" type="line"/>
      <point x="323" y="383" type="line"/>
      <point x="232" y="383" type="line"/>
      <point x="249" y="490" type="line"/>
      <point x="166" y="490" type="line"/>
      <point x="134" y="383" type="line"/>
      <point x="69" y="366" type="line"/>
      <point x="58" y="298" type="line"/>
      <point x="118" y="298" type="line"/>
      <point x="91" y="153" type="line" smooth="yes"/>
      <point x="86" y="126"/>
      <point x="84" y="104"/>
      <point x="84" y="86" type="curve" smooth="yes"/>
      <point x="84" y="28"/>
      <point x="123" y="0"/>
    </contour>
  </outline>
</glyph>
<glyph name="u" format="2">
  <advance width="421"/>
  <unicode hex="0075"/>
  <note>
GF Latin Plus glyph
</note>
  <anchor x="194" y="-107" name="bottom"/>
  <anchor x="284" y="464" name="top"/>
  <outline>
    <contour>
      <point x="149" y="-4" type="curve" smooth="yes"/>
      <point x="209" y="-4"/>
      <point x="242" y="11"/>
      <point x="283" y="39" type="curve"/>
      <point x="289" y="0" type="line"/>
      <point x="383" y="0" type="line"/>
      <point x="443" y="383" type="line"/>
      <point x="337" y="383" type="line"/>
      <point x="296" y="122" type="line"/>
      <point x="270" y="103"/>
      <point x="244" y="90"/>
      <point x="210" y="90" type="curve" smooth="yes"/>
      <point x="183" y="90"/>
      <point x="165" y="101"/>
      <point x="165" y="129" type="curve" smooth="yes"/>
      <point x="165" y="135"/>
      <point x="165" y="140"/>
      <point x="166" y="144" type="curve" smooth="yes"/>
      <point x="203" y="383" type="line"/>
      <point x="97" y="383" type="line"/>
      <point x="57" y="131" type="line" smooth="yes"/>
      <point x="56" y="118"/>
      <point x="54" y="105"/>
      <point x="54" y="85" type="curve" smooth="yes"/>
      <point x="54" y="29"/>
      <point x="83" y="-4"/>
    </contour>
  </outline>
</glyph>
<glyph name="v" format="2">
  <advance width="392"/>
  <unicode hex="0076"/>
  <note>
GF Latin Plus glyph
</note>
  <outline>
    <contour>
      <point x="127" y="0" type="line"/>
      <point x="248" y="0" type="line"/>
      <point x="370" y="234" type="line" smooth="yes"/>
      <point x="393" y="281"/>
      <point x="417" y="334"/>
      <point x="418" y="389" type="curve"/>
      <point x="321" y="389" type="line"/>
      <point x="316" y="346"/>
      <point x="306" y="315"/>
      <point x="291" y="279" type="curve" smooth="yes"/>
      <point x="205" y="99" type="line"/>
      <point x="168" y="383" type="line"/>
      <point x="59" y="383" type="line"/>
    </contour>
  </outline>
</glyph>
<glyph name="w" format="2">
  <advance width="607"/>
  <unicode hex="0077"/>
  <note>
GF Latin Plus glyph
</note>
  <outline>
    <contour>
      <point x="120" y="0" type="line"/>
      <point x="232" y="0" type="line"/>
      <point x="325" y="211" type="line"/>
      <point x="366" y="0" type="line"/>
      <point x="478" y="0" type="line"/>
      <point x="597" y="252" type="line" smooth="yes"/>
      <point x="612" y="285"/>
      <point x="633" y="343"/>
      <point x="633" y="389" type="curve"/>
      <point x="529" y="389" type="line"/>
      <point x="526" y="357"/>
      <point x="512" y="311"/>
      <point x="505" y="291" type="curve" smooth="yes"/>
      <point x="434" y="99" type="line"/>
      <point x="384" y="383" type="line"/>
      <point x="315" y="383" type="line"/>
      <point x="200" y="99" type="line"/>
      <point x="168" y="383" type="line"/>
      <point x="59" y="383" type="line"/>
    </contour>
  </outline>
</glyph>
<glyph name="x" format="2">
  <advance width="397"/>
  <unicode hex="0078"/>
  <note>
GF Latin Plus glyph
</note>
  <outline>
    <contour>
      <point x="283" y="0" type="line"/>
      <point x="391" y="0" type="line"/>
      <point x="270" y="210" type="line"/>
      <point x="168" y="383" type="line"/>
      <point x="60" y="383" type="line"/>
      <point x="191" y="157" type="line"/>
    </contour>
    <contour>
      <point x="5" y="0" type="line"/>
      <point x="114" y="0" type="line"/>
      <point x="219" y="124" type="line"/>
      <point x="190" y="220" type="line"/>
    </contour>
    <contour>
      <point x="263" y="155" type="line"/>
      <point x="446" y="383" type="line"/>
      <point x="332" y="383" type="line"/>
      <point x="225" y="241" type="line"/>
    </contour>
  </outline>
</glyph>
<glyph name="y" format="2">
  <advance width="410"/>
  <unicode hex="0079"/>
  <note>
GF Latin Plus glyph
</note>
  <anchor x="346" y="-107" name="bottom"/>
  <anchor x="265" y="464" name="top"/>
  <outline>
    <contour>
      <point x="68" y="-169" type="line"/>
      <point x="166" y="-161"/>
      <point x="234" y="-119"/>
      <point x="293" y="5" type="curve" smooth="yes"/>
      <point x="395" y="219" type="line" smooth="yes"/>
      <point x="425" y="282"/>
      <point x="438" y="337"/>
      <point x="438" y="389" type="curve"/>
      <point x="338" y="389" type="line"/>
      <point x="337" y="355"/>
      <point x="326" y="321"/>
      <point x="315" y="292" type="curve" smooth="yes"/>
      <point x="231" y="86" type="line"/>
      <point x="213" y="87"/>
      <point x="194" y="94"/>
      <point x="191" y="125" type="curve" smooth="yes"/>
      <point x="173" y="383" type="line"/>
      <point x="64" y="383" type="line"/>
      <point x="97" y="102" type="line" smooth="yes"/>
      <point x="105" y="36"/>
      <point x="130" y="6"/>
      <point x="198" y="0" type="curve"/>
      <point x="170" y="-57"/>
      <point x="126" y="-82"/>
      <point x="68" y="-94" type="curve"/>
    </contour>
  </outline>
</glyph>
<glyph name="z" format="2">
  <advance width="357"/>
  <unicode hex="007A"/>
  <note>
GF Latin Plus glyph
</note>
  <anchor x="145" y="-107" name="bottom"/>
  <anchor x="235" y="464" name="top"/>
  <outline>
    <contour>
      <point x="28" y="0" type="line"/>
      <point x="332" y="0" type="line"/>
      <point x="332" y="0"/>
      <point x="346" y="84"/>
      <point x="345" y="84" type="curve"/>
      <point x="163" y="84" type="line"/>
      <point x="377" y="307" type="line"/>
      <point x="388" y="383" type="line"/>
      <point x="80" y="383" type="line"/>
      <point x="67" y="298" type="line"/>
      <point x="253" y="298" type="line"/>
      <point x="40" y="76" type="line"/>
    </contour>
  </outline>
</glyph>
<glyph name="braceleft" format="2">
  <advance width="226"/>
  <unicode hex="007B"/>
  <note>
GF Latin Plus glyph
</note>
  <outline>
    <contour>
      <point x="203" y="-150" type="curve"/>
      <point x="215" y="-70" type="line"/>
      <point x="185" y="-70"/>
      <point x="173" y="-58"/>
      <point x="173" y="-30" type="curve" smooth="yes"/>
      <point x="173" y="-6"/>
      <point x="204" y="155"/>
      <point x="204" y="179" type="curve" smooth="yes"/>
      <point x="204" y="210"/>
      <point x="182" y="231"/>
      <point x="144" y="238" type="curve"/>
      <point x="187" y="242"/>
      <point x="218" y="262"/>
      <point x="226" y="310" type="curve" smooth="yes"/>
      <point x="247" y="446" type="line" smooth="yes"/>
      <point x="255" y="501"/>
      <point x="269" y="516"/>
      <point x="308" y="516" type="curve"/>
      <point x="322" y="601" type="line"/>
      <point x="211" y="601"/>
      <point x="161" y="569"/>
      <point x="145" y="468" type="curve" smooth="yes"/>
      <point x="122" y="328" type="line" smooth="yes"/>
      <point x="117" y="297"/>
      <point x="91" y="289"/>
      <point x="67" y="287" type="curve"/>
      <point x="52" y="189" type="line"/>
      <point x="83" y="189"/>
      <point x="95" y="179"/>
      <point x="95" y="155" type="curve" smooth="yes"/>
      <point x="95" y="135"/>
      <point x="63" y="-19"/>
      <point x="63" y="-59" type="curve" smooth="yes"/>
      <point x="63" y="-120"/>
      <point x="100" y="-150"/>
    </contour>
  </outline>
</glyph>
<glyph name="bar" format="2">
  <advance width="179"/>
  <unicode hex="007C"/>
  <note>
GF Latin Plus glyph
</note>
  <outline>
    <contour>
      <point x="39" y="-51" type="line"/>
      <point x="124" y="-51" type="line"/>
      <point x="219" y="550" type="line"/>
      <point x="134" y="550" type="line"/>
    </contour>
  </outline>
</glyph>
<glyph name="braceright" format="2">
  <advance width="226"/>
  <unicode hex="007D"/>
  <note>
GF Latin Plus glyph
</note>
  <outline>
    <contour>
      <point x="-12" y="-150" type="line"/>
      <point x="107" y="-150"/>
      <point x="149" y="-117"/>
      <point x="164" y="-27" type="curve" smooth="yes"/>
      <point x="189" y="133" type="line" smooth="yes"/>
      <point x="194" y="163"/>
      <point x="215" y="175"/>
      <point x="243" y="175" type="curve"/>
      <point x="259" y="272" type="line"/>
      <point x="238" y="274"/>
      <point x="216" y="282"/>
      <point x="216" y="306" type="curve" smooth="yes"/>
      <point x="216" y="322"/>
      <point x="243" y="487"/>
      <point x="243" y="499" type="curve" smooth="yes"/>
      <point x="243" y="563"/>
      <point x="202" y="601"/>
      <point x="106" y="601" type="curve"/>
      <point x="92" y="516" type="line"/>
      <point x="120" y="516"/>
      <point x="134" y="507"/>
      <point x="134" y="475" type="curve" smooth="yes"/>
      <point x="134" y="457"/>
      <point x="107" y="305"/>
      <point x="107" y="279" type="curve" smooth="yes"/>
      <point x="107" y="243"/>
      <point x="130" y="227"/>
      <point x="167" y="224" type="curve"/>
      <point x="121" y="216"/>
      <point x="92" y="192"/>
      <point x="86" y="154" type="curve" smooth="yes"/>
      <point x="60" y="-9" type="line" smooth="yes"/>
      <point x="53" y="-46"/>
      <point x="41" y="-70"/>
      <point x="0" y="-70" type="curve"/>
    </contour>
  </outline>
</glyph>
<glyph name="asciitilde" format="2">
  <advance width="301"/>
  <unicode hex="007E"/>
  <note>
GF Latin Plus glyph
</note>
  <outline>
    <contour>
      <point x="255" y="381" type="curve" smooth="yes"/>
      <point x="290" y="381"/>
      <point x="320" y="407"/>
      <point x="342" y="430" type="curve"/>
      <point x="334" y="470" type="line"/>
      <point x="316" y="455"/>
      <point x="291" y="439"/>
      <point x="264" y="439" type="curve" smooth="yes"/>
      <point x="242" y="439"/>
      <point x="214" y="471"/>
      <point x="186" y="471" type="curve" smooth="yes"/>
      <point x="150" y="471"/>
      <point x="117" y="446"/>
      <point x="94" y="422" type="curve"/>
      <point x="103" y="385" type="line"/>
      <point x="129" y="403"/>
      <point x="148" y="413"/>
      <point x="176" y="413" type="curve" smooth="yes"/>
      <point x="203" y="413"/>
      <point x="225" y="381"/>
    </contour>
  </outline>
</glyph>
<glyph name="cent" format="2">
  <advance width="347"/>
  <unicode hex="00A2"/>
  <note>
GF Latin Plus glyph
</note>
  <outline>
    <contour>
      <point x="148" y="-65" type="line"/>
      <point x="208" y="-65" type="line"/>
      <point x="218" y="-3" type="line"/>
      <point x="256" y="-1"/>
      <point x="290" y="4"/>
      <point x="328" y="21" type="curve"/>
      <point x="337" y="84" type="line"/>
      <point x="324" y="81"/>
      <point x="281" y="75"/>
      <point x="219" y="75" type="curve" smooth="yes"/>
      <point x="174" y="75"/>
      <point x="152" y="87"/>
      <point x="152" y="138" type="curve" smooth="yes"/>
      <point x="152" y="230"/>
      <point x="187" y="303"/>
      <point x="256" y="303" type="curve" smooth="yes"/>
      <point x="314" y="303"/>
      <point x="356" y="298"/>
      <point x="367" y="296" type="curve"/>
      <point x="376" y="359" type="line"/>
      <point x="345" y="371"/>
      <point x="311" y="378"/>
      <point x="281" y="381" type="curve"/>
      <point x="292" y="449" type="line"/>
      <point x="232" y="449" type="line"/>
      <point x="221" y="382" type="line"/>
      <point x="122" y="379"/>
      <point x="45" y="286"/>
      <point x="45" y="135" type="curve" smooth="yes"/>
      <point x="45" y="27"/>
      <point x="94" y="2"/>
      <point x="158" y="-3" type="curve"/>
    </contour>
  </outline>
</glyph>
<glyph name="sterling" format="2">
  <advance width="435"/>
  <unicode hex="00A3"/>
  <note>
GF Latin Plus glyph
</note>
  <outline>
    <contour>
      <point x="41" y="0" type="line"/>
      <point x="399" y="0" type="line"/>
      <point x="414" y="95" type="line"/>
      <point x="228" y="95" type="line"/>
      <point x="249" y="225" type="line"/>
      <point x="380" y="232" type="line"/>
      <point x="389" y="290" type="line"/>
      <point x="261" y="300" type="line"/>
      <point x="271" y="365" type="line" smooth="yes"/>
      <point x="280" y="423"/>
      <point x="304" y="437"/>
      <point x="353" y="437" type="curve" smooth="yes"/>
      <point x="465" y="437" type="line"/>
      <point x="479" y="522" type="line"/>
      <point x="453" y="526"/>
      <point x="412" y="531"/>
      <point x="364" y="531" type="curve" smooth="yes"/>
      <point x="246" y="531"/>
      <point x="184" y="484"/>
      <point x="163" y="354" type="curve" smooth="yes"/>
      <point x="155" y="300" type="line"/>
      <point x="86" y="285" type="line"/>
      <point x="78" y="232" type="line"/>
      <point x="143" y="225" type="line"/>
      <point x="122" y="95" type="line"/>
      <point x="54" y="80" type="line"/>
    </contour>
  </outline>
</glyph>
<glyph name="currency" format="2">
  <advance width="435"/>
  <unicode hex="00A4"/>
  <note>
GF Latin Plus glyph
</note>
  <outline>
    <contour>
      <point x="241" y="127" type="curve" smooth="yes"/>
      <point x="322" y="127"/>
      <point x="385" y="194"/>
      <point x="385" y="270" type="curve" smooth="yes"/>
      <point x="385" y="329"/>
      <point x="336" y="380"/>
      <point x="274" y="380" type="curve" smooth="yes"/>
      <point x="192" y="380"/>
      <point x="130" y="313"/>
      <point x="130" y="238" type="curve" smooth="yes"/>
      <point x="130" y="178"/>
      <point x="178" y="127"/>
    </contour>
    <contour>
      <point x="103" y="83" type="line"/>
      <point x="196" y="160" type="line"/>
      <point x="156" y="204" type="line"/>
      <point x="66" y="127" type="line"/>
    </contour>
    <contour>
      <point x="358" y="83" type="line"/>
      <point x="408" y="127" type="line"/>
      <point x="344" y="202" type="line"/>
      <point x="294" y="159" type="line"/>
    </contour>
    <contour>
      <point x="246" y="181" type="curve" smooth="yes"/>
      <point x="211" y="181"/>
      <point x="185" y="208"/>
      <point x="185" y="243" type="curve" smooth="yes"/>
      <point x="185" y="295"/>
      <point x="223" y="326"/>
      <point x="269" y="326" type="curve" smooth="yes"/>
      <point x="305" y="326"/>
      <point x="331" y="299"/>
      <point x="331" y="265" type="curve" smooth="yes"/>
      <point x="331" y="211"/>
      <point x="293" y="181"/>
    </contour>
    <contour>
      <point x="169" y="307" type="line"/>
      <point x="220" y="350" type="line"/>
      <point x="157" y="424" type="line"/>
      <point x="107" y="381" type="line"/>
    </contour>
    <contour>
      <point x="360" y="305" type="line"/>
      <point x="448" y="381" type="line"/>
      <point x="411" y="424" type="line"/>
      <point x="324" y="349" type="line"/>
    </contour>
  </outline>
</glyph>
<glyph name="yen" format="2">
  <advance width="435"/>
  <unicode hex="00A5"/>
  <note>
GF Latin Plus glyph
</note>
  <outline>
    <component base="Y" xOffset="-14"/>
    <contour>
      <point x="77" y="186" type="line"/>
      <point x="400" y="186" type="line"/>
      <point x="409" y="239" type="line"/>
      <point x="85" y="239" type="line"/>
    </contour>
    <contour>
      <point x="61" y="87" type="line"/>
      <point x="385" y="87" type="line"/>
      <point x="393" y="140" type="line"/>
      <point x="70" y="140" type="line"/>
    </contour>
  </outline>
</glyph>
<glyph name="brokenbar" format="2">
  <advance width="179"/>
  <unicode hex="00A6"/>
  <note>
GF Latin Plus glyph
</note>
  <outline>
    <contour>
      <point x="95" y="306" type="line"/>
      <point x="180" y="306" type="line"/>
      <point x="219" y="550" type="line"/>
      <point x="134" y="550" type="line"/>
    </contour>
    <contour>
      <point x="39" y="-51" type="line"/>
      <point x="124" y="-51" type="line"/>
      <point x="161" y="182" type="line"/>
      <point x="76" y="182" type="line"/>
    </contour>
  </outline>
</glyph>
<glyph name="section" format="2">
  <advance width="385"/>
  <unicode hex="00A7"/>
  <note>
GF Latin Plus glyph
</note>
  <outline>
    <contour>
      <point x="224" y="-4" type="curve" smooth="yes"/>
      <point x="302" y="-4"/>
      <point x="356" y="20"/>
      <point x="369" y="104" type="curve" smooth="yes"/>
      <point x="374" y="137" type="line" smooth="yes"/>
      <point x="376" y="148"/>
      <point x="377" y="155"/>
      <point x="377" y="162" type="curve" smooth="yes"/>
      <point x="377" y="189"/>
      <point x="367" y="207"/>
      <point x="342" y="215" type="curve"/>
      <point x="379" y="227"/>
      <point x="397" y="254"/>
      <point x="402" y="286" type="curve" smooth="yes"/>
      <point x="407" y="314" type="line" smooth="yes"/>
      <point x="408" y="322"/>
      <point x="409" y="329"/>
      <point x="409" y="335" type="curve" smooth="yes"/>
      <point x="409" y="382"/>
      <point x="376" y="399"/>
      <point x="307" y="399" type="curve" smooth="yes"/>
      <point x="234" y="399" type="line" smooth="yes"/>
      <point x="211" y="399"/>
      <point x="203" y="404"/>
      <point x="203" y="418" type="curve" smooth="yes"/>
      <point x="203" y="421"/>
      <point x="204" y="428"/>
      <point x="206" y="443" type="curve" smooth="yes"/>
      <point x="210" y="467"/>
      <point x="224" y="475"/>
      <point x="254" y="475" type="curve" smooth="yes"/>
      <point x="404" y="475" type="line"/>
      <point x="415" y="548" type="line"/>
      <point x="379" y="557"/>
      <point x="296" y="560"/>
      <point x="252" y="560" type="curve" smooth="yes"/>
      <point x="161" y="560"/>
      <point x="118" y="520"/>
      <point x="108" y="459" type="curve" smooth="yes"/>
      <point x="102" y="423" type="line" smooth="yes"/>
      <point x="101" y="412"/>
      <point x="100" y="404"/>
      <point x="100" y="395" type="curve" smooth="yes"/>
      <point x="100" y="369"/>
      <point x="108" y="349"/>
      <point x="133" y="336" type="curve"/>
      <point x="95" y="324"/>
      <point x="77" y="307"/>
      <point x="70" y="265" type="curve" smooth="yes"/>
      <point x="66" y="239" type="line" smooth="yes"/>
      <point x="65" y="230"/>
      <point x="64" y="223"/>
      <point x="64" y="218" type="curve" smooth="yes"/>
      <point x="64" y="169"/>
      <point x="103" y="153"/>
      <point x="168" y="153" type="curve" smooth="yes"/>
      <point x="238" y="153" type="line" smooth="yes"/>
      <point x="263" y="153"/>
      <point x="271" y="149"/>
      <point x="271" y="138" type="curve" smooth="yes"/>
      <point x="271" y="135"/>
      <point x="269" y="125"/>
      <point x="266" y="108" type="curve" smooth="yes"/>
      <point x="263" y="90"/>
      <point x="254" y="80"/>
      <point x="215" y="80" type="curve" smooth="yes"/>
      <point x="69" y="80" type="line"/>
      <point x="57" y="5" type="line"/>
      <point x="101" y="-2"/>
      <point x="174" y="-4"/>
    </contour>
    <contour>
      <point x="206" y="232" type="line" smooth="yes"/>
      <point x="181" y="232"/>
      <point x="170" y="241"/>
      <point x="170" y="256" type="curve" smooth="yes"/>
      <point x="170" y="258"/>
      <point x="171" y="260"/>
      <point x="171" y="262" type="curve" smooth="yes"/>
      <point x="175" y="288" type="line" smooth="yes"/>
      <point x="178" y="311"/>
      <point x="190" y="319"/>
      <point x="220" y="319" type="curve" smooth="yes"/>
      <point x="269" y="319" type="line" smooth="yes"/>
      <point x="293" y="319"/>
      <point x="303" y="314"/>
      <point x="303" y="298" type="curve" smooth="yes"/>
      <point x="303" y="296"/>
      <point x="303" y="293"/>
      <point x="303" y="290" type="curve" smooth="yes"/>
      <point x="298" y="263" type="line" smooth="yes"/>
      <point x="294" y="235"/>
      <point x="284" y="232"/>
      <point x="251" y="232" type="curve" smooth="yes"/>
    </contour>
  </outline>
</glyph>
<glyph name="copyright" format="2">
  <advance width="579"/>
  <unicode hex="00A9"/>
  <note>
GF Latin Plus glyph
</note>
  <outline>
    <contour>
      <point x="237" y="0" type="curve" smooth="yes"/>
      <point x="374" y="0" type="line" smooth="yes"/>
      <point x="502" y="0"/>
      <point x="600" y="173"/>
      <point x="600" y="358" type="curve" smooth="yes"/>
      <point x="600" y="454"/>
      <point x="549" y="522"/>
      <point x="442" y="522" type="curve" smooth="yes"/>
      <point x="304" y="522" type="line" smooth="yes"/>
      <point x="132" y="522"/>
      <point x="65" y="339"/>
      <point x="65" y="188" type="curve" smooth="yes"/>
      <point x="65" y="81"/>
      <point x="125" y="0"/>
    </contour>
    <contour>
      <point x="285" y="105" type="curve" smooth="yes"/>
      <point x="331" y="105"/>
      <point x="373" y="106"/>
      <point x="415" y="123" type="curve"/>
      <point x="422" y="173" type="line"/>
      <point x="393" y="167"/>
      <point x="356" y="162"/>
      <point x="314" y="162" type="curve" smooth="yes"/>
      <point x="274" y="162"/>
      <point x="256" y="180"/>
      <point x="256" y="222" type="curve" smooth="yes"/>
      <point x="256" y="291"/>
      <point x="287" y="359"/>
      <point x="347" y="359" type="curve" smooth="yes"/>
      <point x="368" y="359"/>
      <point x="406" y="356"/>
      <point x="446" y="350" type="curve"/>
      <point x="455" y="400" type="line"/>
      <point x="418" y="412"/>
      <point x="362" y="416"/>
      <point x="335" y="416" type="curve" smooth="yes"/>
      <point x="254" y="416"/>
      <point x="193" y="313"/>
      <point x="193" y="208" type="curve" smooth="yes"/>
      <point x="193" y="126"/>
      <point x="235" y="105"/>
    </contour>
    <contour>
      <point x="230" y="57" type="line" smooth="yes"/>
      <point x="156" y="57"/>
      <point x="123" y="116"/>
      <point x="123" y="197" type="curve" smooth="yes"/>
      <point x="123" y="341"/>
      <point x="194" y="465"/>
      <point x="294" y="465" type="curve" smooth="yes"/>
      <point x="448" y="465" type="line" smooth="yes"/>
      <point x="516" y="465"/>
      <point x="542" y="414"/>
      <point x="542" y="349" type="curve" smooth="yes"/>
      <point x="542" y="179"/>
      <point x="462" y="57"/>
      <point x="378" y="57" type="curve" smooth="yes"/>
    </contour>
  </outline>
</glyph>
<glyph name="ordfeminine" format="2">
  <advance width="293"/>
  <unicode hex="00AA"/>
  <note>
GF Latin Plus glyph
</note>
  <outline>
    <component base="a.superior" yOffset="57"/>
    <contour>
      <point x="50" y="181" type="line"/>
      <point x="304" y="181" type="line"/>
      <point x="312" y="231" type="line"/>
      <point x="58" y="231" type="line"/>
    </contour>
  </outline>
</glyph>
<glyph name="logicalnot" format="2">
  <advance width="435"/>
  <unicode hex="00AC"/>
  <note>
GF Latin Plus glyph
</note>
  <outline>
    <component base="minus" xOffset="13" yOffset="85"/>
    <contour>
      <point x="312" y="126" type="line"/>
      <point x="397" y="126" type="line"/>
      <point x="430" y="337" type="line"/>
      <point x="345" y="337" type="line"/>
    </contour>
  </outline>
</glyph>
<glyph name="registered" format="2">
  <advance width="579"/>
  <unicode hex="00AE"/>
  <note>
GF Latin Plus glyph
</note>
  <outline>
    <contour>
      <point x="237" y="0" type="curve" smooth="yes"/>
      <point x="374" y="0" type="line" smooth="yes"/>
      <point x="502" y="0"/>
      <point x="600" y="173"/>
      <point x="600" y="358" type="curve" smooth="yes"/>
      <point x="600" y="454"/>
      <point x="549" y="522"/>
      <point x="442" y="522" type="curve" smooth="yes"/>
      <point x="304" y="522" type="line" smooth="yes"/>
      <point x="132" y="522"/>
      <point x="65" y="339"/>
      <point x="65" y="188" type="curve" smooth="yes"/>
      <point x="65" y="81"/>
      <point x="125" y="0"/>
    </contour>
    <contour>
      <point x="195" y="109" type="line"/>
      <point x="257" y="109" type="line"/>
      <point x="277" y="231" type="line"/>
      <point x="327" y="230" type="line"/>
      <point x="369" y="109" type="line"/>
      <point x="431" y="109" type="line"/>
      <point x="385" y="228" type="line"/>
      <point x="429" y="239"/>
      <point x="456" y="291"/>
      <point x="456" y="343" type="curve" smooth="yes"/>
      <point x="456" y="400"/>
      <point x="417" y="414"/>
      <point x="375" y="414" type="curve" smooth="yes"/>
      <point x="244" y="414" type="line"/>
    </contour>
    <contour>
      <point x="230" y="57" type="line" smooth="yes"/>
      <point x="156" y="57"/>
      <point x="123" y="116"/>
      <point x="123" y="197" type="curve" smooth="yes"/>
      <point x="123" y="341"/>
      <point x="194" y="465"/>
      <point x="294" y="465" type="curve" smooth="yes"/>
      <point x="448" y="465" type="line" smooth="yes"/>
      <point x="516" y="465"/>
      <point x="542" y="414"/>
      <point x="542" y="349" type="curve" smooth="yes"/>
      <point x="542" y="179"/>
      <point x="462" y="57"/>
      <point x="378" y="57" type="curve" smooth="yes"/>
    </contour>
    <contour>
      <point x="284" y="277" type="line"/>
      <point x="297" y="357" type="line"/>
      <point x="365" y="357" type="line" smooth="yes"/>
      <point x="382" y="357"/>
      <point x="393" y="350"/>
      <point x="393" y="330" type="curve" smooth="yes"/>
      <point x="393" y="304"/>
      <point x="375" y="277"/>
      <point x="352" y="277" type="curve" smooth="yes"/>
    </contour>
  </outline>
</glyph>
<glyph name="macron" format="2">
  <advance width="256"/>
  <unicode hex="00AF"/>
  <note>
GF Latin Plus glyph
</note>
  <outline>
    <contour>
      <point x="100" y="462" type="line"/>
      <point x="301" y="462" type="line"/>
      <point x="311" y="524" type="line"/>
      <point x="110" y="524" type="line"/>
    </contour>
  </outline>
</glyph>
<glyph name="degree" format="2">
  <advance width="227"/>
  <unicode hex="00B0"/>
  <note>
GF Latin Plus glyph
</note>
  <outline>
    <contour>
      <point x="168" y="343" type="curve" smooth="yes"/>
      <point x="249" y="343"/>
      <point x="288" y="398"/>
      <point x="288" y="460" type="curve" smooth="yes"/>
      <point x="288" y="514"/>
      <point x="255" y="549"/>
      <point x="201" y="549" type="curve" smooth="yes"/>
      <point x="121" y="549"/>
      <point x="80" y="493"/>
      <point x="80" y="432" type="curve" smooth="yes"/>
      <point x="80" y="378"/>
      <point x="116" y="343"/>
    </contour>
    <contour>
      <point x="176" y="391" type="curve" smooth="yes"/>
      <point x="147" y="391"/>
      <point x="128" y="409"/>
      <point x="128" y="435" type="curve" smooth="yes"/>
      <point x="128" y="473"/>
      <point x="155" y="501"/>
      <point x="193" y="501" type="curve" smooth="yes"/>
      <point x="222" y="501"/>
      <point x="239" y="484"/>
      <point x="239" y="457" type="curve" smooth="yes"/>
      <point x="239" y="417"/>
      <point x="213" y="391"/>
    </contour>
  </outline>
</glyph>
<glyph name="twosuperior" format="2">
  <advance width="297"/>
  <unicode hex="00B2"/>
  <note>
GF Latin Plus glyph
</note>
  <outline>
    <contour>
      <point x="70" y="253" type="line"/>
      <point x="310" y="253" type="line"/>
      <point x="322" y="328" type="line"/>
      <point x="194" y="328" type="line"/>
      <point x="264" y="389" type="line" smooth="yes"/>
      <point x="323" y="443"/>
      <point x="342" y="484"/>
      <point x="342" y="533" type="curve" smooth="yes"/>
      <point x="342" y="579"/>
      <point x="316" y="604"/>
      <point x="245" y="604" type="curve" smooth="yes"/>
      <point x="198" y="604"/>
      <point x="161" y="596"/>
      <point x="130" y="591" type="curve"/>
      <point x="120" y="525" type="line"/>
      <point x="216" y="525" type="line" smooth="yes"/>
      <point x="242" y="525"/>
      <point x="252" y="518"/>
      <point x="252" y="502" type="curve" smooth="yes"/>
      <point x="252" y="485"/>
      <point x="237" y="460"/>
      <point x="205" y="431" type="curve" smooth="yes"/>
      <point x="80" y="319" type="line"/>
    </contour>
  </outline>
</glyph>
<glyph name="threesuperior" format="2">
  <advance width="297"/>
  <unicode hex="00B3"/>
  <note>
GF Latin Plus glyph
</note>
  <outline>
    <contour>
      <point x="206" y="250" type="curve" smooth="yes"/>
      <point x="269" y="250"/>
      <point x="312" y="279"/>
      <point x="321" y="335" type="curve" smooth="yes"/>
      <point x="324" y="352" type="line" smooth="yes"/>
      <point x="325" y="359"/>
      <point x="326" y="365"/>
      <point x="326" y="372" type="curve" smooth="yes"/>
      <point x="326" y="401"/>
      <point x="312" y="421"/>
      <point x="290" y="428" type="curve"/>
      <point x="319" y="437"/>
      <point x="336" y="458"/>
      <point x="342" y="492" type="curve" smooth="yes"/>
      <point x="346" y="516" type="line" smooth="yes"/>
      <point x="347" y="523"/>
      <point x="347" y="529"/>
      <point x="347" y="535" type="curve" smooth="yes"/>
      <point x="347" y="581"/>
      <point x="315" y="604"/>
      <point x="261" y="604" type="curve" smooth="yes"/>
      <point x="215" y="604"/>
      <point x="171" y="599"/>
      <point x="127" y="591" type="curve"/>
      <point x="116" y="525" type="line"/>
      <point x="214" y="525" type="line" smooth="yes"/>
      <point x="247" y="525"/>
      <point x="259" y="518"/>
      <point x="259" y="504" type="curve" smooth="yes"/>
      <point x="259" y="503"/>
      <point x="259" y="501"/>
      <point x="259" y="499" type="curve" smooth="yes"/>
      <point x="257" y="488" type="line" smooth="yes"/>
      <point x="254" y="472"/>
      <point x="239" y="466"/>
      <point x="213" y="465" type="curve" smooth="yes"/>
      <point x="131" y="460" type="line"/>
      <point x="120" y="396" type="line"/>
      <point x="206" y="392" type="line" smooth="yes"/>
      <point x="227" y="391"/>
      <point x="242" y="385"/>
      <point x="242" y="369" type="curve" smooth="yes"/>
      <point x="242" y="367"/>
      <point x="242" y="365"/>
      <point x="241" y="363" type="curve" smooth="yes"/>
      <point x="239" y="352" type="line" smooth="yes"/>
      <point x="237" y="334"/>
      <point x="223" y="329"/>
      <point x="185" y="329" type="curve" smooth="yes"/>
      <point x="80" y="329" type="line"/>
      <point x="69" y="262" type="line"/>
      <point x="107" y="255"/>
      <point x="155" y="250"/>
    </contour>
  </outline>
</glyph>
<glyph name="acute" format="2">
  <advance width="166"/>
  <unicode hex="00B4"/>
  <note>
GF Latin Plus glyph
</note>
  <outline>
    <contour>
      <point x="82" y="450" type="line"/>
      <point x="149" y="450" type="line"/>
      <point x="242" y="550" type="line"/>
      <point x="151" y="550" type="line"/>
    </contour>
  </outline>
</glyph>
<glyph name="paragraph" format="2">
  <advance width="409"/>
  <unicode hex="00B6"/>
  <note>
GF Latin Plus glyph
</note>
  <outline>
    <contour>
      <point x="146" y="-192" type="line"/>
      <point x="216" y="-192" type="line"/>
      <point x="319" y="459" type="line"/>
      <point x="369" y="459" type="line"/>
      <point x="297" y="0" type="line"/>
      <point x="366" y="0" type="line"/>
      <point x="439" y="457" type="line"/>
      <point x="482" y="457" type="line"/>
      <point x="493" y="528" type="line"/>
      <point x="217" y="528" type="line" smooth="yes"/>
      <point x="152" y="528"/>
      <point x="98" y="496"/>
      <point x="88" y="428" type="curve" smooth="yes"/>
      <point x="72" y="332" type="line" smooth="yes"/>
      <point x="69" y="315"/>
      <point x="69" y="308"/>
      <point x="69" y="301" type="curve" smooth="yes"/>
      <point x="69" y="254"/>
      <point x="96" y="218"/>
      <point x="160" y="218" type="curve" smooth="yes"/>
      <point x="186" y="218"/>
      <point x="205" y="223"/>
      <point x="214" y="229" type="curve"/>
    </contour>
    <contour>
      <point x="183" y="287" type="line" smooth="yes"/>
      <point x="161" y="287"/>
      <point x="140" y="291"/>
      <point x="140" y="320" type="curve" smooth="yes"/>
      <point x="140" y="324"/>
      <point x="141" y="331"/>
      <point x="143" y="342" type="curve" smooth="yes"/>
      <point x="154" y="410" type="line" smooth="yes"/>
      <point x="159" y="444"/>
      <point x="174" y="459"/>
      <point x="211" y="459" type="curve" smooth="yes"/>
      <point x="250" y="459" type="line"/>
      <point x="222" y="287" type="line"/>
    </contour>
  </outline>
</glyph>
<glyph name="periodcentered" format="2">
  <advance width="187"/>
  <unicode hex="00B7"/>
  <note>
GF Latin Plus glyph
</note>
  <outline>
    <contour>
      <point x="91" y="229" type="curve" smooth="yes"/>
      <point x="152" y="229" type="line" smooth="yes"/>
      <point x="161" y="229"/>
      <point x="167" y="232"/>
      <point x="169" y="243" type="curve" smooth="yes"/>
      <point x="180" y="306" type="line" smooth="yes"/>
      <point x="181" y="316"/>
      <point x="178" y="322"/>
      <point x="167" y="322" type="curve" smooth="yes"/>
      <point x="106" y="322" type="line" smooth="yes"/>
      <point x="96" y="322"/>
      <point x="89" y="316"/>
      <point x="88" y="306" type="curve" smooth="yes"/>
      <point x="78" y="243" type="line" smooth="yes"/>
      <point x="77" y="234"/>
      <point x="82" y="229"/>
    </contour>
  </outline>
</glyph>
<glyph name="cedilla" format="2">
  <advance width="175"/>
  <unicode hex="00B8"/>
  <note>
GF Latin Plus glyph
</note>
  <outline>
    <contour>
      <point x="5" y="-141" type="line"/>
      <point x="40" y="-141" type="line" smooth="yes"/>
      <point x="100" y="-141"/>
      <point x="125" y="-109"/>
      <point x="125" y="-79" type="curve" smooth="yes"/>
      <point x="125" y="-48"/>
      <point x="103" y="-35"/>
      <point x="73" y="-35" type="curve"/>
      <point x="30" y="-45" type="line"/>
      <point x="52" y="-48"/>
      <point x="58" y="-57"/>
      <point x="58" y="-67" type="curve" smooth="yes"/>
      <point x="58" y="-77"/>
      <point x="49" y="-92"/>
      <point x="25" y="-96" type="curve" smooth="yes"/>
      <point x="12" y="-97" type="line"/>
    </contour>
    <contour>
      <point x="30" y="-45" type="line"/>
      <point x="77" y="-45" type="line"/>
      <point x="123" y="12" type="line"/>
      <point x="75" y="12" type="line"/>
    </contour>
  </outline>
</glyph>
<glyph name="onesuperior" format="2">
  <advance width="297"/>
  <unicode hex="00B9"/>
  <note>
GF Latin Plus glyph
</note>
  <outline>
    <contour>
      <point x="152" y="253" type="line"/>
      <point x="236" y="253" type="line"/>
      <point x="292" y="604" type="line"/>
      <point x="216" y="604" type="line"/>
      <point x="134" y="575" type="line"/>
      <point x="126" y="522" type="line"/>
      <point x="196" y="530" type="line"/>
    </contour>
    <contour>
      <point x="78" y="253" type="line"/>
      <point x="309" y="253" type="line"/>
      <point x="321" y="327" type="line"/>
      <point x="90" y="327" type="line"/>
    </contour>
  </outline>
</glyph>
<glyph name="ordmasculine" format="2">
  <advance width="304"/>
  <unicode hex="00BA"/>
  <note>
GF Latin Plus glyph
</note>
  <outline>
    <component base="o.superior" yOffset="57"/>
    <contour>
      <point x="50" y="181" type="line"/>
      <point x="304" y="181" type="line"/>
      <point x="312" y="231" type="line"/>
      <point x="58" y="231" type="line"/>
    </contour>
  </outline>
</glyph>
<glyph name="AE" format="2">
  <advance width="700"/>
  <unicode hex="00C6"/>
  <note>
GF Latin Plus glyph
</note>
  <anchor x="472" y="578" name="top"/>
  <outline>
    <contour>
      <point x="461" y="-3" type="curve" smooth="yes"/>
      <point x="477" y="-3"/>
      <point x="597" y="0"/>
      <point x="668" y="7" type="curve"/>
      <point x="682" y="95" type="line"/>
      <point x="503" y="95" type="line" smooth="yes"/>
      <point x="477" y="95"/>
      <point x="444" y="97"/>
      <point x="452" y="142" type="curve" smooth="yes"/>
      <point x="463" y="215" type="line"/>
      <point x="668" y="221" type="line"/>
      <point x="681" y="305" type="line"/>
      <point x="478" y="311" type="line"/>
      <point x="488" y="372" type="line" smooth="yes"/>
      <point x="494" y="414"/>
      <point x="499" y="430"/>
      <point x="548" y="430" type="curve" smooth="yes"/>
      <point x="735" y="430" type="line"/>
      <point x="749" y="519" type="line"/>
      <point x="672" y="525"/>
      <point x="596" y="528"/>
      <point x="543" y="528" type="curve" smooth="yes"/>
      <point x="449" y="528"/>
      <point x="364" y="505"/>
      <point x="292" y="401" type="curve" smooth="yes"/>
      <point x="8" y="0" type="line"/>
      <point x="113" y="0" type="line"/>
      <point x="196" y="110" type="line"/>
      <point x="351" y="110" type="line"/>
      <point x="347" y="77" type="line" smooth="yes"/>
      <point x="344" y="13"/>
      <point x="387" y="-4"/>
    </contour>
    <contour>
      <point x="257" y="199" type="line"/>
      <point x="397" y="402" type="line"/>
      <point x="365" y="199" type="line"/>
    </contour>
  </outline>
</glyph>
<glyph name="Eth" format="2">
  <advance width="490"/>
  <unicode hex="00D0"/>
  <note>
GF Latin Plus glyph
</note>
  <outline>
    <component base="D"/>
    <contour>
      <point x="40" y="231" type="line"/>
      <point x="271" y="231" type="line"/>
      <point x="282" y="300" type="line"/>
      <point x="51" y="300" type="line"/>
    </contour>
  </outline>
</glyph>
<glyph name="multiply" format="2">
  <advance width="435"/>
  <unicode hex="00D7"/>
  <note>
GF Latin Plus glyph
</note>
  <outline>
    <contour>
      <point x="153" y="110" type="line"/>
      <point x="415" y="337" type="line"/>
      <point x="365" y="397" type="line"/>
      <point x="103" y="171" type="line"/>
    </contour>
    <contour>
      <point x="319" y="110" type="line"/>
      <point x="389" y="171" type="line"/>
      <point x="199" y="397" type="line"/>
      <point x="129" y="337" type="line"/>
    </contour>
  </outline>
</glyph>
<glyph name="Oslash" format="2">
  <advance width="499"/>
  <unicode hex="00D8"/>
  <note>
GF Latin Plus glyph
</note>
  <outline>
    <component base="O"/>
    <contour>
      <point x="30" y="0" type="line"/>
      <point x="90" y="0" type="line"/>
      <point x="552" y="528" type="line"/>
      <point x="492" y="528" type="line"/>
    </contour>
  </outline>
</glyph>
<glyph name="Thorn" format="2">
  <advance width="406"/>
  <unicode hex="00DE"/>
  <note>
GF Latin Plus glyph
</note>
  <outline>
    <contour>
      <point x="44" y="0" type="line"/>
      <point x="150" y="0" type="line"/>
      <point x="233" y="528" type="line"/>
      <point x="127" y="528" type="line"/>
    </contour>
    <contour>
      <point x="261" y="99" type="curve" smooth="yes"/>
      <point x="333" y="99"/>
      <point x="411" y="135"/>
      <point x="429" y="250" type="curve" smooth="yes"/>
      <point x="431" y="267"/>
      <point x="435" y="291"/>
      <point x="435" y="305" type="curve" smooth="yes"/>
      <point x="435" y="409"/>
      <point x="371" y="439"/>
      <point x="290" y="439" type="curve" smooth="yes"/>
      <point x="189" y="439" type="line"/>
      <point x="175" y="344" type="line"/>
      <point x="269" y="344" type="line" smooth="yes"/>
      <point x="307" y="344"/>
      <point x="327" y="331"/>
      <point x="327" y="295" type="curve" smooth="yes"/>
      <point x="327" y="289"/>
      <point x="326" y="274"/>
      <point x="323" y="262" type="curve" smooth="yes"/>
      <point x="317" y="217"/>
      <point x="287" y="195"/>
      <point x="247" y="195" type="curve" smooth="yes"/>
      <point x="157" y="195" type="line"/>
      <point x="144" y="114" type="line"/>
      <point x="177" y="108"/>
      <point x="219" y="99"/>
    </contour>
  </outline>
</glyph>
<glyph name="germandbls" format="2">
  <advance width="432"/>
  <unicode hex="00DF"/>
  <note>
GF Latin Plus glyph
</note>
  <outline>
    <contour>
      <point x="287" y="-4" type="curve" smooth="yes"/>
      <point x="340" y="-4"/>
      <point x="413" y="13"/>
      <point x="426" y="97" type="curve" smooth="yes"/>
      <point x="432" y="131"/>
      <point x="432" y="138"/>
      <point x="432" y="144" type="curve" smooth="yes"/>
      <point x="432" y="214"/>
      <point x="355" y="227"/>
      <point x="355" y="264" type="curve" smooth="yes"/>
      <point x="355" y="306"/>
      <point x="439" y="344"/>
      <point x="439" y="425" type="curve" smooth="yes"/>
      <point x="439" y="489"/>
      <point x="397" y="549"/>
      <point x="289" y="549" type="curve" smooth="yes"/>
      <point x="173" y="549"/>
      <point x="109" y="484"/>
      <point x="96" y="396" type="curve" smooth="yes"/>
      <point x="33" y="0" type="line"/>
      <point x="139" y="0" type="line"/>
      <point x="194" y="349" type="line" smooth="yes"/>
      <point x="207" y="427"/>
      <point x="231" y="455"/>
      <point x="280" y="455" type="curve" smooth="yes"/>
      <point x="319" y="455"/>
      <point x="342" y="438"/>
      <point x="342" y="408" type="curve" smooth="yes"/>
      <point x="342" y="354"/>
      <point x="250" y="305"/>
      <point x="250" y="233" type="curve" smooth="yes"/>
      <point x="250" y="163"/>
      <point x="329" y="157"/>
      <point x="329" y="120" type="curve" smooth="yes"/>
      <point x="329" y="117"/>
      <point x="329" y="112"/>
      <point x="327" y="104" type="curve" smooth="yes"/>
      <point x="325" y="90"/>
      <point x="314" y="75"/>
      <point x="273" y="75" type="curve" smooth="yes"/>
      <point x="247" y="75"/>
      <point x="222" y="75"/>
      <point x="193" y="77" type="curve"/>
      <point x="182" y="6" type="line"/>
      <point x="203" y="0"/>
      <point x="244" y="-4"/>
    </contour>
  </outline>
</glyph>
<glyph name="ae" format="2">
  <advance width="625"/>
  <unicode hex="00E6"/>
  <note>
GF Latin Plus glyph
</note>
  <outline>
    <contour>
      <point x="158" y="-4" type="curve" smooth="yes"/>
      <point x="212" y="-4"/>
      <point x="259" y="17"/>
      <point x="306" y="50" type="curve"/>
      <point x="322" y="16"/>
      <point x="371" y="-4"/>
      <point x="425" y="-4" type="curve" smooth="yes"/>
      <point x="482" y="-4"/>
      <point x="550" y="2"/>
      <point x="592" y="11" type="curve"/>
      <point x="602" y="73" type="line"/>
      <point x="468" y="73" type="line" smooth="yes"/>
      <point x="406" y="73"/>
      <point x="389" y="94"/>
      <point x="389" y="127" type="curve" smooth="yes"/>
      <point x="389" y="135"/>
      <point x="389" y="142"/>
      <point x="391" y="152" type="curve"/>
      <point x="401" y="148"/>
      <point x="445" y="144"/>
      <point x="479" y="144" type="curve" smooth="yes"/>
      <point x="589" y="144"/>
      <point x="639" y="191"/>
      <point x="639" y="270" type="curve" smooth="yes"/>
      <point x="639" y="351"/>
      <point x="588" y="388"/>
      <point x="486" y="388" type="curve" smooth="yes"/>
      <point x="465" y="388"/>
      <point x="402" y="380"/>
      <point x="378" y="360" type="curve"/>
      <point x="342" y="381"/>
      <point x="293" y="387"/>
      <point x="256" y="387" type="curve" smooth="yes"/>
      <point x="140" y="387"/>
      <point x="53" y="315"/>
      <point x="53" y="126" type="curve" smooth="yes"/>
      <point x="53" y="31"/>
      <point x="99" y="-4"/>
    </contour>
    <contour>
      <point x="204" y="81" type="curve" smooth="yes"/>
      <point x="172" y="81"/>
      <point x="158" y="106"/>
      <point x="158" y="146" type="curve" smooth="yes"/>
      <point x="158" y="233"/>
      <point x="186" y="302"/>
      <point x="266" y="302" type="curve" smooth="yes"/>
      <point x="285" y="302"/>
      <point x="308" y="295"/>
      <point x="318" y="290" type="curve"/>
      <point x="296" y="249"/>
      <point x="286" y="194"/>
      <point x="286" y="144" type="curve" smooth="yes"/>
      <point x="286" y="136"/>
      <point x="286" y="127"/>
      <point x="287" y="120" type="curve"/>
      <point x="271" y="102"/>
      <point x="236" y="81"/>
    </contour>
    <contour>
      <point x="455" y="203" type="curve" smooth="yes"/>
      <point x="428" y="203"/>
      <point x="403" y="206"/>
      <point x="398" y="207" type="curve"/>
      <point x="410" y="270"/>
      <point x="427" y="307"/>
      <point x="488" y="307" type="curve" smooth="yes"/>
      <point x="522" y="307"/>
      <point x="541" y="290"/>
      <point x="541" y="258" type="curve" smooth="yes"/>
      <point x="541" y="226"/>
      <point x="516" y="203"/>
    </contour>
  </outline>
</glyph>
<glyph name="eth" format="2">
  <advance width="409"/>
  <unicode hex="00F0"/>
  <note>
GF Latin Plus glyph
</note>
  <outline>
    <contour>
      <point x="57" y="191" type="curve" smooth="yes"/>
      <point x="54" y="171"/>
      <point x="53" y="152"/>
      <point x="53" y="129" type="curve" smooth="yes"/>
      <point x="53" y="40"/>
      <point x="105" y="-4"/>
      <point x="204" y="-4" type="curve" smooth="yes"/>
      <point x="327" y="-4"/>
      <point x="388" y="30"/>
      <point x="410" y="173" type="curve" smooth="yes"/>
      <point x="398" y="202"/>
      <point x="385" y="233"/>
      <point x="372" y="263" type="curve" smooth="yes"/>
      <point x="372" y="331"/>
      <point x="315" y="377"/>
      <point x="239" y="377" type="curve" smooth="yes"/>
      <point x="135" y="377"/>
      <point x="81" y="345"/>
    </contour>
    <contour>
      <point x="161" y="175" type="curve" smooth="yes"/>
      <point x="175" y="272"/>
      <point x="194" y="294"/>
      <point x="250" y="294" type="curve" smooth="yes"/>
      <point x="292" y="294"/>
      <point x="310" y="281"/>
      <point x="310" y="246" type="curve" smooth="yes"/>
      <point x="310" y="229"/>
      <point x="307" y="210"/>
      <point x="304" y="187" type="curve" smooth="yes"/>
      <point x="290" y="99"/>
      <point x="270" y="80"/>
      <point x="215" y="80" type="curve" smooth="yes"/>
      <point x="178" y="80"/>
      <point x="158" y="91"/>
      <point x="158" y="133" type="curve" smooth="yes"/>
      <point x="158" y="146"/>
      <point x="159" y="159"/>
    </contour>
    <contour>
      <point x="160" y="545" type="curve"/>
      <point x="149" y="476" type="line"/>
      <point x="277" y="475"/>
      <point x="337" y="441"/>
      <point x="337" y="325" type="curve" smooth="yes"/>
      <point x="337" y="297"/>
      <point x="334" y="266"/>
      <point x="329" y="230" type="curve"/>
      <point x="410" y="173" type="line"/>
      <point x="418" y="229"/>
      <point x="423" y="277"/>
      <point x="423" y="320" type="curve" smooth="yes"/>
      <point x="423" y="483"/>
      <point x="337" y="544"/>
    </contour>
    <contour>
      <point x="433" y="542" type="line"/>
      <point x="163" y="435" type="line"/>
      <point x="173" y="402" type="line"/>
      <point x="442" y="509" type="line"/>
    </contour>
  </outline>
</glyph>
<glyph name="divide" format="2">
  <advance width="435"/>
  <unicode hex="00F7"/>
  <note>
GF Latin Plus glyph
</note>
  <outline>
    <component base="minus"/>
    <contour>
      <point x="198" y="62" type="curve" smooth="yes"/>
      <point x="259" y="62" type="line" smooth="yes"/>
      <point x="269" y="62"/>
      <point x="277" y="66"/>
      <point x="279" y="78" type="curve" smooth="yes"/>
      <point x="288" y="134" type="line" smooth="yes"/>
      <point x="290" y="146"/>
      <point x="286" y="152"/>
      <point x="273" y="152" type="curve" smooth="yes"/>
      <point x="212" y="152" type="line" smooth="yes"/>
      <point x="201" y="152"/>
      <point x="194" y="145"/>
      <point x="192" y="134" type="curve" smooth="yes"/>
      <point x="183" y="78" type="line" smooth="yes"/>
      <point x="182" y="68"/>
      <point x="188" y="62"/>
    </contour>
    <contour>
      <point x="245" y="355" type="curve" smooth="yes"/>
      <point x="305" y="355" type="line" smooth="yes"/>
      <point x="315" y="355"/>
      <point x="323" y="359"/>
      <point x="326" y="372" type="curve" smooth="yes"/>
      <point x="335" y="428" type="line" smooth="yes"/>
      <point x="336" y="439"/>
      <point x="333" y="446"/>
      <point x="320" y="446" type="curve" smooth="yes"/>
      <point x="259" y="446" type="line" smooth="yes"/>
      <point x="248" y="446"/>
      <point x="240" y="438"/>
      <point x="239" y="428" type="curve" smooth="yes"/>
      <point x="230" y="372" type="line" smooth="yes"/>
      <point x="228" y="362"/>
      <point x="235" y="355"/>
    </contour>
  </outline>
</glyph>
<glyph name="oslash" format="2">
  <advance width="407"/>
  <unicode hex="00F8"/>
  <note>
GF Latin Plus glyph
</note>
  <anchor x="248" y="464" name="top"/>
  <outline>
    <component base="o"/>
    <contour>
      <point x="21" y="0" type="line"/>
      <point x="70" y="0" type="line"/>
      <point x="446" y="383" type="line"/>
      <point x="397" y="383" type="line"/>
    </contour>
  </outline>
</glyph>
<glyph name="thorn" format="2">
  <advance width="410"/>
  <unicode hex="00FE"/>
  <note>
GF Latin Plus glyph
</note>
  <outline>
    <contour>
      <point x="10" y="-169" type="line"/>
      <point x="117" y="-169" type="line"/>
      <point x="145" y="11" type="line"/>
      <point x="166" y="0"/>
      <point x="197" y="-4"/>
      <point x="230" y="-4" type="curve" smooth="yes"/>
      <point x="322" y="-4"/>
      <point x="389" y="53"/>
      <point x="408" y="174" type="curve" smooth="yes"/>
      <point x="412" y="200"/>
      <point x="416" y="227"/>
      <point x="416" y="251" type="curve" smooth="yes"/>
      <point x="416" y="341"/>
      <point x="380" y="387"/>
      <point x="289" y="387" type="curve" smooth="yes"/>
      <point x="257" y="387"/>
      <point x="228" y="386"/>
      <point x="205" y="384" type="curve"/>
      <point x="230" y="545" type="line"/>
      <point x="124" y="545" type="line"/>
    </contour>
    <contour>
      <point x="217" y="85" type="curve" smooth="yes"/>
      <point x="192" y="85"/>
      <point x="177" y="88"/>
      <point x="158" y="95" type="curve"/>
      <point x="191" y="302" type="line"/>
      <point x="259" y="302" type="line" smooth="yes"/>
      <point x="296" y="302"/>
      <point x="311" y="279"/>
      <point x="311" y="232" type="curve" smooth="yes"/>
      <point x="311" y="220"/>
      <point x="309" y="206"/>
      <point x="307" y="194" type="curve" smooth="yes"/>
      <point x="294" y="117"/>
      <point x="268" y="85"/>
    </contour>
  </outline>
</glyph>
<glyph name="dotlessi" format="2">
  <advance width="182"/>
  <unicode hex="0131"/>
  <note>
GF Latin Plus glyph
</note>
  <outline>
    <contour>
      <point x="38" y="0" type="line"/>
      <point x="144" y="0" type="line"/>
      <point x="205" y="383" type="line"/>
      <point x="99" y="383" type="line"/>
    </contour>
  </outline>
</glyph>
<glyph name="oe" format="2">
  <advance width="639"/>
  <unicode hex="0153"/>
  <note>
GF Latin Plus glyph
</note>
  <outline>
    <contour>
      <point x="199" y="-4" type="curve" smooth="yes"/>
      <point x="266" y="-4"/>
      <point x="308" y="17"/>
      <point x="343" y="53" type="curve"/>
      <point x="364" y="16"/>
      <point x="400" y="-4"/>
      <point x="471" y="-4" type="curve" smooth="yes"/>
      <point x="517" y="-4"/>
      <point x="571" y="3"/>
      <point x="608" y="11" type="curve"/>
      <point x="618" y="73" type="line"/>
      <point x="495" y="73" type="line" smooth="yes"/>
      <point x="434" y="73"/>
      <point x="405" y="89"/>
      <point x="405" y="126" type="curve" smooth="yes"/>
      <point x="405" y="134"/>
      <point x="406" y="144"/>
      <point x="407" y="152" type="curve"/>
      <point x="424" y="148"/>
      <point x="454" y="144"/>
      <point x="489" y="144" type="curve" smooth="yes"/>
      <point x="578" y="144"/>
      <point x="655" y="166"/>
      <point x="655" y="274" type="curve" smooth="yes"/>
      <point x="655" y="366"/>
      <point x="587" y="388"/>
      <point x="514" y="388" type="curve" smooth="yes"/>
      <point x="454" y="388"/>
      <point x="412" y="366"/>
      <point x="380" y="322" type="curve"/>
      <point x="356" y="365"/>
      <point x="317" y="387"/>
      <point x="260" y="387" type="curve" smooth="yes"/>
      <point x="140" y="387"/>
      <point x="83" y="355"/>
      <point x="59" y="201" type="curve" smooth="yes"/>
      <point x="55" y="178"/>
      <point x="53" y="156"/>
      <point x="53" y="129" type="curve" smooth="yes"/>
      <point x="53" y="40"/>
      <point x="103" y="-4"/>
    </contour>
    <contour>
      <point x="215" y="80" type="curve" smooth="yes"/>
      <point x="178" y="80"/>
      <point x="158" y="92"/>
      <point x="158" y="133" type="curve" smooth="yes"/>
      <point x="158" y="149"/>
      <point x="160" y="165"/>
      <point x="163" y="186" type="curve" smooth="yes"/>
      <point x="177" y="283"/>
      <point x="195" y="304"/>
      <point x="251" y="304" type="curve" smooth="yes"/>
      <point x="293" y="304"/>
      <point x="310" y="291"/>
      <point x="310" y="252" type="curve" smooth="yes"/>
      <point x="310" y="234"/>
      <point x="308" y="213"/>
      <point x="304" y="186" type="curve" smooth="yes"/>
      <point x="290" y="99"/>
      <point x="268" y="80"/>
    </contour>
    <contour>
      <point x="462" y="203" type="curve" smooth="yes"/>
      <point x="445" y="203"/>
      <point x="428" y="205"/>
      <point x="414" y="208" type="curve"/>
      <point x="424" y="272"/>
      <point x="448" y="307"/>
      <point x="502" y="307" type="curve" smooth="yes"/>
      <point x="539" y="307"/>
      <point x="557" y="292"/>
      <point x="557" y="262" type="curve" smooth="yes"/>
      <point x="557" y="220"/>
      <point x="528" y="203"/>
    </contour>
  </outline>
</glyph>
<glyph name="florin" format="2">
  <advance width="435"/>
  <unicode hex="0192"/>
  <note>
GF Latin Plus glyph
</note>
  <outline>
    <contour>
      <point x="67" y="-145" type="curve" smooth="yes"/>
      <point x="156" y="-145"/>
      <point x="206" y="-75"/>
      <point x="252" y="62" type="curve" smooth="yes"/>
      <point x="319" y="267" type="line"/>
      <point x="394" y="267" type="line"/>
      <point x="417" y="341" type="line"/>
      <point x="340" y="341" type="line"/>
      <point x="363" y="408" type="line" smooth="yes"/>
      <point x="381" y="462"/>
      <point x="400" y="491"/>
      <point x="447" y="491" type="curve" smooth="yes"/>
      <point x="482" y="491" type="line"/>
      <point x="502" y="556" type="line"/>
      <point x="492" y="561"/>
      <point x="470" y="571"/>
      <point x="423" y="571" type="curve" smooth="yes"/>
      <point x="338" y="571"/>
      <point x="293" y="514"/>
      <point x="267" y="436" type="curve" smooth="yes"/>
      <point x="234" y="342" type="line"/>
      <point x="176" y="342" type="line"/>
      <point x="152" y="267" type="line"/>
      <point x="213" y="267" type="line"/>
      <point x="138" y="36" type="line" smooth="yes"/>
      <point x="113" y="-39"/>
      <point x="89" y="-66"/>
      <point x="45" y="-66" type="curve" smooth="yes"/>
      <point x="10" y="-66" type="line"/>
      <point x="-9" y="-131" type="line"/>
      <point x="2" y="-138"/>
      <point x="30" y="-145"/>
    </contour>
  </outline>
</glyph>
<glyph name="glottalstopsmall" format="2">
  <advance width="302"/>
  <unicode hex="0242"/>
  <outline>
    <contour>
      <point x="294" y="273" type="curve" smooth="yes"/>
      <point x="294" y="320"/>
      <point x="254" y="357"/>
      <point x="164" y="357" type="curve" smooth="yes"/>
      <point x="79" y="357"/>
      <point x="42" y="312"/>
      <point x="42" y="283" type="curve" smooth="yes"/>
      <point x="42" y="254"/>
      <point x="59" y="232"/>
      <point x="84" y="232" type="curve" smooth="yes"/>
      <point x="95" y="232"/>
      <point x="109" y="241"/>
      <point x="109" y="241" type="curve"/>
      <point x="144" y="313" type="line"/>
      <point x="149" y="317"/>
      <point x="163" y="320"/>
      <point x="172" y="320" type="curve" smooth="yes"/>
      <point x="190" y="320"/>
      <point x="197" y="307"/>
      <point x="197" y="282" type="curve" smooth="yes"/>
      <point x="197" y="212"/>
      <point x="160" y="175"/>
      <point x="89" y="159" type="curve"/>
      <point x="67" y="44" type="line" smooth="yes"/>
      <point x="66" y="38"/>
      <point x="62" y="35"/>
      <point x="57" y="35" type="curve" smooth="yes"/>
      <point x="57" y="35"/>
      <point x="31" y="34"/>
      <point x="13" y="33" type="curve"/>
      <point x="13" y="0" type="line"/>
      <point x="208" y="0" type="line"/>
      <point x="208" y="33" type="line"/>
      <point x="192" y="34"/>
      <point x="169" y="35"/>
      <point x="169" y="35" type="curve"/>
      <point x="163" y="35"/>
      <point x="161" y="38"/>
      <point x="162" y="44" type="curve" smooth="yes"/>
      <point x="182" y="148" type="line"/>
      <point x="244" y="168"/>
      <point x="294" y="202"/>
    </contour>
  </outline>
</glyph>
<glyph name="glottalstop" format="2">
  <advance width="342"/>
  <unicode hex="0294"/>
  <outline>
    <contour>
      <point x="352" y="381" type="curve" smooth="yes"/>
      <point x="352" y="459"/>
      <point x="282" y="490"/>
      <point x="214" y="490" type="curve" smooth="yes"/>
      <point x="160" y="490"/>
      <point x="69" y="470"/>
      <point x="69" y="401" type="curve" smooth="yes"/>
      <point x="69" y="381"/>
      <point x="85" y="372"/>
      <point x="102" y="372" type="curve" smooth="yes"/>
      <point x="113" y="372"/>
      <point x="124" y="374"/>
      <point x="134" y="379" type="curve"/>
      <point x="172" y="440" type="line"/>
      <point x="184" y="446"/>
      <point x="193" y="447"/>
      <point x="206" y="447" type="curve" smooth="yes"/>
      <point x="242" y="447"/>
      <point x="254" y="413"/>
      <point x="254" y="382" type="curve" smooth="yes"/>
      <point x="254" y="299"/>
      <point x="175" y="237"/>
      <point x="101" y="216" type="curve"/>
      <point x="70" y="57" type="line" smooth="yes"/>
      <point x="68" y="47"/>
      <point x="58" y="40"/>
      <point x="47" y="39" type="curve" smooth="yes"/>
      <point x="4" y="36" type="line"/>
      <point x="4" y="0" type="line"/>
      <point x="225" y="0" type="line"/>
      <point x="225" y="36" type="line"/>
      <point x="183" y="39" type="line" smooth="yes"/>
      <point x="169" y="40"/>
      <point x="163" y="47"/>
      <point x="164" y="57" type="curve"/>
      <point x="164" y="57"/>
      <point x="188" y="175"/>
      <point x="194" y="205" type="curve"/>
      <point x="275" y="222"/>
      <point x="352" y="295"/>
    </contour>
  </outline>
</glyph>
<glyph name="glottalstopmod" format="2">
  <advance width="222"/>
  <unicode hex="02C0"/>
  <outline>
    <contour>
      <point x="263" y="502" type="curve" smooth="yes"/>
      <point x="263" y="548"/>
      <point x="218" y="567"/>
      <point x="174" y="567" type="curve" smooth="yes"/>
      <point x="139" y="567"/>
      <point x="79" y="555"/>
      <point x="79" y="514" type="curve" smooth="yes"/>
      <point x="79" y="502"/>
      <point x="89" y="497"/>
      <point x="101" y="497" type="curve" smooth="yes"/>
      <point x="108" y="497"/>
      <point x="116" y="498"/>
      <point x="122" y="500" type="curve"/>
      <point x="147" y="537" type="line"/>
      <point x="154" y="541"/>
      <point x="160" y="541"/>
      <point x="169" y="541" type="curve" smooth="yes"/>
      <point x="192" y="541"/>
      <point x="200" y="522"/>
      <point x="200" y="503" type="curve" smooth="yes"/>
      <point x="200" y="453"/>
      <point x="149" y="416"/>
      <point x="100" y="403" type="curve"/>
      <point x="79" y="307" type="line"/>
      <point x="79" y="302"/>
      <point x="72" y="297"/>
      <point x="65" y="297" type="curve" smooth="yes"/>
      <point x="38" y="295" type="line"/>
      <point x="38" y="273" type="line"/>
      <point x="181" y="273" type="line"/>
      <point x="181" y="295" type="line"/>
      <point x="154" y="297" type="line" smooth="yes"/>
      <point x="145" y="297"/>
      <point x="140" y="301"/>
      <point x="142" y="307" type="curve"/>
      <point x="142" y="307"/>
      <point x="157" y="378"/>
      <point x="161" y="397" type="curve"/>
      <point x="214" y="406"/>
      <point x="263" y="450"/>
    </contour>
  </outline>
</glyph>
<glyph name="circumflex" format="2">
  <advance width="275"/>
  <unicode hex="02C6"/>
  <note>
GF Latin Plus glyph
</note>
  <outline>
    <contour>
      <point x="99" y="450" type="line"/>
      <point x="161" y="450" type="line"/>
      <point x="219" y="504" type="line"/>
      <point x="258" y="450" type="line"/>
      <point x="319" y="450" type="line"/>
      <point x="264" y="551" type="line"/>
      <point x="192" y="551" type="line"/>
    </contour>
  </outline>
</glyph>
<glyph name="caron" format="2">
  <advance width="275"/>
  <unicode hex="02C7"/>
  <note>
GF Latin Plus glyph
</note>
  <outline>
    <contour>
      <point x="169" y="450" type="line"/>
      <point x="241" y="450" type="line"/>
      <point x="335" y="551" type="line"/>
      <point x="273" y="551" type="line"/>
      <point x="214" y="497" type="line"/>
      <point x="176" y="551" type="line"/>
      <point x="115" y="551" type="line"/>
    </contour>
  </outline>
</glyph>
<glyph name="colontriangularmod" format="2">
  <advance width="174"/>
  <unicode hex="02D0"/>
  <outline>
    <contour>
      <point x="194" y="354" type="line"/>
      <point x="44" y="354" type="line"/>
      <point x="59" y="219" type="line"/>
      <point x="124" y="219" type="line"/>
    </contour>
    <contour>
      <point x="124" y="0" type="line"/>
      <point x="107" y="134" type="line"/>
      <point x="43" y="134" type="line"/>
      <point x="-25" y="0" type="line"/>
    </contour>
  </outline>
</glyph>
<glyph name="breve" format="2">
  <advance width="250"/>
  <unicode hex="02D8"/>
  <note>
GF Latin Plus glyph
</note>
  <outline>
    <contour>
      <point x="195" y="445" type="curve" smooth="yes"/>
      <point x="257" y="445"/>
      <point x="301" y="477"/>
      <point x="312" y="553" type="curve"/>
      <point x="262" y="553" type="line"/>
      <point x="255" y="508"/>
      <point x="231" y="493"/>
      <point x="202" y="493" type="curve" smooth="yes"/>
      <point x="180" y="493"/>
      <point x="160" y="504"/>
      <point x="160" y="536" type="curve" smooth="yes"/>
      <point x="160" y="541"/>
      <point x="161" y="547"/>
      <point x="162" y="553" type="curve"/>
      <point x="113" y="553" type="line"/>
      <point x="111" y="542"/>
      <point x="110" y="533"/>
      <point x="110" y="524" type="curve" smooth="yes"/>
      <point x="110" y="470"/>
      <point x="142" y="445"/>
    </contour>
  </outline>
</glyph>
<glyph name="dotaccent" format="2">
  <advance width="133"/>
  <unicode hex="02D9"/>
  <note>
GF Latin Plus glyph
</note>
  <outline>
    <contour>
      <point x="113" y="455" type="curve" smooth="yes"/>
      <point x="162" y="455" type="line" smooth="yes"/>
      <point x="171" y="455"/>
      <point x="177" y="460"/>
      <point x="179" y="469" type="curve" smooth="yes"/>
      <point x="190" y="539" type="line" smooth="yes"/>
      <point x="190" y="540"/>
      <point x="190" y="542"/>
      <point x="190" y="542" type="curve" smooth="yes"/>
      <point x="190" y="549"/>
      <point x="186" y="554"/>
      <point x="178" y="554" type="curve" smooth="yes"/>
      <point x="128" y="554" type="line" smooth="yes"/>
      <point x="119" y="554"/>
      <point x="113" y="548"/>
      <point x="112" y="539" type="curve" smooth="yes"/>
      <point x="100" y="469" type="line" smooth="yes"/>
      <point x="100" y="468"/>
      <point x="100" y="467"/>
      <point x="100" y="467" type="curve" smooth="yes"/>
      <point x="100" y="459"/>
      <point x="105" y="455"/>
    </contour>
  </outline>
</glyph>
<glyph name="ring" format="2">
  <advance width="231"/>
  <unicode hex="02DA"/>
  <note>
GF Latin Plus glyph
</note>
  <outline>
    <contour>
      <point x="184" y="418" type="curve" smooth="yes"/>
      <point x="250" y="418"/>
      <point x="284" y="458"/>
      <point x="284" y="510" type="curve" smooth="yes"/>
      <point x="284" y="561"/>
      <point x="255" y="580"/>
      <point x="206" y="580" type="curve" smooth="yes"/>
      <point x="140" y="580"/>
      <point x="105" y="538"/>
      <point x="105" y="487" type="curve" smooth="yes"/>
      <point x="105" y="436"/>
      <point x="135" y="418"/>
    </contour>
    <contour>
      <point x="189" y="457" type="curve" smooth="yes"/>
      <point x="169" y="457"/>
      <point x="154" y="465"/>
      <point x="154" y="489" type="curve" smooth="yes"/>
      <point x="154" y="516"/>
      <point x="168" y="541"/>
      <point x="201" y="541" type="curve" smooth="yes"/>
      <point x="220" y="541"/>
      <point x="235" y="533"/>
      <point x="235" y="508" type="curve" smooth="yes"/>
      <point x="235" y="481"/>
      <point x="221" y="457"/>
    </contour>
  </outline>
</glyph>
<glyph name="ogonek" format="2">
  <advance width="152"/>
  <unicode hex="02DB"/>
  <note>
GF Latin Plus glyph
</note>
  <outline>
    <contour>
      <point x="80" y="-137" type="curve" smooth="yes"/>
      <point x="90" y="-137"/>
      <point x="99" y="-136"/>
      <point x="104" y="-134" type="curve"/>
      <point x="112" y="-84" type="line"/>
      <point x="105" y="-84" type="line" smooth="yes"/>
      <point x="83" y="-84"/>
      <point x="69" y="-73"/>
      <point x="69" y="-54" type="curve" smooth="yes"/>
      <point x="69" y="-41"/>
      <point x="80" y="-17"/>
      <point x="112" y="0" type="curve"/>
      <point x="74" y="0" type="line"/>
      <point x="36" y="-18"/>
      <point x="14" y="-48"/>
      <point x="14" y="-83" type="curve" smooth="yes"/>
      <point x="14" y="-111"/>
      <point x="32" y="-137"/>
    </contour>
  </outline>
</glyph>
<glyph name="tilde" format="2">
  <advance width="301"/>
  <unicode hex="02DC"/>
  <note>
GF Latin Plus glyph
</note>
  <outline>
    <contour>
      <point x="94" y="453" type="curve"/>
      <point x="146" y="453" type="line"/>
      <point x="151" y="470"/>
      <point x="163" y="483"/>
      <point x="181" y="483" type="curve" smooth="yes"/>
      <point x="207" y="483"/>
      <point x="242" y="454"/>
      <point x="283" y="454" type="curve" smooth="yes"/>
      <point x="328" y="454"/>
      <point x="355" y="481"/>
      <point x="371" y="545" type="curve"/>
      <point x="318" y="545" type="line"/>
      <point x="315" y="524"/>
      <point x="302" y="512"/>
      <point x="284" y="512" type="curve" smooth="yes"/>
      <point x="255" y="512"/>
      <point x="226" y="541"/>
      <point x="183" y="541" type="curve" smooth="yes"/>
      <point x="144" y="541"/>
      <point x="109" y="520"/>
    </contour>
  </outline>
</glyph>
<glyph name="hungarumlaut" format="2">
  <advance width="284"/>
  <unicode hex="02DD"/>
  <note>
GF Latin Plus glyph
</note>
  <outline>
    <contour>
      <point x="199" y="450" type="line"/>
      <point x="261" y="450" type="line"/>
      <point x="349" y="550" type="line"/>
      <point x="268" y="550" type="line"/>
    </contour>
    <contour>
      <point x="82" y="450" type="line"/>
      <point x="144" y="450" type="line"/>
      <point x="232" y="550" type="line"/>
      <point x="151" y="550" type="line"/>
    </contour>
  </outline>
</glyph>
<glyph name="dieresiscomb" format="2">
  <unicode hex="0308"/>
  <note>
GF Latin Plus glyph
</note>
  <outline>
    <contour>
      <point x="-146" y="455" type="curve" smooth="yes"/>
      <point x="-97" y="455" type="line" smooth="yes"/>
      <point x="-88" y="455"/>
      <point x="-81" y="460"/>
      <point x="-80" y="469" type="curve" smooth="yes"/>
      <point x="-69" y="540"/>
      <point x="-69" y="542"/>
      <point x="-69" y="542" type="curve" smooth="yes"/>
      <point x="-69" y="549"/>
      <point x="-72" y="554"/>
      <point x="-81" y="554" type="curve" smooth="yes"/>
      <point x="-130" y="554" type="line" smooth="yes"/>
      <point x="-140" y="554"/>
      <point x="-145" y="548"/>
      <point x="-147" y="539" type="curve" smooth="yes"/>
      <point x="-158" y="468"/>
      <point x="-158" y="467"/>
      <point x="-158" y="467" type="curve" smooth="yes"/>
      <point x="-158" y="459"/>
      <point x="-153" y="455"/>
    </contour>
    <contour>
      <point x="-289" y="455" type="curve" smooth="yes"/>
      <point x="-240" y="455" type="line" smooth="yes"/>
      <point x="-231" y="455"/>
      <point x="-224" y="460"/>
      <point x="-223" y="469" type="curve" smooth="yes"/>
      <point x="-212" y="540"/>
      <point x="-211" y="542"/>
      <point x="-211" y="542" type="curve" smooth="yes"/>
      <point x="-211" y="549"/>
      <point x="-215" y="554"/>
      <point x="-224" y="554" type="curve" smooth="yes"/>
      <point x="-273" y="554" type="line" smooth="yes"/>
      <point x="-283" y="554"/>
      <point x="-288" y="548"/>
      <point x="-289" y="539" type="curve" smooth="yes"/>
      <point x="-301" y="468"/>
      <point x="-301" y="467"/>
      <point x="-301" y="467" type="curve" smooth="yes"/>
      <point x="-301" y="459"/>
      <point x="-296" y="455"/>
    </contour>
  </outline>
</glyph>
<glyph name="Omegagreek" format="2">
  <advance width="544"/>
  <unicode hex="03A9"/>
  <outline>
    <contour>
      <point x="30" y="0" type="line"/>
      <point x="227" y="0" type="line"/>
      <point x="242" y="91" type="line"/>
      <point x="204" y="135"/>
      <point x="181" y="181"/>
      <point x="181" y="235" type="curve" smooth="yes"/>
      <point x="181" y="324"/>
      <point x="212" y="432"/>
      <point x="335" y="432" type="curve" smooth="yes"/>
      <point x="422" y="432"/>
      <point x="448" y="378"/>
      <point x="448" y="322" type="curve" smooth="yes"/>
      <point x="448" y="240"/>
      <point x="413" y="154"/>
      <point x="334" y="91" type="curve"/>
      <point x="319" y="0" type="line"/>
      <point x="517" y="0" type="line"/>
      <point x="531" y="85" type="line"/>
      <point x="433" y="91" type="line"/>
      <point x="507" y="153"/>
      <point x="556" y="247"/>
      <point x="556" y="343" type="curve" smooth="yes"/>
      <point x="556" y="446"/>
      <point x="500" y="527"/>
      <point x="348" y="527" type="curve" smooth="yes"/>
      <point x="143" y="527"/>
      <point x="77" y="368"/>
      <point x="77" y="249" type="curve" smooth="yes"/>
      <point x="77" y="181"/>
      <point x="104" y="126"/>
      <point x="143" y="92" type="curve"/>
      <point x="43" y="85" type="line"/>
    </contour>
  </outline>
</glyph>
<glyph name="pi" format="2">
  <advance width="455"/>
  <unicode hex="03C0"/>
  <outline>
    <contour>
      <point x="346" y="-4" type="curve" smooth="yes"/>
      <point x="382" y="-4"/>
      <point x="406" y="5"/>
      <point x="423" y="14" type="curve"/>
      <point x="432" y="76" type="line"/>
      <point x="400" y="76" type="line" smooth="yes"/>
      <point x="381" y="76"/>
      <point x="371" y="81"/>
      <point x="371" y="101" type="curve" smooth="yes"/>
      <point x="371" y="104"/>
      <point x="371" y="109"/>
      <point x="372" y="114" type="curve" smooth="yes"/>
      <point x="399" y="287" type="line"/>
      <point x="460" y="287" type="line"/>
      <point x="475" y="383" type="line"/>
      <point x="71" y="383" type="line"/>
      <point x="56" y="287" type="line"/>
      <point x="113" y="287" type="line"/>
      <point x="67" y="0" type="line"/>
      <point x="173" y="0" type="line"/>
      <point x="219" y="287" type="line"/>
      <point x="293" y="287" type="line"/>
      <point x="265" y="108" type="line" smooth="yes"/>
      <point x="263" y="97"/>
      <point x="262" y="86"/>
      <point x="262" y="77" type="curve" smooth="yes"/>
      <point x="262" y="22"/>
      <point x="291" y="-4"/>
    </contour>
  </outline>
</glyph>
<glyph name="om" format="2">
  <advance width="831"/>
  <unicode hex="0950"/>
  <outline>
    <contour>
      <point x="681" y="656" type="line" smooth="yes"/>
      <point x="683" y="666"/>
      <point x="681" y="673"/>
      <point x="674" y="678" type="curve" smooth="yes"/>
      <point x="671" y="683"/>
      <point x="663" y="686"/>
      <point x="652" y="686" type="curve" smooth="yes"/>
      <point x="581" y="686" type="line" smooth="yes"/>
      <point x="564" y="686"/>
      <point x="547" y="676"/>
      <point x="543" y="656" type="curve" smooth="yes"/>
      <point x="533" y="608" type="line" smooth="yes"/>
      <point x="531" y="597"/>
      <point x="534" y="575"/>
      <point x="557" y="575" type="curve" smooth="yes"/>
      <point x="628" y="575" type="line" smooth="yes"/>
      <point x="657" y="575"/>
      <point x="668" y="602"/>
      <point x="670" y="608" type="curve" smooth="yes"/>
    </contour>
    <contour>
      <point x="701" y="571" type="curve" smooth="yes"/>
      <point x="494" y="571" type="line" smooth="yes"/>
      <point x="471" y="571"/>
      <point x="451" y="586"/>
      <point x="435" y="617" type="curve"/>
      <point x="358" y="575" type="line"/>
      <point x="387" y="493"/>
      <point x="454" y="489"/>
      <point x="467" y="489" type="curve" smooth="yes"/>
      <point x="698" y="489" type="line" smooth="yes"/>
      <point x="766" y="489"/>
      <point x="817" y="554"/>
      <point x="833" y="576" type="curve"/>
      <point x="782" y="630" type="line"/>
      <point x="770" y="612"/>
      <point x="742" y="571"/>
    </contour>
    <contour>
      <point x="890" y="494" type="curve" smooth="yes"/>
      <point x="742" y="494" type="line" smooth="yes"/>
      <point x="682" y="494"/>
      <point x="643" y="442"/>
      <point x="634" y="414" type="curve"/>
      <point x="609" y="297" type="line"/>
      <point x="608" y="285"/>
      <point x="590" y="271"/>
      <point x="575" y="271" type="curve" smooth="yes"/>
      <point x="544" y="271" type="line" smooth="yes"/>
      <point x="529" y="271"/>
      <point x="513" y="280"/>
      <point x="494" y="299" type="curve"/>
      <point x="453" y="228" type="line"/>
      <point x="471" y="202"/>
      <point x="495" y="189"/>
      <point x="524" y="189" type="curve" smooth="yes"/>
      <point x="606" y="189" type="line" smooth="yes"/>
      <point x="627" y="189"/>
      <point x="647" y="197"/>
      <point x="666" y="214" type="curve" smooth="yes"/>
      <point x="684" y="227"/>
      <point x="697" y="243"/>
      <point x="703" y="273" type="curve" smooth="yes"/>
      <point x="728" y="392" type="line" smooth="yes"/>
      <point x="730" y="397"/>
      <point x="733" y="403"/>
      <point x="738" y="409" type="curve"/>
      <point x="751" y="415" type="line"/>
      <point x="822" y="414" type="line" smooth="yes"/>
      <point x="835" y="414"/>
      <point x="850" y="406"/>
      <point x="847" y="389" type="curve" smooth="yes"/>
      <point x="802" y="179" type="line" smooth="yes"/>
      <point x="799" y="166"/>
      <point x="782" y="141"/>
      <point x="764" y="141" type="curve" smooth="yes"/>
      <point x="640" y="141" type="line"/>
      <point x="623" y="60" type="line"/>
      <point x="753" y="60" type="line" smooth="yes"/>
      <point x="825" y="60"/>
      <point x="885" y="109"/>
      <point x="898" y="168" type="curve" smooth="yes"/>
      <point x="952" y="422" type="line" smooth="yes"/>
      <point x="953" y="429"/>
      <point x="954" y="433"/>
      <point x="954" y="436" type="curve" smooth="yes"/>
      <point x="954" y="460"/>
      <point x="936" y="494"/>
    </contour>
    <contour>
      <point x="429" y="247" type="curve"/>
      <point x="465" y="268"/>
      <point x="475" y="306"/>
      <point x="478" y="319" type="curve" smooth="yes"/>
      <point x="496" y="405" type="line" smooth="yes"/>
      <point x="497" y="414"/>
      <point x="498" y="421"/>
      <point x="498" y="424" type="curve" smooth="yes"/>
      <point x="498" y="455"/>
      <point x="476" y="492"/>
      <point x="425" y="492" type="curve" smooth="yes"/>
      <point x="255" y="492" type="line" smooth="yes"/>
      <point x="246" y="492"/>
      <point x="155" y="490"/>
      <point x="135" y="415" type="curve"/>
      <point x="122" y="353" type="line"/>
      <point x="218" y="353" type="line"/>
      <point x="225" y="387" type="line"/>
      <point x="232" y="409"/>
      <point x="259" y="411"/>
      <point x="268" y="411" type="curve" smooth="yes"/>
      <point x="360" y="411" type="line" smooth="yes"/>
      <point x="383" y="411"/>
      <point x="397" y="395"/>
      <point x="393" y="377" type="curve" smooth="yes"/>
      <point x="382" y="323" type="line"/>
      <point x="377" y="303"/>
      <point x="361" y="282"/>
      <point x="339" y="282" type="curve" smooth="yes"/>
      <point x="291" y="282" type="line"/>
      <point x="274" y="201" type="line"/>
      <point x="327" y="201" type="line" smooth="yes"/>
      <point x="340" y="201"/>
      <point x="349" y="190"/>
      <point x="349" y="176" type="curve" smooth="yes"/>
      <point x="349" y="172"/>
      <point x="349" y="169"/>
      <point x="348" y="166" type="curve" smooth="yes"/>
      <point x="338" y="118" type="line" smooth="yes"/>
      <point x="332" y="93"/>
      <point x="306" y="81"/>
      <point x="296" y="81" type="curve" smooth="yes"/>
      <point x="183" y="81" type="line" smooth="yes"/>
      <point x="172" y="81"/>
      <point x="165" y="94"/>
      <point x="166" y="110" type="curve"/>
      <point x="173" y="139" type="line"/>
      <point x="77" y="139" type="line"/>
      <point x="62" y="70" type="line" smooth="yes"/>
      <point x="61" y="67"/>
      <point x="61" y="62"/>
      <point x="61" y="57" type="curve" smooth="yes"/>
      <point x="61" y="44"/>
      <point x="66" y="32"/>
      <point x="77" y="22" type="curve"/>
      <point x="87" y="7"/>
      <point x="107" y="0"/>
      <point x="137" y="2" type="curve"/>
      <point x="334" y="2" type="line" smooth="yes"/>
      <point x="378" y="2"/>
      <point x="418" y="40"/>
      <point x="426" y="76" type="curve" smooth="yes"/>
      <point x="449" y="182" type="line" smooth="yes"/>
      <point x="450" y="190"/>
      <point x="451" y="195"/>
      <point x="451" y="198" type="curve" smooth="yes"/>
      <point x="451" y="226"/>
      <point x="436" y="241"/>
    </contour>
  </outline>
</glyph>
<glyph name="udatta" format="2">
  <advance width="11"/>
  <unicode hex="0951"/>
  <outline>
    <contour>
      <point x="-159" y="553" type="line"/>
      <point x="-124" y="719" type="line"/>
      <point x="-191" y="719" type="line"/>
      <point x="-226" y="553" type="line"/>
    </contour>
  </outline>
</glyph>
<glyph name="anudatta" format="2">
  <advance width="11"/>
  <unicode hex="0952"/>
  <outline>
    <contour>
      <point x="-197" y="-349" type="line"/>
      <point x="-232" y="-292" type="line"/>
      <point x="-493" y="-292" type="line"/>
      <point x="-457" y="-349" type="line"/>
    </contour>
  </outline>
</glyph>
<glyph name="gravedeva" format="2">
  <unicode hex="0953"/>
  <anchor x="-268" y="548" name="_C"/>
  <outline>
    <contour>
      <point x="-141" y="548" type="line"/>
      <point x="-303" y="719" type="line"/>
      <point x="-396" y="721" type="line"/>
      <point x="-239" y="554" type="line"/>
    </contour>
  </outline>
</glyph>
<glyph name="acutedeva" format="2">
  <advance width="11"/>
  <unicode hex="0954"/>
  <outline>
    <contour>
      <point x="75" y="728" type="line"/>
      <point x="-19" y="726" type="line"/>
      <point x="-253" y="556" type="line"/>
      <point x="-158" y="558" type="line"/>
    </contour>
  </outline>
</glyph>
<glyph name="danda" format="2">
  <advance width="207"/>
  <unicode hex="0964"/>
  <outline>
    <contour>
      <point x="237" y="0" type="line"/>
      <point x="341" y="488" type="line"/>
      <point x="243" y="488" type="line"/>
      <point x="139" y="0" type="line"/>
    </contour>
  </outline>
</glyph>
<glyph name="spacingcandrabindu" format="2">
  <advance width="831"/>
  <unicode hex="0C80"/>
  <outline>
    <contour>
      <point x="681" y="656" type="line" smooth="yes"/>
      <point x="683" y="666"/>
      <point x="681" y="673"/>
      <point x="674" y="678" type="curve" smooth="yes"/>
      <point x="671" y="683"/>
      <point x="663" y="686"/>
      <point x="652" y="686" type="curve" smooth="yes"/>
      <point x="581" y="686" type="line" smooth="yes"/>
      <point x="564" y="686"/>
      <point x="547" y="676"/>
      <point x="543" y="656" type="curve" smooth="yes"/>
      <point x="533" y="608" type="line" smooth="yes"/>
      <point x="531" y="597"/>
      <point x="534" y="575"/>
      <point x="557" y="575" type="curve" smooth="yes"/>
      <point x="628" y="575" type="line" smooth="yes"/>
      <point x="657" y="575"/>
      <point x="668" y="602"/>
      <point x="670" y="608" type="curve" smooth="yes"/>
    </contour>
    <contour>
      <point x="701" y="571" type="curve" smooth="yes"/>
      <point x="494" y="571" type="line" smooth="yes"/>
      <point x="471" y="571"/>
      <point x="451" y="586"/>
      <point x="435" y="617" type="curve"/>
      <point x="358" y="575" type="line"/>
      <point x="387" y="493"/>
      <point x="454" y="489"/>
      <point x="467" y="489" type="curve" smooth="yes"/>
      <point x="698" y="489" type="line" smooth="yes"/>
      <point x="766" y="489"/>
      <point x="817" y="554"/>
      <point x="833" y="576" type="curve"/>
      <point x="782" y="630" type="line"/>
      <point x="770" y="612"/>
      <point x="742" y="571"/>
    </contour>
  </outline>
</glyph>
<glyph name="anusvara" format="2">
  <advance width="562"/>
  <unicode hex="0C82"/>
  <outline>
    <contour>
      <point x="553" y="488" type="curve" smooth="yes"/>
      <point x="348" y="488" type="line" smooth="yes"/>
      <point x="269" y="488"/>
      <point x="217" y="434"/>
      <point x="205" y="383" type="curve"/>
      <point x="150" y="121" type="line" smooth="yes"/>
      <point x="148" y="112"/>
      <point x="147" y="103"/>
      <point x="147" y="96" type="curve" smooth="yes"/>
      <point x="147" y="47"/>
      <point x="185" y="0"/>
      <point x="244" y="0" type="curve" smooth="yes"/>
      <point x="469" y="0" type="line" smooth="yes"/>
      <point x="524" y="0"/>
      <point x="581" y="52"/>
      <point x="594" y="112" type="curve" smooth="yes"/>
      <point x="649" y="374" type="line" smooth="yes"/>
      <point x="651" y="382"/>
      <point x="652" y="390"/>
      <point x="652" y="398" type="curve" smooth="yes"/>
      <point x="652" y="446"/>
      <point x="614" y="488"/>
    </contour>
    <contour>
      <point x="552" y="379" type="curve" smooth="yes"/>
      <point x="552" y="374"/>
      <point x="552" y="371"/>
      <point x="551" y="368" type="curve" smooth="yes"/>
      <point x="500" y="127" type="line" smooth="yes"/>
      <point x="494" y="100"/>
      <point x="471" y="81"/>
      <point x="452" y="81" type="curve" smooth="yes"/>
      <point x="292" y="81" type="line" smooth="yes"/>
      <point x="264" y="81"/>
      <point x="243" y="103"/>
      <point x="248" y="127" type="curve" smooth="yes"/>
      <point x="300" y="374" type="line" smooth="yes"/>
      <point x="305" y="396"/>
      <point x="333" y="407"/>
      <point x="358" y="407" type="curve" smooth="yes"/>
      <point x="522" y="407" type="line" smooth="yes"/>
      <point x="552" y="407"/>
      <point x="552" y="379"/>
    </contour>
  </outline>
</glyph>
<glyph name="visarga" format="2">
  <advance width="363"/>
  <unicode hex="0C83"/>
  <outline>
    <contour>
      <point x="405" y="488" type="curve" smooth="yes"/>
      <point x="302" y="488" type="line" smooth="yes"/>
      <point x="258" y="488"/>
      <point x="207" y="460"/>
      <point x="197" y="411" type="curve" smooth="yes"/>
      <point x="181" y="336" type="line" smooth="yes"/>
      <point x="180" y="332"/>
      <point x="180" y="327"/>
      <point x="180" y="320" type="curve" smooth="yes"/>
      <point x="180" y="299"/>
      <point x="196" y="256"/>
      <point x="252" y="256" type="curve" smooth="yes"/>
      <point x="366" y="256" type="line" smooth="yes"/>
      <point x="417" y="256"/>
      <point x="454" y="297"/>
      <point x="461" y="330" type="curve" smooth="yes"/>
      <point x="477" y="406" type="line" smooth="yes"/>
      <point x="478" y="413"/>
      <point x="479" y="418"/>
      <point x="479" y="422" type="curve" smooth="yes"/>
      <point x="479" y="444"/>
      <point x="461" y="488"/>
    </contour>
    <contour>
      <point x="198" y="1" type="curve" smooth="yes"/>
      <point x="318" y="0" type="line" smooth="yes"/>
      <point x="358" y="0"/>
      <point x="399" y="37"/>
      <point x="409" y="83" type="curve" smooth="yes"/>
      <point x="422" y="146" type="line" smooth="yes"/>
      <point x="423" y="155"/>
      <point x="424" y="162"/>
      <point x="424" y="165" type="curve" smooth="yes"/>
      <point x="424" y="182"/>
      <point x="419" y="197"/>
      <point x="408" y="208" type="curve" smooth="yes"/>
      <point x="396" y="225"/>
      <point x="377" y="233"/>
      <point x="351" y="233" type="curve" smooth="yes"/>
      <point x="248" y="233" type="line" smooth="yes"/>
      <point x="205" y="233"/>
      <point x="153" y="205"/>
      <point x="143" y="155" type="curve" smooth="yes"/>
      <point x="127" y="80" type="line" smooth="yes"/>
      <point x="126" y="72"/>
      <point x="125" y="67"/>
      <point x="125" y="64" type="curve" smooth="yes"/>
      <point x="125" y="33"/>
      <point x="153" y="1"/>
    </contour>
    <contour>
      <point x="280" y="355" type="curve"/>
      <point x="289" y="392" type="line" smooth="yes"/>
      <point x="293" y="405"/>
      <point x="307" y="407"/>
      <point x="317" y="407" type="curve" smooth="yes"/>
      <point x="364" y="407" type="line" smooth="yes"/>
      <point x="380" y="407"/>
      <point x="378" y="395"/>
      <point x="377" y="392" type="curve" smooth="yes"/>
      <point x="368" y="349" type="line"/>
      <point x="365" y="344"/>
      <point x="364" y="342"/>
      <point x="349" y="337" type="curve"/>
      <point x="298" y="337" type="line" smooth="yes"/>
      <point x="284" y="337"/>
      <point x="281" y="349"/>
    </contour>
    <contour>
      <point x="314" y="93" type="line"/>
      <point x="309" y="84" type="line"/>
      <point x="305" y="82"/>
      <point x="301" y="81"/>
      <point x="298" y="81" type="curve" smooth="yes"/>
      <point x="236" y="81" type="line" smooth="yes"/>
      <point x="232" y="81"/>
      <point x="229" y="85"/>
      <point x="229" y="86" type="curve" smooth="yes"/>
      <point x="226" y="100" type="line"/>
      <point x="236" y="141" type="line" smooth="yes"/>
      <point x="237" y="143"/>
      <point x="239" y="145"/>
      <point x="243" y="148" type="curve"/>
      <point x="258" y="151" type="line"/>
      <point x="319" y="151" type="line"/>
      <point x="324" y="146"/>
      <point x="325" y="145"/>
      <point x="323" y="137" type="curve" smooth="yes"/>
    </contour>
  </outline>
</glyph>
<glyph name="avowel" format="2">
  <advance width="730"/>
  <unicode hex="0C85"/>
  <anchor x="218" y="558" name="C"/>
  <anchor x="410" y="-71" name="N"/>
  <outline>
    <contour>
      <point x="743" y="488" type="curve" smooth="yes"/>
      <point x="614" y="488" type="line"/>
      <point x="586" y="358" type="line" smooth="yes"/>
      <point x="585" y="356"/>
      <point x="585" y="352"/>
      <point x="585" y="347" type="curve" smooth="yes"/>
      <point x="585" y="332"/>
      <point x="592" y="316"/>
      <point x="605" y="299" type="curve"/>
      <point x="399" y="299" type="line"/>
      <point x="381" y="218" type="line"/>
      <point x="704" y="218" type="line"/>
      <point x="721" y="295" type="line"/>
      <point x="696" y="314"/>
      <point x="683" y="334"/>
      <point x="683" y="353" type="curve" smooth="yes"/>
      <point x="683" y="358"/>
      <point x="683" y="361"/>
      <point x="684" y="364" type="curve" smooth="yes"/>
      <point x="694" y="407" type="line"/>
      <point x="717" y="407" type="line" smooth="yes"/>
      <point x="751" y="407"/>
      <point x="744" y="378"/>
      <point x="744" y="377" type="curve" smooth="yes"/>
      <point x="694" y="141" type="line" smooth="yes"/>
      <point x="691" y="123"/>
      <point x="669" y="81"/>
      <point x="630" y="81" type="curve" smooth="yes"/>
      <point x="298" y="81" type="line" smooth="yes"/>
      <point x="285" y="81"/>
      <point x="273" y="86"/>
      <point x="262" y="95" type="curve"/>
      <point x="255" y="107"/>
      <point x="252" y="118"/>
      <point x="254" y="127" type="curve" smooth="yes"/>
      <point x="303" y="358" type="line" smooth="yes"/>
      <point x="306" y="375"/>
      <point x="322" y="407"/>
      <point x="347" y="407" type="curve" smooth="yes"/>
      <point x="372" y="407" type="line"/>
      <point x="353" y="322" type="line"/>
      <point x="449" y="322" type="line"/>
      <point x="485" y="488" type="line"/>
      <point x="344" y="488" type="line" smooth="yes"/>
      <point x="287" y="488"/>
      <point x="227" y="449"/>
      <point x="214" y="387" type="curve" smooth="yes"/>
      <point x="154" y="103" type="line" smooth="yes"/>
      <point x="153" y="94"/>
      <point x="152" y="87"/>
      <point x="152" y="83" type="curve" smooth="yes"/>
      <point x="152" y="30"/>
      <point x="201" y="1"/>
      <point x="254" y="1" type="curve" smooth="yes"/>
      <point x="650" y="0" type="line" smooth="yes"/>
      <point x="681" y="0"/>
      <point x="709" y="10"/>
      <point x="734" y="31" type="curve" smooth="yes"/>
      <point x="761" y="50"/>
      <point x="777" y="74"/>
      <point x="783" y="103" type="curve" smooth="yes"/>
      <point x="844" y="392" type="line" smooth="yes"/>
      <point x="845" y="400"/>
      <point x="846" y="406"/>
      <point x="846" y="410" type="curve" smooth="yes"/>
      <point x="846" y="457"/>
      <point x="798" y="488"/>
    </contour>
  </outline>
</glyph>
<glyph name="aavowel" format="2">
  <advance width="781"/>
  <unicode hex="0C86"/>
  <anchor x="526" y="-118" name="N"/>
  <outline>
    <contour>
      <point x="821" y="486" type="curve" smooth="yes"/>
      <point x="755" y="486" type="line" smooth="yes"/>
      <point x="704" y="486"/>
      <point x="650" y="459"/>
      <point x="641" y="413" type="curve"/>
      <point x="629" y="356" type="line" smooth="yes"/>
      <point x="627" y="350"/>
      <point x="629" y="340"/>
      <point x="636" y="327" type="curve"/>
      <point x="459" y="327" type="line"/>
      <point x="441" y="246" type="line"/>
      <point x="655" y="246" type="line"/>
      <point x="666" y="231"/>
      <point x="671" y="218"/>
      <point x="669" y="207" type="curve" smooth="yes"/>
      <point x="652" y="127" type="line" smooth="yes"/>
      <point x="647" y="102"/>
      <point x="618" y="80"/>
      <point x="598" y="80" type="curve" smooth="yes"/>
      <point x="290" y="80" type="line" smooth="yes"/>
      <point x="269" y="80"/>
      <point x="255" y="97"/>
      <point x="255" y="114" type="curve" smooth="yes"/>
      <point x="255" y="116"/>
      <point x="256" y="120"/>
      <point x="257" y="127" type="curve" smooth="yes"/>
      <point x="309" y="374" type="line" smooth="yes"/>
      <point x="312" y="388"/>
      <point x="328" y="407"/>
      <point x="354" y="407" type="curve" smooth="yes"/>
      <point x="364" y="407" type="line"/>
      <point x="345" y="322" type="line"/>
      <point x="441" y="322" type="line"/>
      <point x="477" y="488" type="line"/>
      <point x="367" y="488" type="line" smooth="yes"/>
      <point x="303" y="488"/>
      <point x="231" y="455"/>
      <point x="215" y="387" type="curve"/>
      <point x="155" y="103" type="line" smooth="yes"/>
      <point x="153" y="95"/>
      <point x="152" y="87"/>
      <point x="152" y="79" type="curve" smooth="yes"/>
      <point x="152" y="44"/>
      <point x="179" y="1"/>
      <point x="236" y="1" type="curve" smooth="yes"/>
      <point x="615" y="-2" type="line" smooth="yes"/>
      <point x="690" y="-2"/>
      <point x="732" y="44"/>
      <point x="739" y="79" type="curve" smooth="yes"/>
      <point x="766" y="205" type="line" smooth="yes"/>
      <point x="767" y="215"/>
      <point x="763" y="228"/>
      <point x="752" y="244" type="curve"/>
      <point x="766" y="244" type="line" smooth="yes"/>
      <point x="824" y="244"/>
      <point x="877" y="293"/>
      <point x="888" y="347" type="curve" smooth="yes"/>
      <point x="899" y="400" type="line" smooth="yes"/>
      <point x="900" y="408"/>
      <point x="901" y="414"/>
      <point x="901" y="417" type="curve" smooth="yes"/>
      <point x="901" y="420"/>
      <point x="900" y="486"/>
    </contour>
    <contour>
      <point x="766" y="326" type="curve" smooth="yes"/>
      <point x="735" y="326" type="line"/>
      <point x="727" y="339"/>
      <point x="724" y="351"/>
      <point x="727" y="362" type="curve" smooth="yes"/>
      <point x="732" y="385" type="line" smooth="yes"/>
      <point x="733" y="390"/>
      <point x="738" y="406"/>
      <point x="759" y="406" type="curve" smooth="yes"/>
      <point x="790" y="406" type="line" smooth="yes"/>
      <point x="796" y="406"/>
      <point x="799" y="403"/>
      <point x="799" y="396" type="curve" smooth="yes"/>
      <point x="799" y="392" type="line" smooth="yes"/>
      <point x="799" y="389"/>
      <point x="799" y="387"/>
      <point x="798" y="385" type="curve" smooth="yes"/>
      <point x="791" y="352" type="line" smooth="yes"/>
      <point x="788" y="339"/>
      <point x="777" y="326"/>
    </contour>
  </outline>
</glyph>
<glyph name="ivowel" format="2">
  <advance width="589"/>
  <unicode hex="0C87"/>
  <anchor x="402" y="-116" name="N"/>
  <outline>
    <contour>
      <point x="601" y="488" type="curve" smooth="yes"/>
      <point x="508" y="488" type="line" smooth="yes"/>
      <point x="473" y="488"/>
      <point x="442" y="468"/>
      <point x="429" y="450" type="curve"/>
      <point x="410" y="486"/>
      <point x="373" y="488"/>
      <point x="354" y="488" type="curve" smooth="yes"/>
      <point x="256" y="488" type="line" smooth="yes"/>
      <point x="204" y="488"/>
      <point x="136" y="457"/>
      <point x="120" y="387" type="curve"/>
      <point x="105" y="316" type="line" smooth="yes"/>
      <point x="104" y="307"/>
      <point x="103" y="300"/>
      <point x="103" y="297" type="curve" smooth="yes"/>
      <point x="103" y="262"/>
      <point x="130" y="219"/>
      <point x="189" y="219" type="curve"/>
      <point x="233" y="218" type="line"/>
      <point x="251" y="299" type="line"/>
      <point x="226" y="299" type="line" smooth="yes"/>
      <point x="224" y="299"/>
      <point x="204" y="300"/>
      <point x="204" y="331" type="curve"/>
      <point x="215" y="377" type="line" smooth="yes"/>
      <point x="219" y="393"/>
      <point x="234" y="407"/>
      <point x="259" y="407" type="curve" smooth="yes"/>
      <point x="327" y="407" type="line" smooth="yes"/>
      <point x="357" y="407"/>
      <point x="367" y="389"/>
      <point x="364" y="374" type="curve" smooth="yes"/>
      <point x="353" y="322" type="line"/>
      <point x="449" y="322" type="line"/>
      <point x="461" y="377" type="line" smooth="yes"/>
      <point x="467" y="404"/>
      <point x="498" y="407"/>
      <point x="511" y="407" type="curve" smooth="yes"/>
      <point x="567" y="407" type="line" smooth="yes"/>
      <point x="600" y="407"/>
      <point x="604" y="392"/>
      <point x="601" y="383" type="curve" smooth="yes"/>
      <point x="579" y="276" type="line"/>
      <point x="568" y="286" type="line" smooth="yes"/>
      <point x="557" y="295"/>
      <point x="544" y="299"/>
      <point x="529" y="299" type="curve" smooth="yes"/>
      <point x="441" y="299" type="line" smooth="yes"/>
      <point x="391" y="299"/>
      <point x="351" y="276"/>
      <point x="346" y="244" type="curve"/>
      <point x="335" y="193" type="line" smooth="yes"/>
      <point x="334" y="190"/>
      <point x="334" y="186"/>
      <point x="334" y="181" type="curve" smooth="yes"/>
      <point x="334" y="157"/>
      <point x="348" y="147"/>
      <point x="352" y="144" type="curve" smooth="yes"/>
      <point x="365" y="130"/>
      <point x="384" y="123"/>
      <point x="409" y="123" type="curve" smooth="yes"/>
      <point x="484" y="123" type="line"/>
      <point x="476" y="83" type="line" smooth="yes"/>
      <point x="475" y="76"/>
      <point x="474" y="71"/>
      <point x="474" y="68" type="curve" smooth="yes"/>
      <point x="474" y="28"/>
      <point x="510" y="0"/>
      <point x="558" y="0" type="curve" smooth="yes"/>
      <point x="617" y="0" type="line"/>
      <point x="634" y="81" type="line"/>
      <point x="589" y="81" type="line" smooth="yes"/>
      <point x="589" y="81"/>
      <point x="572" y="83"/>
      <point x="576" y="99" type="curve" smooth="yes"/>
      <point x="586" y="144" type="line"/>
      <point x="635" y="182"/>
      <point x="664" y="222"/>
      <point x="673" y="264" type="curve" smooth="yes"/>
      <point x="698" y="383" type="line" smooth="yes"/>
      <point x="700" y="391"/>
      <point x="701" y="398"/>
      <point x="701" y="405" type="curve" smooth="yes"/>
      <point x="701" y="435"/>
      <point x="681" y="488"/>
    </contour>
    <contour>
      <point x="436" y="208" type="curve"/>
      <point x="436" y="212" type="line"/>
      <point x="438" y="218"/>
      <point x="438" y="218"/>
      <point x="444" y="218" type="curve" smooth="yes"/>
      <point x="491" y="218" type="line" smooth="yes"/>
      <point x="506" y="218"/>
      <point x="503" y="209"/>
      <point x="501" y="204" type="curve"/>
      <point x="441" y="204" type="line" smooth="yes"/>
      <point x="441" y="204"/>
      <point x="438" y="204"/>
    </contour>
  </outline>
</glyph>
<glyph name="iivowel" format="2">
  <advance width="915"/>
  <unicode hex="0C88"/>
  <anchor x="566" y="-116" name="N"/>
  <outline>
    <contour>
      <point x="945" y="452" type="curve" smooth="yes"/>
      <point x="859" y="452" type="line" smooth="yes"/>
      <point x="803" y="452"/>
      <point x="760" y="409"/>
      <point x="751" y="365" type="curve" smooth="yes"/>
      <point x="740" y="313" type="line" smooth="yes"/>
      <point x="739" y="308"/>
      <point x="738" y="302"/>
      <point x="738" y="294" type="curve" smooth="yes"/>
      <point x="738" y="281"/>
      <point x="740" y="271"/>
      <point x="745" y="262" type="curve"/>
      <point x="663" y="262" type="line"/>
      <point x="679" y="337" type="line"/>
      <point x="684" y="370"/>
      <point x="657" y="398"/>
      <point x="642" y="410" type="curve"/>
      <point x="667" y="417"/>
      <point x="687" y="428"/>
      <point x="703" y="444" type="curve" smooth="yes"/>
      <point x="726" y="463"/>
      <point x="741" y="485"/>
      <point x="747" y="512" type="curve" smooth="yes"/>
      <point x="756" y="557" type="line"/>
      <point x="658" y="557" type="line"/>
      <point x="649" y="512" type="line" smooth="yes"/>
      <point x="649" y="510"/>
      <point x="642" y="490"/>
      <point x="621" y="490" type="curve" smooth="yes"/>
      <point x="245" y="490" type="line"/>
      <point x="228" y="409" type="line"/>
      <point x="285" y="409" type="line"/>
      <point x="247" y="378"/>
      <point x="225" y="348"/>
      <point x="218" y="317" type="curve" smooth="yes"/>
      <point x="207" y="262" type="line"/>
      <point x="126" y="262" type="line"/>
      <point x="108" y="181" type="line"/>
      <point x="189" y="181" type="line"/>
      <point x="170" y="90" type="line" smooth="yes"/>
      <point x="169" y="82"/>
      <point x="168" y="76"/>
      <point x="168" y="72" type="curve" smooth="yes"/>
      <point x="168" y="36"/>
      <point x="196" y="1"/>
      <point x="244" y="1" type="curve" smooth="yes"/>
      <point x="501" y="0" type="line" smooth="yes"/>
      <point x="562" y="0"/>
      <point x="617" y="49"/>
      <point x="628" y="99" type="curve" smooth="yes"/>
      <point x="645" y="181" type="line"/>
      <point x="799" y="181" type="line"/>
      <point x="837" y="132" type="line"/>
      <point x="869" y="104"/>
      <point x="836" y="81"/>
      <point x="826" y="81" type="curve" smooth="yes"/>
      <point x="711" y="81" type="line"/>
      <point x="694" y="0" type="line"/>
      <point x="869" y="0" type="line" smooth="yes"/>
      <point x="894" y="0"/>
      <point x="929" y="23"/>
      <point x="938" y="61" type="curve" smooth="yes"/>
      <point x="948" y="109" type="line" smooth="yes"/>
      <point x="951" y="123"/>
      <point x="938" y="150"/>
      <point x="909" y="191" type="curve"/>
      <point x="970" y="215"/>
      <point x="1000" y="256"/>
      <point x="1007" y="289" type="curve" smooth="yes"/>
      <point x="1022" y="359" type="line" smooth="yes"/>
      <point x="1023" y="364"/>
      <point x="1024" y="370"/>
      <point x="1024" y="379" type="curve" smooth="yes"/>
      <point x="1024" y="403"/>
      <point x="1006" y="452"/>
    </contour>
    <contour>
      <point x="867" y="261" type="curve"/>
      <point x="838" y="281" type="line"/>
      <point x="835" y="287"/>
      <point x="833" y="293"/>
      <point x="834" y="300" type="curve" smooth="yes"/>
      <point x="846" y="355" type="line"/>
      <point x="854" y="367" type="line" smooth="yes"/>
      <point x="856" y="370"/>
      <point x="860" y="371"/>
      <point x="867" y="371" type="curve" smooth="yes"/>
      <point x="907" y="371" type="line" smooth="yes"/>
      <point x="925" y="371"/>
      <point x="923" y="351"/>
      <point x="923" y="351" type="curve" smooth="yes"/>
      <point x="912" y="299" type="line"/>
      <point x="908" y="285"/>
      <point x="889" y="266"/>
    </contour>
    <contour>
      <point x="566" y="264" type="line"/>
      <point x="304" y="264" type="line"/>
      <point x="317" y="323" type="line" smooth="yes"/>
      <point x="324" y="356"/>
      <point x="350" y="385"/>
      <point x="395" y="412" type="curve"/>
      <point x="551" y="412" type="line"/>
      <point x="573" y="398"/>
      <point x="584" y="380"/>
      <point x="584" y="357" type="curve" smooth="yes"/>
      <point x="584" y="351" type="line" smooth="yes"/>
      <point x="584" y="348"/>
      <point x="584" y="346"/>
      <point x="583" y="343" type="curve" smooth="yes"/>
    </contour>
    <contour>
      <point x="483" y="83" type="curve" smooth="yes"/>
      <point x="299" y="83" type="line" smooth="yes"/>
      <point x="283" y="83"/>
      <point x="270" y="102"/>
      <point x="274" y="120" type="curve" smooth="yes"/>
      <point x="287" y="183" type="line"/>
      <point x="549" y="183" type="line"/>
      <point x="538" y="130" type="line" smooth="yes"/>
      <point x="532" y="104"/>
      <point x="502" y="83"/>
    </contour>
  </outline>
</glyph>
<glyph name="uvowel" format="2">
  <advance width="1097"/>
  <unicode hex="0C89"/>
  <anchor x="684" y="-116" name="N"/>
  <outline>
    <contour>
      <point x="1137" y="488" type="curve" smooth="yes"/>
      <point x="1085" y="488" type="line"/>
      <point x="1066" y="398" type="line"/>
      <point x="1088" y="398" type="line" smooth="yes"/>
      <point x="1115" y="398"/>
      <point x="1113" y="377"/>
      <point x="1113" y="377" type="curve" smooth="yes"/>
      <point x="1057" y="112" type="line"/>
      <point x="1052" y="96"/>
      <point x="1037" y="81"/>
      <point x="1020" y="81" type="curve" smooth="yes"/>
      <point x="903" y="81" type="line" smooth="yes"/>
      <point x="889" y="81"/>
      <point x="872" y="95"/>
      <point x="878" y="117" type="curve"/>
      <point x="935" y="387" type="line" smooth="yes"/>
      <point x="936" y="395"/>
      <point x="937" y="401"/>
      <point x="937" y="405" type="curve" smooth="yes"/>
      <point x="937" y="452"/>
      <point x="902" y="488"/>
      <point x="840" y="488" type="curve" smooth="yes"/>
      <point x="676" y="488" type="line" smooth="yes"/>
      <point x="647" y="488"/>
      <point x="620" y="478"/>
      <point x="595" y="457" type="curve" smooth="yes"/>
      <point x="572" y="440"/>
      <point x="559" y="422"/>
      <point x="550" y="383" type="curve" smooth="yes"/>
      <point x="493" y="112" type="line" smooth="yes"/>
      <point x="492" y="105"/>
      <point x="479" y="81"/>
      <point x="456" y="81" type="curve" smooth="yes"/>
      <point x="282" y="81" type="line" smooth="yes"/>
      <point x="260" y="81"/>
      <point x="248" y="102"/>
      <point x="252" y="117" type="curve" smooth="yes"/>
      <point x="307" y="377" type="line" smooth="yes"/>
      <point x="308" y="384"/>
      <point x="317" y="407"/>
      <point x="347" y="407" type="curve" smooth="yes"/>
      <point x="392" y="407" type="line"/>
      <point x="378" y="345" type="line" smooth="yes"/>
      <point x="374" y="333"/>
      <point x="359" y="327"/>
      <point x="355" y="327" type="curve" smooth="yes"/>
      <point x="313" y="327" type="line"/>
      <point x="295" y="246" type="line"/>
      <point x="358" y="246" type="line" smooth="yes"/>
      <point x="421" y="246"/>
      <point x="468" y="305"/>
      <point x="475" y="345" type="curve"/>
      <point x="506" y="488" type="line"/>
      <point x="344" y="488" type="line" smooth="yes"/>
      <point x="327" y="488"/>
      <point x="238" y="483"/>
      <point x="212" y="377" type="curve"/>
      <point x="157" y="117" type="line" smooth="yes"/>
      <point x="155" y="108"/>
      <point x="154" y="99"/>
      <point x="154" y="90" type="curve" smooth="yes"/>
      <point x="154" y="34"/>
      <point x="203" y="1"/>
      <point x="260" y="1" type="curve" smooth="yes"/>
      <point x="445" y="0" type="line" smooth="yes"/>
      <point x="504" y="0"/>
      <point x="576" y="43"/>
      <point x="588" y="103" type="curve" smooth="yes"/>
      <point x="647" y="383" type="line"/>
      <point x="654" y="407"/>
      <point x="670" y="407"/>
      <point x="679" y="407" type="curve" smooth="yes"/>
      <point x="813" y="407" type="line" smooth="yes"/>
      <point x="822" y="407"/>
      <point x="829" y="405"/>
      <point x="834" y="401" type="curve"/>
      <point x="837" y="393"/>
      <point x="838" y="387"/>
      <point x="837" y="383" type="curve" smooth="yes"/>
      <point x="779" y="109" type="line" smooth="yes"/>
      <point x="778" y="101"/>
      <point x="777" y="95"/>
      <point x="777" y="91" type="curve" smooth="yes"/>
      <point x="777" y="23"/>
      <point x="837" y="0"/>
      <point x="880" y="0" type="curve" smooth="yes"/>
      <point x="1020" y="0" type="line" smooth="yes"/>
      <point x="1079" y="0"/>
      <point x="1139" y="49"/>
      <point x="1152" y="109" type="curve" smooth="yes"/>
      <point x="1213" y="396" type="line" smooth="yes"/>
      <point x="1214" y="405"/>
      <point x="1215" y="412"/>
      <point x="1215" y="415" type="curve" smooth="yes"/>
      <point x="1215" y="444"/>
      <point x="1197" y="488"/>
    </contour>
  </outline>
</glyph>
<glyph name="uuvowel" format="2">
  <advance width="1315"/>
  <unicode hex="0C8A"/>
  <anchor x="790" y="-116" name="N"/>
  <outline>
    <contour>
      <point x="1318" y="488" type="curve" smooth="yes"/>
      <point x="1199" y="488" type="line" smooth="yes"/>
      <point x="1176" y="488"/>
      <point x="1154" y="483"/>
      <point x="1133" y="473" type="curve" smooth="yes"/>
      <point x="1080" y="447"/>
      <point x="1058" y="404"/>
      <point x="1050" y="368" type="curve" smooth="yes"/>
      <point x="998" y="121" type="line"/>
      <point x="991" y="95"/>
      <point x="966" y="81"/>
      <point x="948" y="81" type="curve" smooth="yes"/>
      <point x="852" y="81" type="line" smooth="yes"/>
      <point x="840" y="81"/>
      <point x="821" y="88"/>
      <point x="827" y="112" type="curve" smooth="yes"/>
      <point x="883" y="377" type="line" smooth="yes"/>
      <point x="884" y="385"/>
      <point x="885" y="391"/>
      <point x="885" y="395" type="curve" smooth="yes"/>
      <point x="885" y="485"/>
      <point x="790" y="488"/>
      <point x="779" y="488" type="curve" smooth="yes"/>
      <point x="666" y="488" type="line" smooth="yes"/>
      <point x="602" y="488"/>
      <point x="535" y="446"/>
      <point x="518" y="377" type="curve"/>
      <point x="464" y="121" type="line" smooth="yes"/>
      <point x="459" y="92"/>
      <point x="433" y="81"/>
      <point x="421" y="81" type="curve" smooth="yes"/>
      <point x="292" y="81" type="line" smooth="yes"/>
      <point x="264" y="81"/>
      <point x="249" y="99"/>
      <point x="253" y="121" type="curve" smooth="yes"/>
      <point x="307" y="377" type="line" smooth="yes"/>
      <point x="310" y="391"/>
      <point x="326" y="407"/>
      <point x="352" y="407" type="curve" smooth="yes"/>
      <point x="392" y="407" type="line"/>
      <point x="380" y="354" type="line" smooth="yes"/>
      <point x="376" y="342"/>
      <point x="362" y="337"/>
      <point x="357" y="337" type="curve" smooth="yes"/>
      <point x="325" y="337" type="line"/>
      <point x="307" y="256" type="line"/>
      <point x="349" y="256" type="line" smooth="yes"/>
      <point x="380" y="256"/>
      <point x="407" y="266"/>
      <point x="430" y="287" type="curve" smooth="yes"/>
      <point x="456" y="307"/>
      <point x="472" y="331"/>
      <point x="478" y="358" type="curve" smooth="yes"/>
      <point x="506" y="488" type="line"/>
      <point x="358" y="488" type="line" smooth="yes"/>
      <point x="323" y="488"/>
      <point x="237" y="473"/>
      <point x="213" y="383" type="curve"/>
      <point x="157" y="117" type="line" smooth="yes"/>
      <point x="155" y="108"/>
      <point x="154" y="99"/>
      <point x="154" y="92" type="curve" smooth="yes"/>
      <point x="154" y="30"/>
      <point x="216" y="1"/>
      <point x="271" y="1" type="curve" smooth="yes"/>
      <point x="408" y="0" type="line" smooth="yes"/>
      <point x="478" y="0"/>
      <point x="546" y="53"/>
      <point x="561" y="121" type="curve" smooth="yes"/>
      <point x="614" y="374" type="line" smooth="yes"/>
      <point x="617" y="386"/>
      <point x="629" y="407"/>
      <point x="655" y="407" type="curve" smooth="yes"/>
      <point x="758" y="407" type="line" smooth="yes"/>
      <point x="774" y="407"/>
      <point x="790" y="398"/>
      <point x="785" y="377" type="curve" smooth="yes"/>
      <point x="729" y="112" type="line" smooth="yes"/>
      <point x="727" y="102"/>
      <point x="726" y="93"/>
      <point x="726" y="84" type="curve" smooth="yes"/>
      <point x="726" y="36"/>
      <point x="760" y="0"/>
      <point x="809" y="0" type="curve" smooth="yes"/>
      <point x="958" y="0" type="line" smooth="yes"/>
      <point x="986" y="0"/>
      <point x="1026" y="15"/>
      <point x="1050" y="41" type="curve" smooth="yes"/>
      <point x="1071" y="65"/>
      <point x="1084" y="80"/>
      <point x="1094" y="117" type="curve"/>
      <point x="1147" y="368" type="line" smooth="yes"/>
      <point x="1151" y="387"/>
      <point x="1170" y="407"/>
      <point x="1199" y="407" type="curve" smooth="yes"/>
      <point x="1301" y="407" type="line" smooth="yes"/>
      <point x="1326" y="407"/>
      <point x="1327" y="383"/>
      <point x="1327" y="379" type="curve" smooth="yes"/>
      <point x="1327" y="374"/>
      <point x="1327" y="371"/>
      <point x="1326" y="368" type="curve" smooth="yes"/>
      <point x="1269" y="99" type="line"/>
      <point x="1263" y="86" type="line" smooth="yes"/>
      <point x="1262" y="85"/>
      <point x="1260" y="83"/>
      <point x="1256" y="81" type="curve"/>
      <point x="1231" y="81" type="line"/>
      <point x="1222" y="82"/>
      <point x="1219" y="84"/>
      <point x="1222" y="93" type="curve" smooth="yes"/>
      <point x="1237" y="166" type="line"/>
      <point x="1140" y="166" type="line"/>
      <point x="1125" y="93" type="line" smooth="yes"/>
      <point x="1123" y="86"/>
      <point x="1122" y="79"/>
      <point x="1122" y="72" type="curve" smooth="yes"/>
      <point x="1122" y="34"/>
      <point x="1157" y="0"/>
      <point x="1203" y="0" type="curve" smooth="yes"/>
      <point x="1245" y="0" type="line" smooth="yes"/>
      <point x="1287" y="0"/>
      <point x="1352" y="36"/>
      <point x="1367" y="103" type="curve"/>
      <point x="1423" y="368" type="line" smooth="yes"/>
      <point x="1424" y="373"/>
      <point x="1425" y="379"/>
      <point x="1425" y="388" type="curve" smooth="yes"/>
      <point x="1425" y="444"/>
      <point x="1388" y="488"/>
    </contour>
  </outline>
</glyph>
